<svg width="70" height="125" viewBox="0 0 70 125" fill="none" xmlns="http://www.w3.org/2000/svg">
<path d="M34.2989 37.9971C32.5504 35.5066 34.5216 31.4361 36.5847 28.5309C39.2123 24.8307 43.3663 22.1145 45.1509 17.92C46.6036 14.5065 46.0082 10.8786 44.2582 7.97053C43.0965 6.03994 41.1191 1.6635 43.1756 1.39737C43.6039 1.34217 44.8332 5.81927 46.0307 7.69396C48.0255 10.8175 47.6821 15.5669 46.5601 18.5537C45.3485 21.7796 41.5479 24.6678 39.2012 27.2762C37.6662 28.9818 36.5399 30.9363 35.8084 32.963C35.4116 34.0635 35.5814 35.2188 35.8669 36.2839C36.0625 37.0074 34.7941 38.6999 34.2999 37.997L34.2989 37.9971Z" fill="#164C82" stroke="black" stroke-width="0.817234"/>
<path d="M36.2011 36.0346C35.9832 36.3961 34.5095 37.2104 34.1384 37.3142" stroke="black" stroke-width="0.738335"/>
<path d="M35.8094 34.8997C35.5911 35.2613 34.0778 36.1031 33.7067 36.207" stroke="black" stroke-width="0.738335"/>
<path d="M35.7041 33.9476C35.4861 34.3089 33.9727 35.151 33.6015 35.2547" stroke="black" stroke-width="0.738335"/>
<path d="M35.8782 32.6488C35.6597 33.0108 34.106 33.8164 33.7343 33.9206" stroke="black" stroke-width="0.738335"/>
<path d="M36.3594 31.5059C36.0442 31.8242 34.5297 32.3493 34.1429 32.3744" stroke="black" stroke-width="0.738335"/>
<path d="M36.8477 30.5006C36.4307 30.7231 35.1743 31.0605 34.8096 30.97" stroke="black" stroke-width="0.738335"/>
<path d="M37.3466 29.6277C36.93 29.8496 35.6351 30.2292 35.2709 30.139" stroke="black" stroke-width="0.738335"/>
<path d="M37.9849 28.7192C37.5664 28.944 36.3411 29.1867 35.9035 29.086" stroke="black" stroke-width="0.738335"/>
<path d="M38.7661 27.7206C38.348 27.9452 37.0969 28.1702 36.7311 28.0788" stroke="black" stroke-width="0.738335"/>
<path d="M39.7572 26.7263C39.3386 26.9511 37.9547 27.198 37.5888 27.1064" stroke="black" stroke-width="0.738335"/>
<path d="M40.7434 25.7981C40.3251 26.0232 38.852 26.2735 38.4857 26.1817" stroke="black" stroke-width="0.738335"/>
<path d="M41.7529 24.9377C41.332 25.1676 39.8721 25.2259 39.5039 25.1324" stroke="black" stroke-width="0.738335"/>
<path d="M42.7332 24.0671C42.3113 24.2995 40.9141 24.2813 40.5453 24.1866" stroke="black" stroke-width="0.738335"/>
<path d="M43.7635 23.0867C43.3419 23.319 41.8991 23.3047 41.5304 23.2104" stroke="black" stroke-width="0.738335"/>
<path d="M44.6743 22.1868C44.2527 22.4196 42.8123 22.3954 42.4437 22.3008" stroke="black" stroke-width="0.738335"/>
<path d="M45.6711 21.1076C45.2501 21.3382 43.8229 21.376 43.4546 21.2822" stroke="black" stroke-width="0.738335"/>
<path d="M46.4588 20.0102C46.0379 20.2403 44.6255 20.285 44.2578 20.1912" stroke="black" stroke-width="0.738335"/>
<path d="M47.0073 18.931C46.5867 19.16 45.2899 19.2343 44.9221 19.1412" stroke="black" stroke-width="0.738335"/>
<path d="M47.334 17.8969C46.9138 18.1259 45.845 18.1753 45.4772 18.0822" stroke="black" stroke-width="0.738335"/>
<path d="M47.6686 16.3203C47.4941 16.6995 46.1381 17.2633 45.7347 17.2601" stroke="black" stroke-width="0.738335"/>
<path d="M47.806 14.803C47.6334 15.1787 46.4438 15.8553 46.0763 15.8888" stroke="black" stroke-width="0.738335"/>
<path d="M47.7235 13.3618C47.5527 13.7353 46.4876 14.4542 46.1314 14.5905" stroke="black" stroke-width="0.738335"/>
<path d="M47.5752 11.9637C47.4043 12.3369 46.3362 13.0917 45.9804 13.2277" stroke="black" stroke-width="0.738335"/>
<path d="M47.2174 10.6263C47.0465 10.9994 46.0072 11.7257 45.6513 11.8617" stroke="black" stroke-width="0.738335"/>
<path d="M46.6597 9.38278C46.4902 9.75479 45.5713 10.5209 45.2176 10.6565" stroke="black" stroke-width="0.738335"/>
<path d="M46.0924 8.30627C45.9212 8.67975 44.967 9.30647 44.611 9.44265" stroke="black" stroke-width="0.738335"/>
<path d="M45.3825 7.23349C45.2123 7.60607 44.3297 8.27218 43.975 8.408" stroke="black" stroke-width="0.738335"/>
<path d="M44.6624 6.07574C44.4918 6.44852 43.5346 7.15196 43.1794 7.28783" stroke="black" stroke-width="0.738335"/>
<path d="M44.0001 4.86154C43.8297 5.23428 42.8497 5.9623 42.4953 6.09825" stroke="black" stroke-width="0.738335"/>
<path d="M43.4525 3.68353C43.2818 4.05668 42.2072 4.81536 41.8512 4.95134" stroke="black" stroke-width="0.738335"/>
<path d="M42.7308 2.28455C42.5624 2.65549 41.6686 3.537 41.3174 3.67222" stroke="black" stroke-width="0.738335"/>
<path d="M23.9801 26.014L2 43.6275L2.05329 112L68 111.98L67.9673 43.6073L45.9679 26.0076L23.9792 26.0145L23.9801 26.014ZM34.9777 33.9449C36.8768 33.9444 38.4142 35.1916 38.4149 36.7232C38.4155 38.2547 36.8793 39.4945 34.9802 39.495C33.0815 39.4957 31.5336 38.2567 31.5329 36.7253C31.5323 35.1939 33.0779 33.9441 34.9753 33.9441L34.9777 33.9449Z" fill="url(#paint0_radial)" stroke="url(#paint1_linear)" stroke-width="3.1241"/>
<path d="M35.0013 31.5368C31.5825 31.5378 28.8069 33.7781 28.8082 36.5351C28.8097 39.2922 31.5875 41.5238 35.0062 41.5228C38.425 41.5217 41.192 39.2882 41.1905 36.5312C41.1905 33.7758 38.4207 31.537 35.0019 31.537L35.0013 31.5368ZM35.0013 34.1401C36.6365 34.1396 37.9628 35.2153 37.9634 36.5338C37.964 37.8525 36.6389 38.9218 35.0039 38.9225C33.3688 38.923 32.0342 37.8542 32.0334 36.5358C32.0312 35.216 33.3656 34.1398 34.9987 34.1398L35.0013 34.1401Z" fill="#FFCC66" stroke="url(#paint2_linear)" stroke-width="1.9715" stroke-linecap="square"/>
<path d="M35.663 38.1945C37.4994 35.7375 35.6425 31.6389 33.6566 28.7029C31.1273 24.9632 27.0317 22.1798 25.3663 17.9611C24.0106 14.5276 24.7222 10.9151 26.5732 8.04102C27.802 6.13309 29.9282 1.79684 27.867 1.49599C27.4375 1.4334 26.0616 5.88302 24.7985 7.73472C22.6928 10.8201 22.8907 15.5686 23.9272 18.57C25.0464 21.8118 28.7807 24.761 31.0615 27.4057C32.553 29.135 33.6259 31.106 34.2988 33.1422C34.6641 34.2479 34.4574 35.3986 34.137 36.4573C33.9195 37.1763 35.1433 38.888 35.6625 38.1945L35.663 38.1945Z" fill="#164C82" stroke="black" stroke-width="0.817233"/>
<path d="M33.8162 36.2349C34.0233 36.5981 35.4765 37.4333 35.8451 37.5426" stroke="black" stroke-width="0.738334"/>
<path d="M34.2398 35.1078C34.4471 35.4713 35.9387 36.3342 36.3082 36.4436" stroke="black" stroke-width="0.738334"/>
<path d="M34.3723 34.1595C34.5794 34.5229 36.0709 35.3858 36.4407 35.4953" stroke="black" stroke-width="0.738334"/>
<path d="M34.2346 32.8563C34.4425 33.2205 35.9754 34.0476 36.3459 34.1573" stroke="black" stroke-width="0.738334"/>
<path d="M33.7858 31.7045C34.0915 32.0262 35.5931 32.573 35.9803 32.6043" stroke="black" stroke-width="0.738334"/>
<path d="M33.3262 30.6894C33.7369 30.9172 34.9853 31.2729 35.3536 31.1889" stroke="black" stroke-width="0.738334"/>
<path d="M32.852 29.807C33.2623 30.0342 34.5477 30.4324 34.9155 30.3487" stroke="black" stroke-width="0.738334"/>
<path d="M32.2399 28.888C32.6519 29.118 33.8716 29.3793 34.3131 29.2864" stroke="black" stroke-width="0.738334"/>
<path d="M31.4871 27.8748C31.8993 28.1048 33.1448 28.3485 33.5144 28.2637" stroke="black" stroke-width="0.738334"/>
<path d="M30.5241 26.8621C30.9364 27.0921 32.3142 27.3598 32.6838 27.275" stroke="black" stroke-width="0.738334"/>
<path d="M29.5644 25.9164C29.9764 26.1467 31.4439 26.4192 31.8136 26.3343" stroke="black" stroke-width="0.738334"/>
<path d="M28.5795 25.0361C28.9935 25.2712 30.4534 25.3533 30.8252 25.2665" stroke="black" stroke-width="0.738334"/>
<path d="M27.6242 24.1466C28.0392 24.3844 29.4385 24.3897 29.8104 24.3019" stroke="black" stroke-width="0.738334"/>
<path d="M26.6218 23.1475C27.0366 23.3852 28.4814 23.395 28.8532 23.3076" stroke="black" stroke-width="0.738334"/>
<path d="M25.7352 22.2307C26.1503 22.4688 27.5926 22.4688 27.9649 22.381" stroke="black" stroke-width="0.738334"/>
<path d="M24.7702 21.1332C25.1846 21.369 26.6122 21.4302 26.9839 21.3433" stroke="black" stroke-width="0.738334"/>
<path d="M24.0127 20.0214C24.4272 20.257 25.8394 20.3248 26.2111 20.238" stroke="black" stroke-width="0.738334"/>
<path d="M23.4957 18.9326C23.9094 19.1667 25.2058 19.2621 25.577 19.1756" stroke="black" stroke-width="0.738334"/>
<path d="M23.1975 17.8922C23.6114 18.1264 24.6802 18.1931 25.0514 18.1067" stroke="black" stroke-width="0.738334"/>
<path d="M22.9081 16.3118C23.0705 16.6919 24.4128 17.275 24.8179 17.2783" stroke="black" stroke-width="0.738334"/>
<path d="M22.8152 14.7918C22.9764 15.1688 24.1487 15.8618 24.5166 15.9011" stroke="black" stroke-width="0.738334"/>
<path d="M22.9371 13.3527C23.0968 13.7276 24.1429 14.4612 24.496 14.6027" stroke="black" stroke-width="0.738334"/>
<path d="M23.1253 11.9573C23.2847 12.3318 24.3334 13.1014 24.6861 13.2427" stroke="black" stroke-width="0.738334"/>
<path d="M23.5205 10.6272C23.6799 11.0018 24.7005 11.7424 25.0533 11.8837" stroke="black" stroke-width="0.738334"/>
<path d="M24.1138 9.39392C24.2723 9.76747 25.1709 10.5461 25.5217 10.6872" stroke="black" stroke-width="0.738334"/>
<path d="M24.7111 8.32846C24.8708 8.70323 25.8088 9.34335 26.162 9.4848" stroke="black" stroke-width="0.738334"/>
<path d="M25.4511 7.26895C25.6101 7.64288 26.4752 8.32128 26.8271 8.46239" stroke="black" stroke-width="0.738334"/>
<path d="M26.2038 6.12558C26.3628 6.49973 27.3018 7.21646 27.6541 7.35731" stroke="black" stroke-width="0.738334"/>
<path d="M26.9001 4.92386C27.0591 5.29813 28.0202 6.03976 28.3722 6.18078" stroke="black" stroke-width="0.738334"/>
<path d="M27.4809 3.75702C27.6401 4.13149 28.6952 4.90508 29.0479 5.04641" stroke="black" stroke-width="0.738334"/>
<path d="M28.24 2.37152C28.3974 2.74412 29.2674 3.63766 29.6161 3.7782" stroke="black" stroke-width="0.738334"/>
<path d="M27.336 55.576L25.14 64H22.656L21.312 58.456L19.92 64H17.436L15.3 55.576H17.496L18.708 61.708L20.208 55.576H22.464L23.904 61.708L25.128 55.576H27.336ZM29.3971 56.608C29.0371 56.608 28.7411 56.504 28.5091 56.296C28.2851 56.08 28.1731 55.816 28.1731 55.504C28.1731 55.184 28.2851 54.92 28.5091 54.712C28.7411 54.496 29.0371 54.388 29.3971 54.388C29.7491 54.388 30.0371 54.496 30.2611 54.712C30.4931 54.92 30.6091 55.184 30.6091 55.504C30.6091 55.816 30.4931 56.08 30.2611 56.296C30.0371 56.504 29.7491 56.608 29.3971 56.608ZM30.4171 57.304V64H28.3651V57.304H30.4171ZM35.6362 62.26V64H34.5922C33.8482 64 33.2682 63.82 32.8522 63.46C32.4362 63.092 32.2282 62.496 32.2282 61.672V59.008H31.4122V57.304H32.2282V55.672H34.2802V57.304H35.6242V59.008H34.2802V61.696C34.2802 61.896 34.3282 62.04 34.4242 62.128C34.5202 62.216 34.6802 62.26 34.9042 62.26H35.6362ZM40.8952 57.232C41.6632 57.232 42.2792 57.488 42.7432 58C43.2072 58.504 43.4392 59.2 43.4392 60.088V64H41.3992V60.364C41.3992 59.916 41.2832 59.568 41.0512 59.32C40.8192 59.072 40.5072 58.948 40.1152 58.948C39.7232 58.948 39.4112 59.072 39.1792 59.32C38.9472 59.568 38.8312 59.916 38.8312 60.364V64H36.7792V55.12H38.8312V58.204C39.0392 57.908 39.3232 57.672 39.6832 57.496C40.0432 57.32 40.4472 57.232 40.8952 57.232ZM45.8971 56.608C45.5371 56.608 45.2411 56.504 45.0091 56.296C44.7851 56.08 44.6731 55.816 44.6731 55.504C44.6731 55.184 44.7851 54.92 45.0091 54.712C45.2411 54.496 45.5371 54.388 45.8971 54.388C46.2491 54.388 46.5371 54.496 46.7611 54.712C46.9931 54.92 47.1091 55.184 47.1091 55.504C47.1091 55.816 46.9931 56.08 46.7611 56.296C46.5371 56.504 46.2491 56.608 45.8971 56.608ZM46.9171 57.304V64H44.8651V57.304H46.9171ZM52.4842 57.232C53.2682 57.232 53.8922 57.488 54.3562 58C54.8282 58.504 55.0642 59.2 55.0642 60.088V64H53.0242V60.364C53.0242 59.916 52.9082 59.568 52.6762 59.32C52.4442 59.072 52.1322 58.948 51.7402 58.948C51.3482 58.948 51.0362 59.072 50.8042 59.32C50.5722 59.568 50.4562 59.916 50.4562 60.364V64H48.4042V57.304H50.4562V58.192C50.6642 57.896 50.9442 57.664 51.2962 57.496C51.6482 57.32 52.0442 57.232 52.4842 57.232ZM21.708 75.028H17.964V76.684C18.124 76.508 18.348 76.364 18.636 76.252C18.924 76.14 19.236 76.084 19.572 76.084C20.172 76.084 20.668 76.22 21.06 76.492C21.46 76.764 21.752 77.116 21.936 77.548C22.12 77.98 22.212 78.448 22.212 78.952C22.212 79.888 21.948 80.632 21.42 81.184C20.892 81.728 20.148 82 19.188 82C18.548 82 17.992 81.892 17.52 81.676C17.048 81.452 16.684 81.144 16.428 80.752C16.172 80.36 16.032 79.908 16.008 79.396H18.012C18.06 79.644 18.176 79.852 18.36 80.02C18.544 80.18 18.796 80.26 19.116 80.26C19.492 80.26 19.772 80.14 19.956 79.9C20.14 79.66 20.232 79.34 20.232 78.94C20.232 78.548 20.136 78.248 19.944 78.04C19.752 77.832 19.472 77.728 19.104 77.728C18.832 77.728 18.608 77.796 18.432 77.932C18.256 78.06 18.14 78.232 18.084 78.448H16.104V73.228H21.708V75.028ZM23.3447 77.5C23.3447 76.124 23.6087 75.04 24.1367 74.248C24.6727 73.456 25.5327 73.06 26.7167 73.06C27.9007 73.06 28.7567 73.456 29.2847 74.248C29.8207 75.04 30.0887 76.124 30.0887 77.5C30.0887 78.892 29.8207 79.984 29.2847 80.776C28.7567 81.568 27.9007 81.964 26.7167 81.964C25.5327 81.964 24.6727 81.568 24.1367 80.776C23.6087 79.984 23.3447 78.892 23.3447 77.5ZM28.0727 77.5C28.0727 76.692 27.9847 76.072 27.8087 75.64C27.6327 75.2 27.2687 74.98 26.7167 74.98C26.1647 74.98 25.8007 75.2 25.6247 75.64C25.4487 76.072 25.3607 76.692 25.3607 77.5C25.3607 78.044 25.3927 78.496 25.4567 78.856C25.5207 79.208 25.6487 79.496 25.8407 79.72C26.0407 79.936 26.3327 80.044 26.7167 80.044C27.1007 80.044 27.3887 79.936 27.5807 79.72C27.7807 79.496 27.9127 79.208 27.9767 78.856C28.0407 78.496 28.0727 78.044 28.0727 77.5ZM24.288 93.232C25.12 93.232 25.78 93.484 26.268 93.988C26.764 94.492 27.012 95.192 27.012 96.088V100H24.972V96.364C24.972 95.932 24.856 95.6 24.624 95.368C24.4 95.128 24.088 95.008 23.688 95.008C23.288 95.008 22.972 95.128 22.74 95.368C22.516 95.6 22.404 95.932 22.404 96.364V100H20.364V96.364C20.364 95.932 20.248 95.6 20.016 95.368C19.792 95.128 19.48 95.008 19.08 95.008C18.68 95.008 18.364 95.128 18.132 95.368C17.908 95.6 17.796 95.932 17.796 96.364V100H15.744V93.304H17.796V94.144C18.004 93.864 18.276 93.644 18.612 93.484C18.948 93.316 19.328 93.232 19.752 93.232C20.256 93.232 20.704 93.34 21.096 93.556C21.496 93.772 21.808 94.08 22.032 94.48C22.264 94.112 22.58 93.812 22.98 93.58C23.38 93.348 23.816 93.232 24.288 93.232ZM29.4791 92.608C29.1191 92.608 28.8231 92.504 28.5911 92.296C28.3671 92.08 28.2551 91.816 28.2551 91.504C28.2551 91.184 28.3671 90.92 28.5911 90.712C28.8231 90.496 29.1191 90.388 29.4791 90.388C29.8311 90.388 30.1191 90.496 30.3431 90.712C30.5751 90.92 30.6911 91.184 30.6911 91.504C30.6911 91.816 30.5751 92.08 30.3431 92.296C30.1191 92.504 29.8311 92.608 29.4791 92.608ZM30.4991 93.304V100H28.4471V93.304H30.4991ZM34.0382 91.12V100H31.9862V91.12H34.0382ZM41.8372 96.544C41.8372 96.736 41.8253 96.936 41.8013 97.144H37.1573C37.1893 97.56 37.3213 97.88 37.5533 98.104C37.7933 98.32 38.0853 98.428 38.4293 98.428C38.9413 98.428 39.2973 98.212 39.4973 97.78H41.6813C41.5693 98.22 41.3653 98.616 41.0693 98.968C40.7813 99.32 40.4173 99.596 39.9773 99.796C39.5373 99.996 39.0453 100.096 38.5013 100.096C37.8453 100.096 37.2613 99.956 36.7493 99.676C36.2373 99.396 35.8373 98.996 35.5493 98.476C35.2613 97.956 35.1173 97.348 35.1173 96.652C35.1173 95.956 35.2573 95.348 35.5373 94.828C35.8253 94.308 36.2253 93.908 36.7373 93.628C37.2493 93.348 37.8373 93.208 38.5013 93.208C39.1493 93.208 39.7253 93.344 40.2293 93.616C40.7333 93.888 41.1253 94.276 41.4053 94.78C41.6933 95.284 41.8372 95.872 41.8372 96.544ZM39.7373 96.004C39.7373 95.652 39.6173 95.372 39.3773 95.164C39.1373 94.956 38.8373 94.852 38.4773 94.852C38.1333 94.852 37.8413 94.952 37.6013 95.152C37.3693 95.352 37.2253 95.636 37.1693 96.004H39.7373ZM45.6438 100.096C45.0598 100.096 44.5398 99.996 44.0838 99.796C43.6278 99.596 43.2678 99.324 43.0038 98.98C42.7398 98.628 42.5918 98.236 42.5598 97.804H44.5878C44.6118 98.036 44.7198 98.224 44.9118 98.368C45.1038 98.512 45.3398 98.584 45.6198 98.584C45.8758 98.584 46.0718 98.536 46.2078 98.44C46.3518 98.336 46.4238 98.204 46.4238 98.044C46.4238 97.852 46.3238 97.712 46.1238 97.624C45.9238 97.528 45.5998 97.424 45.1518 97.312C44.6718 97.2 44.2718 97.084 43.9518 96.964C43.6318 96.836 43.3558 96.64 43.1238 96.376C42.8918 96.104 42.7758 95.74 42.7758 95.284C42.7758 94.9 42.8798 94.552 43.0878 94.24C43.3038 93.92 43.6158 93.668 44.0238 93.484C44.4398 93.3 44.9318 93.208 45.4998 93.208C46.3398 93.208 46.9998 93.416 47.4798 93.832C47.9678 94.248 48.2478 94.8 48.3198 95.488H46.4238C46.3918 95.256 46.2878 95.072 46.1118 94.936C45.9438 94.8 45.7198 94.732 45.4398 94.732C45.1998 94.732 45.0158 94.78 44.8878 94.876C44.7598 94.964 44.6958 95.088 44.6958 95.248C44.6958 95.44 44.7958 95.584 44.9958 95.68C45.2038 95.776 45.5238 95.872 45.9558 95.968C46.4518 96.096 46.8558 96.224 47.1678 96.352C47.4798 96.472 47.7518 96.672 47.9838 96.952C48.2238 97.224 48.3478 97.592 48.3558 98.056C48.3558 98.448 48.2438 98.8 48.0198 99.112C47.8038 99.416 47.4878 99.656 47.0718 99.832C46.6638 100.008 46.1878 100.096 45.6438 100.096Z" fill="#0D2887"/>
<defs>
<radialGradient id="paint0_radial" cx="0" cy="0" r="1" gradientUnits="userSpaceOnUse" gradientTransform="translate(34.9997 70.9661) scale(51.9705 66.1903)">
<stop stop-color="white"/>
<stop offset="0.9999" stop-color="#215488"/>
<stop offset="1" stop-color="#FCFCFC"/>
</radialGradient>
<linearGradient id="paint1_linear" x1="46.2546" y1="50.883" x2="69.9067" y2="14.4396" gradientUnits="userSpaceOnUse">
<stop stop-color="#3C3C3C"/>
<stop offset="1" stop-color="#CDCDCD"/>
</linearGradient>
<linearGradient id="paint2_linear" x1="82.8894" y1="28.7452" x2="106.293" y2="22.31" gradientUnits="userSpaceOnUse">
<stop/>
<stop offset="1"/>
</linearGradient>
</defs>
</svg>
