<svg width="226" height="128" viewBox="0 0 226 128" fill="none" xmlns="http://www.w3.org/2000/svg">
<path d="M20.6818 12.2C20.5818 23.9 20.4818 27.2 20.0818 31.2C19.8818 32.8 12.1818 37.7 11.3818 36.8C11.1818 36.6 12.1818 33.2 13.5818 29.2C15.9818 22.6 17.8818 20.4 19.1818 23C19.4818 23.6 19.5818 23.5 19.4818 22.8C19.3818 22.1 18.2818 21.4 17.1818 21.2C15.3818 20.9 14.7818 22 12.7818 28.2C11.4818 32.2 10.4818 35.9 10.3818 36.5C10.3818 37 8.38182 38.6 5.88182 40C1.58182 42.4 1.38182 42.8 0.681818 48C-0.318182 55.5 -0.218182 61.8 0.981818 66C3.38182 73.8 8.58182 82.6 14.6818 88.8L20.8818 95.2V111.6V128H112.382H203.882V111.4V94.8L208.382 90.8C213.982 85.8 221.482 74.7 222.882 68.9C224.682 62.2 225.682 54.6 225.082 53.5C224.782 53 224.182 51 223.782 49C223.182 45.8 223.082 45.8 222.982 48.3C222.982 49.9 223.282 51.9 223.782 52.8C224.682 54.5 223.882 61.2 222.082 68.3C220.582 73.9 215.082 82.7 209.382 88.4L204.382 93.5L204.082 88.6C203.782 84.7 204.282 83 206.382 79.8C207.782 77.6 208.882 75.1 208.682 74.2C208.482 73.2 205.082 71.3 199.882 69.2C195.182 67.4 190.982 65.4 190.482 64.9C188.982 63.5 191.482 61.4 193.082 62.7C193.782 63.3 195.282 63.4 196.382 63C197.682 62.5 196.082 61.9 190.882 60.9C184.382 59.7 183.382 59.2 183.082 57.2C182.782 55.1 182.982 55 192.082 54.8L201.382 54.7L193.382 54C184.582 53.3 180.582 51.8 181.082 49.2C181.382 47.8 183.382 47.4 194.382 46.7C202.882 46.2 208.182 46.3 209.782 47C211.082 47.6 212.282 47.9 212.582 47.7C213.782 46.5 201.282 42.2 193.382 41.1C188.482 40.4 184.082 39.6 183.682 39.4C182.282 38.5 182.782 36.1 184.682 35C186.182 34 186.182 34 184.382 34.2C183.082 34.4 182.282 35.4 182.082 37.2C181.782 39.7 182.382 40.3 187.382 42.7L193.082 45.5L186.782 46C180.682 46.5 180.382 46.6 180.582 49C181.282 56.5 182.182 59.2 184.782 60.9C186.182 61.8 190.682 65.6 194.682 69.4L201.882 76.3V101.1V126H112.382H22.8818V101.2V76.3L30.1818 69.5C34.0818 65.7 38.5818 61.8 40.1818 60.8C41.6818 59.8 42.8818 58.5 42.8818 57.8C42.8818 57 42.4818 57.2 41.8818 58.2C41.1818 59.2 38.3818 60.2 33.6818 61C28.4818 61.9 26.9818 62.5 28.3818 63C29.4818 63.4 30.9818 63.3 31.6818 62.7C33.2818 61.4 35.7818 63.5 34.3818 64.9C33.7818 65.4 29.5818 67.4 24.8818 69.3C20.1818 71.2 16.2818 73.4 16.0818 74.3C15.8818 75.1 16.8818 77.5 18.2818 79.5C20.1818 82.3 20.8818 84.6 20.8818 88.2C20.8818 92.7 20.6818 93 18.9818 92C16.1818 90.6 10.1818 83.3 6.78182 77.3C2.18182 69.2 0.581818 62 1.38182 51.7L2.08182 43L10.2818 39C18.0818 35.3 19.0818 35.1 28.4818 35C42.2818 34.8 41.8818 34.8 41.8818 36.9C41.8818 39.2 41.1818 39.5 31.2818 41C24.2818 42 11.1818 46.7 12.2818 47.8C12.4818 48 13.5818 47.7 14.6818 47.1C16.0818 46.4 21.2818 46.2 30.2818 46.7C42.7818 47.3 43.8818 47.5 43.8818 49.2C43.8818 52.8 37.9818 54.2 25.9818 53.4C18.0818 52.9 14.9818 53.1 14.4818 53.9C13.9818 54.7 14.3818 54.9 16.0818 54.6C17.2818 54.3 23.8818 54.4 30.5818 54.8L42.6818 55.5L43.8818 51.9C44.5818 49.9 44.7818 47.7 44.4818 47.1C44.0818 46.5 40.9818 46 37.5818 46L31.3818 45.9L37.1818 42.9C41.7818 40.5 42.8818 39.5 42.8818 37.5C42.8818 33.8 40.1818 33 30.9818 33.7L22.8818 34.3V18.1V2H112.382H201.882V18V33.9L194.182 34.3C186.882 34.6 187.082 34.6 196.682 34.8C206.182 35 207.482 35.3 213.782 38.5C217.582 40.4 221.482 42.7 222.382 43.7C223.782 45 224.082 45.1 223.682 44C223.482 43.2 221.582 41.6 219.582 40.5C215.882 38.5 214.082 35.2 210.882 24.7C209.982 21.7 209.282 21 207.582 21.2C206.482 21.4 205.382 22.1 205.282 22.8C205.182 23.5 205.282 23.6 205.582 23C206.882 20.4 208.782 22.6 211.182 29.2C212.582 33.2 213.582 36.6 213.382 36.8C213.182 37 211.282 36.2 209.082 35.1C205.282 33.1 205.182 33 204.582 26.3C204.182 22.6 203.882 15.1 203.882 9.7V0H112.382H20.8818L20.6818 12.2Z" fill="#155C73"/>
<path d="M90.3349 65C89.4287 66.0781 88.3427 66.9453 87.0771 67.6016C85.8271 68.2578 84.4521 68.5859 82.9521 68.5859C80.9834 68.5859 79.2646 68.1016 77.7959 67.1328C76.3427 66.1641 75.2177 64.8047 74.4209 63.0547C73.624 61.2891 73.2256 59.3438 73.2256 57.2188C73.2256 54.9375 73.6552 52.8828 74.5146 51.0547C75.3896 49.2266 76.624 47.8281 78.2177 46.8594C79.8115 45.8906 81.6709 45.4062 83.7959 45.4062C87.1709 45.4062 89.8271 46.6719 91.7646 49.2031C93.7177 51.7188 94.6943 55.1562 94.6943 59.5156V60.7812C94.6943 67.4219 93.3818 72.2734 90.7568 75.3359C88.1318 78.3828 84.1709 79.9453 78.874 80.0234H78.0302V76.3672H78.9443C82.5224 76.3047 85.2724 75.375 87.1943 73.5781C89.1162 71.7656 90.1631 68.9062 90.3349 65ZM83.6552 65C85.1084 65 86.4443 64.5547 87.6631 63.6641C88.8974 62.7734 89.7959 61.6719 90.3584 60.3594V58.625C90.3584 55.7812 89.7412 53.4688 88.5068 51.6875C87.2724 49.9062 85.7099 49.0156 83.8193 49.0156C81.9131 49.0156 80.3818 49.75 79.2256 51.2188C78.0693 52.6719 77.4912 54.5938 77.4912 56.9844C77.4912 59.3125 78.0459 61.2344 79.1552 62.75C80.2802 64.25 81.7802 65 83.6552 65ZM117.686 45.8516V49.5312H116.89C113.515 49.5938 110.827 50.5938 108.827 52.5312C106.827 54.4688 105.671 57.1953 105.358 60.7109C107.155 58.6484 109.608 57.6172 112.718 57.6172C115.686 57.6172 118.054 58.6641 119.819 60.7578C121.601 62.8516 122.491 65.5547 122.491 68.8672C122.491 72.3828 121.53 75.1953 119.608 77.3047C117.702 79.4141 115.14 80.4688 111.921 80.4688C108.655 80.4688 106.007 79.2188 103.976 76.7188C101.944 74.2031 100.929 70.9688 100.929 67.0156V65.3516C100.929 59.0703 102.265 54.2734 104.936 50.9609C107.624 47.6328 111.616 45.9297 116.913 45.8516H117.686ZM111.991 61.2266C110.507 61.2266 109.14 61.6719 107.89 62.5625C106.64 63.4531 105.772 64.5703 105.288 65.9141V67.5078C105.288 70.3203 105.921 72.5859 107.186 74.3047C108.452 76.0234 110.03 76.8828 111.921 76.8828C113.874 76.8828 115.405 76.1641 116.515 74.7266C117.64 73.2891 118.202 71.4062 118.202 69.0781C118.202 66.7344 117.632 64.8438 116.491 63.4062C115.366 61.9531 113.866 61.2266 111.991 61.2266ZM127.249 52.4375C127.249 50.3906 127.897 48.7031 129.194 47.375C130.507 46.0469 132.186 45.3828 134.233 45.3828C136.311 45.3828 137.991 46.0547 139.272 47.3984C140.569 48.7266 141.218 50.4531 141.218 52.5781V54.2422C141.218 56.3047 140.561 57.9922 139.249 59.3047C137.952 60.6016 136.296 61.25 134.28 61.25C132.249 61.25 130.569 60.6016 129.241 59.3047C127.913 57.9922 127.249 56.25 127.249 54.0781V52.4375ZM130.483 54.2422C130.483 55.4609 130.827 56.4688 131.515 57.2656C132.202 58.0469 133.124 58.4375 134.28 58.4375C135.39 58.4375 136.28 58.0547 136.952 57.2891C137.64 56.5234 137.983 55.4766 137.983 54.1484V52.4375C137.983 51.2188 137.647 50.2109 136.976 49.4141C136.304 48.6172 135.39 48.2188 134.233 48.2188C133.077 48.2188 132.163 48.6172 131.491 49.4141C130.819 50.2109 130.483 51.25 130.483 52.5312V54.2422ZM143.866 71.6328C143.866 69.5859 144.515 67.9062 145.811 66.5938C147.124 65.2656 148.804 64.6016 150.851 64.6016C152.897 64.6016 154.577 65.2578 155.89 66.5703C157.202 67.8828 157.858 69.625 157.858 71.7969V73.4609C157.858 75.5078 157.202 77.1953 155.89 78.5234C154.593 79.8359 152.929 80.4922 150.897 80.4922C148.866 80.4922 147.186 79.8438 145.858 78.5469C144.53 77.2344 143.866 75.4922 143.866 73.3203V71.6328ZM147.101 73.4609C147.101 74.6953 147.444 75.7109 148.132 76.5078C148.819 77.2891 149.741 77.6797 150.897 77.6797C152.022 77.6797 152.921 77.2969 153.593 76.5312C154.265 75.75 154.601 74.6953 154.601 73.3672V71.6328C154.601 70.3984 154.257 69.3906 153.569 68.6094C152.897 67.8281 151.991 67.4375 150.851 67.4375C149.741 67.4375 148.835 67.8281 148.132 68.6094C147.444 69.375 147.101 70.4141 147.101 71.7266V73.4609ZM135.265 77.4219L132.804 75.875L149.468 49.2031L151.929 50.75L135.265 77.4219Z" fill="#FE6E05"/>
</svg>
