<svg width="80" height="84" viewBox="0 0 80 84" fill="none" xmlns="http://www.w3.org/2000/svg">
<path fill-rule="evenodd" clip-rule="evenodd" d="M53.5633 5.54007L56.9436 4.58431C56.9419 4.57131 56.8126 1.43679 56.805 1.43296L53.4448 1.75717L53.5632 5.54003L53.5633 5.54007Z" fill="#858585"/>
<path fill-rule="evenodd" clip-rule="evenodd" d="M19.223 1.30032L19.3311 4.82423L36.9097 33.7541L40.0525 33.8544L21.586 4.01151H21.5817L21.6077 1.40905L19.223 1.30032Z" fill="#858585"/>
<path fill-rule="evenodd" clip-rule="evenodd" d="M56.8584 4.28761L58.8518 4.41576L79.999 33.583L77.2864 33.583L56.8584 4.28761Z" fill="#E19216"/>
<path fill-rule="evenodd" clip-rule="evenodd" d="M77.2853 33.4685L56.9519 4.41616C56.7151 3.66954 55.4274 4.82387 54.5172 4.8318L77.2938 36.5659L77.2853 33.4685Z" fill="#858585"/>
<path fill-rule="evenodd" clip-rule="evenodd" d="M0 31.052L16.3483 5.60022L16.4566 1.39587L19.2222 1.30031L19.3303 4.8243L36.9072 33.718L36.9066 84C36.9066 84 -0.18978 82.0727 0.237909 81.9006L0 31.052Z" fill="#E19216" fill-opacity="0.65"/>
<path fill-rule="evenodd" clip-rule="evenodd" d="M36.9076 33.6664L39.5508 33.7296L40.0168 39.3264L77.2413 39.4403L77.2873 33.5819L79.9999 33.5818V80.9451L36.909 83.9993L36.9076 33.6664Z" fill="#BE9F70"/>
<path fill-rule="evenodd" clip-rule="evenodd" d="M72.5669 66.7513L61.2643 67.2389C61.2643 67.2389 61.2643 67.2606 61.2643 67.2617L61.26 68.1277L61.1951 81.6685L62.0348 81.6548V81.6275L72.7963 81.076L72.5669 66.7513Z" fill="#164C82"/>
<path fill-rule="evenodd" clip-rule="evenodd" d="M21.942 4.58475L54.5832 4.83955L77.2957 36.5663L39.621 36.0525L39.5516 33.7286L21.942 4.58475Z" fill="#463F44"/>
<path fill-rule="evenodd" clip-rule="evenodd" d="M41.285 16.9233L45.0104 12.8334L56.4527 10.8734L50.8553 14.9515L41.285 16.9233V16.9233Z" fill="#302A29"/>
<path fill-rule="evenodd" clip-rule="evenodd" d="M41.4097 16.9451L41.4651 18.1668L51.381 16.0878L56.4222 12.5356L61.2418 16.8116L62.0382 16.8815L62.4021 16.5807L56.3668 10.9057L50.9934 14.7684L41.4097 16.9452L41.4097 16.9451Z" fill="#EBE3D9"/>
<path fill-rule="evenodd" clip-rule="evenodd" d="M50.0258 30.1204L50.7939 30.0278L50.7593 16.1729L42.3652 17.9775L50.0259 30.1206L50.0258 30.1204Z" fill="#D2B996"/>
<path fill-rule="evenodd" clip-rule="evenodd" d="M50.7323 16.205L51.3194 16.1128L56.3237 12.4439L61.0764 16.6778L60.7968 30.5282L50.8161 30.0347L50.7322 16.2049L50.7323 16.205Z" fill="#EBE3D9"/>
<path fill-rule="evenodd" clip-rule="evenodd" d="M52.4015 18.5549L52.2158 29.1132L59.4508 29.3538V18.8455L52.4016 18.5549H52.4015Z" fill="#E19216"/>
<path fill-rule="evenodd" clip-rule="evenodd" d="M52.1971 22.3378L52.2311 22.7677L59.4498 23.1532L59.485 22.6464L52.1971 22.3378Z" fill="#EBE3D9"/>
<path fill-rule="evenodd" clip-rule="evenodd" d="M56.0221 18.6315L55.9634 22.6867L56.3391 22.6654L56.3978 18.7196L56.0221 18.6315V18.6315Z" fill="#EBE3D9"/>
<path fill-rule="evenodd" clip-rule="evenodd" d="M56.8013 1.27227L58.8254 1.71113L58.863 4.43042L56.9026 4.34834L56.8013 1.27228L56.8013 1.27227Z" fill="#E19216"/>
<path fill-rule="evenodd" clip-rule="evenodd" d="M53.4421 0.608668L56.6615 0.127337L58.8963 0.45108L58.8621 1.71538L56.7647 1.43216L53.4461 1.7562L53.442 0.608646L53.4421 0.608668Z" fill="#E19216"/>
<path fill-rule="evenodd" clip-rule="evenodd" d="M16.4236 0.23494L19.2959 -1.44933e-05L21.6427 0.158296L21.6085 1.4079L19.3478 1.35933L16.4575 1.39447C16.4234 0.234925 16.445 0.597166 16.4234 0.234923L16.4236 0.23494Z" fill="#E19216"/>
<path fill-rule="evenodd" clip-rule="evenodd" d="M3.42844 60.993L14.468 61.4872L14.7077 76.0429L3.27611 75.3884L3.42841 60.9929L3.42844 60.993Z" fill="#164C82"/>
<path fill-rule="evenodd" clip-rule="evenodd" d="M48.1834 66.2552L48.4877 83.2117L55.7814 82.6384L55.7222 65.8856L48.1835 66.2553L48.1834 66.2552Z" fill="#0D2887"/>
<path fill-rule="evenodd" clip-rule="evenodd" d="M49.3418 67.2138L49.5735 83.1583L55.1276 82.6933L55.0825 66.9427L49.3418 67.2139L49.3418 67.2138Z" fill="#761111"/>
<path fill-rule="evenodd" clip-rule="evenodd" d="M44.0572 43.3025L43.8541 58.1337L54.736 57.2784L54.6543 43.8448L44.0572 43.3025L44.0572 43.3025Z" fill="#0D2887"/>
<path fill-rule="evenodd" clip-rule="evenodd" d="M43.9481 53.5149L43.9412 54.1634L54.7351 53.845L54.8169 53.1402L43.9481 53.5149Z" fill="#164C82"/>
<path fill-rule="evenodd" clip-rule="evenodd" d="M49.1358 43.3189L49.0014 57.4207L49.996 57.6508L50.1367 43.3084L49.1358 43.3189Z" fill="#164C82"/>
<path fill-rule="evenodd" clip-rule="evenodd" d="M43.1014 43.9564C43.1014 43.9258 43.1071 42.9924 43.1071 42.9924L55.3076 42.7781L55.553 58.3514L42.9436 58.6751L43.1072 57.5463L54.7352 57.2783V43.844L43.1014 43.9564Z" fill="#164C82"/>
<path fill-rule="evenodd" clip-rule="evenodd" d="M43.1066 43.0159L43.0304 58.6728L43.894 58.6643L44.0498 43.9523L43.1066 43.0159Z" fill="#164C82"/>
<path fill-rule="evenodd" clip-rule="evenodd" d="M62.3848 43.4514L62.0904 57.8006L73.0374 56.9132L72.9552 43.726L62.385 43.4515L62.3848 43.4514Z" fill="#0D2887"/>
<path fill-rule="evenodd" clip-rule="evenodd" d="M62.4642 53.2757L62.4573 53.9001L73.0369 53.5482L73.1192 52.8693L62.4643 53.2758L62.4642 53.2757Z" fill="#164C82"/>
<path fill-rule="evenodd" clip-rule="evenodd" d="M67.3916 43.5705L67.3254 57.3935L68.3772 57.3634L68.3985 43.5559L67.3916 43.5706L67.3916 43.5705Z" fill="#164C82"/>
<path fill-rule="evenodd" clip-rule="evenodd" d="M62.1694 43.8848C62.1695 43.8547 61.621 42.9402 61.621 42.9402L73.8895 42.6772L73.8593 57.9642L62.0107 58.3338L62.1752 57.225L73.0364 56.9144V43.7267L62.1694 43.8848Z" fill="#164C82"/>
<path fill-rule="evenodd" clip-rule="evenodd" d="M61.6215 42.9287L61.5448 58.3312L62.4103 58.3197L62.567 43.8466L61.6215 42.9287Z" fill="#164C82"/>
<path fill-rule="evenodd" clip-rule="evenodd" d="M71.7439 76.9517L67.4622 77.2026L67.4414 80.3368L71.7647 80.1107L71.7439 76.9517Z" fill="#0D2887"/>
<path fill-rule="evenodd" clip-rule="evenodd" d="M67.6284 67.8918L67.4663 76.574L71.7398 76.3056L71.6871 67.7503L67.6284 67.8918Z" fill="#0D2887"/>
<path fill-rule="evenodd" clip-rule="evenodd" d="M66.6052 67.9317L61.9994 68.1003L61.8262 76.9149L66.5187 76.6368L66.6052 67.9317V67.9317Z" fill="#0D2887"/>
<path fill-rule="evenodd" clip-rule="evenodd" d="M66.5152 77.2576L61.8141 77.604L61.7535 80.6075L66.4849 80.3705L66.5152 77.2576Z" fill="#0D2887"/>
<path fill-rule="evenodd" clip-rule="evenodd" d="M50.3253 68.1382L50.3771 75.0506L53.8422 74.9629L53.7905 68.0506L50.3253 68.1382L50.3253 68.1382Z" fill="#0D2887"/>
<path fill-rule="evenodd" clip-rule="evenodd" d="M39.6193 36.0532V37.6868L77.8412 37.6979V36.0643L39.6193 36.0532Z" fill="#DFCEB0"/>
<path fill-rule="evenodd" clip-rule="evenodd" d="M39.6193 37.6869L39.7699 38.4184L76.6827 38.4153L76.6397 37.6577L39.6193 37.6869Z" fill="#90816A"/>
<path fill-rule="evenodd" clip-rule="evenodd" d="M39.7699 38.4183L39.6193 39.5428L76.4837 39.4129L76.684 38.4153L39.7699 38.4183Z" fill="#DFCEB0"/>
<path fill-rule="evenodd" clip-rule="evenodd" d="M77.8411 37.6978C77.5844 37.6892 76.6409 37.6575 76.6409 37.6575L76.6839 38.4151L76.4926 39.413L77.2401 39.44L77.8411 37.6978L77.8411 37.6978Z" fill="#E19216" fill-opacity="0.65"/>
<path fill-rule="evenodd" clip-rule="evenodd" d="M50.7495 16.1758C50.7495 16.1758 50.6596 16.6638 50.7618 16.7657L51.9009 16.7565L56.4291 13.5038L61.0665 17.1811L61.3011 16.7974L56.324 12.4435L51.5429 15.9487L50.7497 16.176L50.7495 16.1758Z" fill="#AFA28D"/>
<path fill-rule="evenodd" clip-rule="evenodd" d="M4.1349 62.0513L3.93257 74.517L13.9544 74.7726L13.6203 62.4601L4.13492 62.0513L4.1349 62.0513Z" fill="#0D2887"/>
<path fill-rule="evenodd" clip-rule="evenodd" d="M3.96002 70.3026L3.95368 70.8987L13.9552 71.6122L14.0305 70.9715L3.95992 70.3026L3.96002 70.3026Z" fill="#164C82"/>
<path fill-rule="evenodd" clip-rule="evenodd" d="M8.79794 61.9273L8.63503 74.637L9.59798 74.7133L9.71976 62.0136L8.79794 61.9273V61.9273Z" fill="#164C82"/>
<path fill-rule="evenodd" clip-rule="evenodd" d="M3.96002 70.3026L3.95368 70.8987L13.9552 71.6122L14.0305 70.9715L3.95992 70.3026L3.96002 70.3026Z" fill="#164C82"/>
<path fill-rule="evenodd" clip-rule="evenodd" d="M21.1143 61.9453L32.1539 62.4519L32.3936 77.0079L20.962 76.3404L21.1143 61.9451L21.1143 61.9453Z" fill="#164C82"/>
<path fill-rule="evenodd" clip-rule="evenodd" d="M21.852 62.8751L21.8634 75.2114L31.2717 75.9951L31.3057 63.4238L21.852 62.8751Z" fill="#0D2887"/>
<path fill-rule="evenodd" clip-rule="evenodd" d="M21.6459 71.256L21.6396 71.8521L31.6411 72.577L31.7165 71.9363L21.6458 71.256L21.6459 71.256Z" fill="#164C82"/>
<path fill-rule="evenodd" clip-rule="evenodd" d="M26.4838 62.8857L26.3209 75.5952L27.2839 75.6725L27.4056 62.9731L26.4838 62.8857V62.8857Z" fill="#164C82"/>
<path fill-rule="evenodd" clip-rule="evenodd" d="M4.26304 41.9016L15.3026 42.3958L15.5423 56.9515L4.11068 56.297L4.26299 41.9015L4.26304 41.9016Z" fill="#164C82"/>
<path fill-rule="evenodd" clip-rule="evenodd" d="M4.96951 42.9599L4.76718 55.4257L14.789 55.6813L14.4549 43.3687L4.96951 42.9599V42.9599Z" fill="#0D2887"/>
<path fill-rule="evenodd" clip-rule="evenodd" d="M4.79462 51.212L4.7883 51.8081L14.7898 52.5217L14.8652 51.8809L4.79454 51.212L4.79462 51.212Z" fill="#164C82"/>
<path fill-rule="evenodd" clip-rule="evenodd" d="M9.63253 42.8358L9.46961 55.5454L10.4326 55.6217L10.5544 42.9221L9.63253 42.8358L9.63253 42.8358Z" fill="#164C82"/>
<path fill-rule="evenodd" clip-rule="evenodd" d="M4.79462 51.212L4.7883 51.8081L14.7898 52.5217L14.8652 51.8809L4.79454 51.212L4.79462 51.212Z" fill="#164C82"/>
<path fill-rule="evenodd" clip-rule="evenodd" d="M21.3654 42.7919L32.5277 43.1694L32.7674 58.2421L21.213 57.4455L21.3654 42.7919Z" fill="#164C82"/>
<path fill-rule="evenodd" clip-rule="evenodd" d="M22.0719 43.8509L21.873 56.6023L31.7409 57.0748L31.5573 44.2703L22.0719 43.8509Z" fill="#0D2887"/>
<path fill-rule="evenodd" clip-rule="evenodd" d="M21.897 52.1028L21.8907 52.6989L31.8922 53.4237L31.9675 52.7831L21.8969 52.1028H21.897Z" fill="#164C82"/>
<path fill-rule="evenodd" clip-rule="evenodd" d="M26.7349 43.7321L26.5599 56.8252L27.5228 56.9026L27.6567 43.8194L26.7349 43.7321Z" fill="#164C82"/>
<path fill-rule="evenodd" clip-rule="evenodd" d="M12.8115 17.8698L24.0966 18.2615L24.0908 32.9197L12.6592 32.2386L12.8115 17.8698Z" fill="#164C82"/>
<path fill-rule="evenodd" clip-rule="evenodd" d="M13.5179 18.9286L13.3156 31.371L23.1537 31.9267L23.0033 19.3596L13.5179 18.9286Z" fill="#0D2887"/>
<path fill-rule="evenodd" clip-rule="evenodd" d="M13.343 27.1803L13.3367 27.7655L23.3382 28.4898L23.4136 27.861L13.343 27.1803L13.343 27.1803Z" fill="#164C82"/>
<path fill-rule="evenodd" clip-rule="evenodd" d="M18.1809 18.8045L18.0126 31.6214L18.9756 31.7L19.1028 18.8931L18.1809 18.8045Z" fill="#164C82"/>
<path fill-rule="evenodd" clip-rule="evenodd" d="M13.343 27.1803L13.3367 27.7655L23.3382 28.4898L23.4136 27.861L13.343 27.1803L13.343 27.1803Z" fill="#164C82"/>
</svg>
