<svg width="154" height="172" viewBox="0 0 154 172" fill="none" xmlns="http://www.w3.org/2000/svg">
<path d="M44.9024 73.3655L1.89966 107.44C-0.383554 109.249 -0.64824 112.91 1.32096 115.108L34.4725 152.116L51.589 123.455C52.9714 121.14 55.7725 120.515 57.8455 122.057C59.9188 123.601 60.4791 126.728 59.097 129.042L40.9793 159.379L50.9643 170.526C52.99 172.787 56.372 172.393 57.9351 169.713L86.8334 120.174L44.9024 73.3655Z" fill="#0F59C9" fill-opacity="0.85"/>
<path d="M152.679 1.47519C150.917 -0.49173 148.06 -0.49173 146.298 1.47519L87.1498 67.5037C76.9354 58.5059 62.4562 58.4115 52.1458 67.2049L92.1765 111.892C99.5826 101.071 99.9558 86.1364 93.2758 74.9107L152.679 8.59781C154.441 6.63089 154.441 3.44211 152.679 1.47519Z" fill="#0F59C9" fill-opacity="0.85"/>
</svg>
