<svg width="68" height="93" viewBox="0 0 68 93" fill="none" xmlns="http://www.w3.org/2000/svg">
<path fill-rule="evenodd" clip-rule="evenodd" d="M36.7944 53.2136C33.2948 38.8052 21.3425 21.4969 2.16967 4.16177C-0.762952 1.51022 2.45807 -0.136916 4.84507 1.9373C21.0116 15.9855 36.581 34.3969 40.2028 51.8336" fill="url(#paint0_linear)"/>
<path d="M36.7944 53.2136C33.2948 38.8052 21.3425 21.4969 2.16967 4.16177C-0.762952 1.51022 2.45807 -0.136916 4.84507 1.9373C21.0116 15.9855 36.581 34.3969 40.2028 51.8336" stroke="black" stroke-width="0.705556"/>
<path fill-rule="evenodd" clip-rule="evenodd" d="M30.0857 54.2755L47.7314 50.3999L44.7504 59.3807C44.7504 59.3807 57.7287 75.3968 48.3277 89.3168C39.5822 92.2766 27.5795 93.0488 23.0547 90.3045C23.0547 90.3045 24.8835 87.6426 25.8798 85.7825C24.2771 87.0989 22.6744 88.1213 21.0717 88.846C21.0717 88.846 19.394 87.4009 18.9446 86.5497C28.2799 81.7945 35.1105 69.6634 34.6147 61.1395L30.0857 54.2755Z" fill="url(#paint1_linear)" stroke="black" stroke-width="0.705556" stroke-linejoin="round"/>
<path d="M56.3549 81.6058C56.3549 80.5341 55.3167 79.6654 54.0361 79.6654C52.7555 79.6654 51.7174 80.5341 51.7174 81.6058C51.7174 82.6774 52.7555 83.5462 54.0361 83.5462C55.3167 83.5462 56.3549 82.6774 56.3549 81.6058Z" fill="#555753" stroke="black" stroke-width="0.705556" stroke-linecap="round" stroke-linejoin="round"/>
<path d="M62.4679 84.8692C62.4679 83.3591 61.0051 82.135 59.2006 82.135C57.3961 82.135 55.9333 83.3591 55.9333 84.8692C55.9333 86.3792 57.3961 87.6034 59.2006 87.6034C61.0051 87.6034 62.4679 86.3792 62.4679 84.8692Z" fill="#888A85" stroke="black" stroke-width="0.705556" stroke-linecap="round" stroke-linejoin="round"/>
<path d="M56.671 87.2505C56.671 85.7405 55.2082 84.5164 53.4037 84.5164C51.5992 84.5164 50.1364 85.7405 50.1364 87.2505C50.1364 88.7606 51.5992 89.9847 53.4037 89.9847C55.2082 89.9847 56.671 88.7606 56.671 87.2505Z" fill="#BABDB6" stroke="black" stroke-width="0.705556" stroke-linecap="round" stroke-linejoin="round"/>
<path d="M67 83.017C67 81.8966 65.9147 80.9884 64.5759 80.9884C63.2371 80.9884 62.1517 81.8966 62.1517 83.017C62.1517 84.1373 63.2371 85.0456 64.5759 85.0456C65.9147 85.0456 67 84.1373 67 83.017Z" fill="#EEEEEC" stroke="black" stroke-width="0.705556" stroke-linecap="round" stroke-linejoin="round"/>
<path d="M60.6762 79.4008C60.6762 78.524 59.8268 77.8132 58.779 77.8132C57.7312 77.8132 56.8819 78.524 56.8819 79.4008C56.8819 80.2776 57.7312 80.9884 58.779 80.9884C59.8268 80.9884 60.6762 80.2776 60.6762 79.4008Z" fill="#D3D7CF" stroke="black" stroke-width="0.705556" stroke-linecap="round" stroke-linejoin="round"/>
<path d="M34.4656 61.0646C40.5023 61.6259 44.7503 59.1313 44.7503 59.1313" stroke="black" stroke-width="0.705556" stroke-linecap="round"/>
<defs>
<linearGradient id="paint0_linear" x1="38.1406" y1="44.4614" x2="28.1164" y2="49.7853" gradientUnits="userSpaceOnUse">
<stop stop-color="#164C82"/>
<stop offset="1" stop-color="#FCAF3E"/>
</linearGradient>
<linearGradient id="paint1_linear" x1="41.4199" y1="67.4123" x2="29.2005" y2="67.0562" gradientUnits="userSpaceOnUse">
<stop stop-color="#164C82"/>
<stop offset="1" stop-color="#FCE94F"/>
</linearGradient>
</defs>
</svg>
