<svg width="131" height="115" viewBox="0 0 131 115" fill="none" xmlns="http://www.w3.org/2000/svg">
<rect width="131" height="115" fill="white"/>
<path d="M115.648 8.98438H109.508V0H99.2734V8.98438H31.7266V0H21.4922V8.98438H15.3516C6.88671 8.98438 0 15.03 0 22.4609V101.523C0 108.954 6.88671 115 15.3516 115H115.648C124.113 115 131 108.954 131 101.523V22.4609C131 15.03 124.113 8.98438 115.648 8.98438ZM120.766 101.523C120.766 104 118.47 106.016 115.648 106.016H15.3516C12.5299 106.016 10.2344 104 10.2344 101.523V42.2266H120.766V101.523ZM120.766 33.2422H10.2344V22.4609C10.2344 19.9839 12.5299 17.9688 15.3516 17.9688H21.4922V26.9531H31.7266V17.9688H99.2734V26.9531H109.508V17.9688H115.648C118.47 17.9688 120.766 19.9839 120.766 22.4609V33.2422Z" fill="#1D2F8D" fill-opacity="0.87"/>
<path d="M29.6797 51.6602H19.4453V60.6445H29.6797V51.6602Z" fill="#1D2F8D" fill-opacity="0.87"/>
<path d="M50.1484 51.6602H39.9141V60.6445H50.1484V51.6602Z" fill="#1D2F8D" fill-opacity="0.87"/>
<path d="M70.6172 51.6602H60.3828V60.6445H70.6172V51.6602Z" fill="#1D2F8D" fill-opacity="0.87"/>
<path d="M91.0859 51.6602H80.8516V60.6445H91.0859V51.6602Z" fill="#1D2F8D" fill-opacity="0.87"/>
<path d="M111.555 51.6602H101.32V60.6445H111.555V51.6602Z" fill="#1D2F8D" fill-opacity="0.87"/>
<path d="M29.6797 69.6289H19.4453V78.6133H29.6797V69.6289Z" fill="#1D2F8D" fill-opacity="0.87"/>
<path d="M50.1484 69.6289H39.9141V78.6133H50.1484V69.6289Z" fill="#1D2F8D" fill-opacity="0.87"/>
<path d="M70.6172 69.6289H60.3828V78.6133H70.6172V69.6289Z" fill="#1D2F8D" fill-opacity="0.87"/>
<path d="M91.0859 69.6289H80.8516V78.6133H91.0859V69.6289Z" fill="#1D2F8D" fill-opacity="0.87"/>
<path d="M29.6797 87.5977H19.4453V96.582H29.6797V87.5977Z" fill="#1D2F8D" fill-opacity="0.87"/>
<path d="M50.1484 87.5977H39.9141V96.582H50.1484V87.5977Z" fill="#1D2F8D" fill-opacity="0.87"/>
<path d="M70.6172 87.5977H60.3828V96.582H70.6172V87.5977Z" fill="#1D2F8D" fill-opacity="0.87"/>
<path d="M91.0859 87.5977H80.8516V96.582H91.0859V87.5977Z" fill="#1D2F8D" fill-opacity="0.87"/>
<path d="M111.555 69.6289H101.32V78.6133H111.555V69.6289Z" fill="#1D2F8D" fill-opacity="0.87"/>
</svg>
