<svg width="94" height="108" viewBox="0 0 94 108" fill="none" xmlns="http://www.w3.org/2000/svg">
<path d="M31.69 48.27H29.95V50.05H28.33V48.27H26.59V46.74H28.33V44.95H29.95V46.74H31.69V48.27ZM32.7893 45.76C32.816 45.0467 33.0493 44.4967 33.4893 44.11C33.9293 43.7233 34.526 43.53 35.2793 43.53C35.7793 43.53 36.206 43.6167 36.5593 43.79C36.9193 43.9633 37.1893 44.2 37.3693 44.5C37.556 44.8 37.6493 45.1367 37.6493 45.51C37.6493 45.95 37.5393 46.31 37.3193 46.59C37.0993 46.8633 36.8426 47.05 36.5493 47.15V47.19C36.9293 47.3167 37.2293 47.5267 37.4493 47.82C37.6693 48.1133 37.7793 48.49 37.7793 48.95C37.7793 49.3633 37.6826 49.73 37.4893 50.05C37.3026 50.3633 37.026 50.61 36.6593 50.79C36.2993 50.97 35.8693 51.06 35.3693 51.06C34.5693 51.06 33.9293 50.8633 33.4493 50.47C32.976 50.0767 32.726 49.4833 32.6993 48.69H34.3593C34.366 48.9833 34.4493 49.2167 34.6093 49.39C34.7693 49.5567 35.0026 49.64 35.3093 49.64C35.5693 49.64 35.7693 49.5667 35.9093 49.42C36.056 49.2667 36.1293 49.0667 36.1293 48.82C36.1293 48.5 36.026 48.27 35.8193 48.13C35.6193 47.9833 35.296 47.91 34.8493 47.91H34.5293V46.52H34.8493C35.1893 46.52 35.4626 46.4633 35.6693 46.35C35.8826 46.23 35.9893 46.02 35.9893 45.72C35.9893 45.48 35.9226 45.2933 35.7893 45.16C35.656 45.0267 35.4726 44.96 35.2393 44.96C34.986 44.96 34.796 45.0367 34.6693 45.19C34.5493 45.3433 34.4793 45.5333 34.4593 45.76H32.7893ZM31.88 63.12C31.88 63.28 31.87 63.4467 31.85 63.62H27.98C28.0067 63.9667 28.1167 64.2333 28.31 64.42C28.51 64.6 28.7533 64.69 29.04 64.69C29.4667 64.69 29.7633 64.51 29.93 64.15H31.75C31.6567 64.5167 31.4867 64.8467 31.24 65.14C31 65.4333 30.6967 65.6633 30.33 65.83C29.9633 65.9967 29.5533 66.08 29.1 66.08C28.5533 66.08 28.0667 65.9633 27.64 65.73C27.2133 65.4967 26.88 65.1633 26.64 64.73C26.4 64.2967 26.28 63.79 26.28 63.21C26.28 62.63 26.3967 62.1233 26.63 61.69C26.87 61.2567 27.2033 60.9233 27.63 60.69C28.0567 60.4567 28.5467 60.34 29.1 60.34C29.64 60.34 30.12 60.4533 30.54 60.68C30.96 60.9067 31.2867 61.23 31.52 61.65C31.76 62.07 31.88 62.56 31.88 63.12ZM30.13 62.67C30.13 62.3767 30.03 62.1433 29.83 61.97C29.63 61.7967 29.38 61.71 29.08 61.71C28.7933 61.71 28.55 61.7933 28.35 61.96C28.1567 62.1267 28.0367 62.3633 27.99 62.67H30.13ZM36.0821 66L35.0121 64.45L34.1121 66H32.2621L34.1021 63.15L32.2121 60.42H34.1321L35.2021 61.96L36.1021 60.42H37.9521L36.0821 63.23L38.0021 66H36.0821ZM41.771 64.55V66H40.901C40.281 66 39.7977 65.85 39.451 65.55C39.1043 65.2433 38.931 64.7467 38.931 64.06V61.84H38.251V60.42H38.931V59.06H40.641V60.42H41.761V61.84H40.641V64.08C40.641 64.2467 40.681 64.3667 40.761 64.44C40.841 64.5133 40.9743 64.55 41.161 64.55H41.771ZM47.9835 63.12C47.9835 63.28 47.9735 63.4467 47.9535 63.62H44.0835C44.1102 63.9667 44.2202 64.2333 44.4135 64.42C44.6135 64.6 44.8568 64.69 45.1435 64.69C45.5702 64.69 45.8668 64.51 46.0335 64.15H47.8535C47.7602 64.5167 47.5902 64.8467 47.3435 65.14C47.1035 65.4333 46.8002 65.6633 46.4335 65.83C46.0668 65.9967 45.6568 66.08 45.2035 66.08C44.6568 66.08 44.1702 65.9633 43.7435 65.73C43.3168 65.4967 42.9835 65.1633 42.7435 64.73C42.5035 64.2967 42.3835 63.79 42.3835 63.21C42.3835 62.63 42.5002 62.1233 42.7335 61.69C42.9735 61.2567 43.3068 60.9233 43.7335 60.69C44.1602 60.4567 44.6502 60.34 45.2035 60.34C45.7435 60.34 46.2235 60.4533 46.6435 60.68C47.0635 60.9067 47.3902 61.23 47.6235 61.65C47.8635 62.07 47.9835 62.56 47.9835 63.12ZM46.2335 62.67C46.2335 62.3767 46.1335 62.1433 45.9335 61.97C45.7335 61.7967 45.4835 61.71 45.1835 61.71C44.8968 61.71 44.6535 61.7933 44.4535 61.96C44.2602 62.1267 44.1402 62.3633 44.0935 62.67H46.2335ZM52.2856 60.36C52.939 60.36 53.459 60.5733 53.8456 61C54.239 61.42 54.4356 62 54.4356 62.74V66H52.7356V62.97C52.7356 62.5967 52.639 62.3067 52.4456 62.1C52.2523 61.8933 51.9923 61.79 51.6656 61.79C51.339 61.79 51.079 61.8933 50.8856 62.1C50.6923 62.3067 50.5956 62.5967 50.5956 62.97V66H48.8856V60.42H50.5956V61.16C50.769 60.9133 51.0023 60.72 51.2956 60.58C51.589 60.4333 51.919 60.36 52.2856 60.36ZM55.2839 63.2C55.2839 62.6267 55.3906 62.1233 55.6039 61.69C55.8239 61.2567 56.1206 60.9233 56.4939 60.69C56.8672 60.4567 57.2839 60.34 57.7439 60.34C58.1106 60.34 58.4439 60.4167 58.7439 60.57C59.0506 60.7233 59.2906 60.93 59.4639 61.19V58.6H61.1739V66H59.4639V65.2C59.3039 65.4667 59.0739 65.68 58.7739 65.84C58.4806 66 58.1372 66.08 57.7439 66.08C57.2839 66.08 56.8672 65.9633 56.4939 65.73C56.1206 65.49 55.8239 65.1533 55.6039 64.72C55.3906 64.28 55.2839 63.7733 55.2839 63.2ZM59.4639 63.21C59.4639 62.7833 59.3439 62.4467 59.1039 62.2C58.8706 61.9533 58.5839 61.83 58.2439 61.83C57.9039 61.83 57.6139 61.9533 57.3739 62.2C57.1406 62.44 57.0239 62.7733 57.0239 63.2C57.0239 63.6267 57.1406 63.9667 57.3739 64.22C57.6139 64.4667 57.9039 64.59 58.2439 64.59C58.5839 64.59 58.8706 64.4667 59.1039 64.22C59.3439 63.9733 59.4639 63.6367 59.4639 63.21ZM67.671 63.12C67.671 63.28 67.661 63.4467 67.641 63.62H63.771C63.7977 63.9667 63.9077 64.2333 64.101 64.42C64.301 64.6 64.5443 64.69 64.831 64.69C65.2577 64.69 65.5543 64.51 65.721 64.15H67.541C67.4477 64.5167 67.2777 64.8467 67.031 65.14C66.791 65.4333 66.4877 65.6633 66.121 65.83C65.7543 65.9967 65.3443 66.08 64.891 66.08C64.3443 66.08 63.8577 65.9633 63.431 65.73C63.0043 65.4967 62.671 65.1633 62.431 64.73C62.191 64.2967 62.071 63.79 62.071 63.21C62.071 62.63 62.1877 62.1233 62.421 61.69C62.661 61.2567 62.9943 60.9233 63.421 60.69C63.8477 60.4567 64.3377 60.34 64.891 60.34C65.431 60.34 65.911 60.4533 66.331 60.68C66.751 60.9067 67.0777 61.23 67.311 61.65C67.551 62.07 67.671 62.56 67.671 63.12ZM65.921 62.67C65.921 62.3767 65.821 62.1433 65.621 61.97C65.421 61.7967 65.171 61.71 64.871 61.71C64.5843 61.71 64.341 61.7933 64.141 61.96C63.9477 62.1267 63.8277 62.3633 63.781 62.67H65.921ZM68.2331 63.2C68.2331 62.6267 68.3398 62.1233 68.5531 61.69C68.7731 61.2567 69.0698 60.9233 69.4431 60.69C69.8165 60.4567 70.2331 60.34 70.6931 60.34C71.0598 60.34 71.3931 60.4167 71.6931 60.57C71.9998 60.7233 72.2398 60.93 72.4131 61.19V58.6H74.1231V66H72.4131V65.2C72.2531 65.4667 72.0231 65.68 71.7231 65.84C71.4298 66 71.0865 66.08 70.6931 66.08C70.2331 66.08 69.8165 65.9633 69.4431 65.73C69.0698 65.49 68.7731 65.1533 68.5531 64.72C68.3398 64.28 68.2331 63.7733 68.2331 63.2ZM72.4131 63.21C72.4131 62.7833 72.2931 62.4467 72.0531 62.2C71.8198 61.9533 71.5331 61.83 71.1931 61.83C70.8531 61.83 70.5631 61.9533 70.3231 62.2C70.0898 62.44 69.9731 62.7733 69.9731 63.2C69.9731 63.6267 70.0898 63.9667 70.3231 64.22C70.5631 64.4667 70.8531 64.59 71.1931 64.59C71.5331 64.59 71.8198 64.4667 72.0531 64.22C72.2931 63.9733 72.4131 63.6367 72.4131 63.21ZM28.89 81.08C28.4033 81.08 27.97 80.9967 27.59 80.83C27.21 80.6633 26.91 80.4367 26.69 80.15C26.47 79.8567 26.3467 79.53 26.32 79.17H28.01C28.03 79.3633 28.12 79.52 28.28 79.64C28.44 79.76 28.6367 79.82 28.87 79.82C29.0833 79.82 29.2467 79.78 29.36 79.7C29.48 79.6133 29.54 79.5033 29.54 79.37C29.54 79.21 29.4567 79.0933 29.29 79.02C29.1233 78.94 28.8533 78.8533 28.48 78.76C28.08 78.6667 27.7467 78.57 27.48 78.47C27.2133 78.3633 26.9833 78.2 26.79 77.98C26.5967 77.7533 26.5 77.45 26.5 77.07C26.5 76.75 26.5867 76.46 26.76 76.2C26.94 75.9333 27.2 75.7233 27.54 75.57C27.8867 75.4167 28.2967 75.34 28.77 75.34C29.47 75.34 30.02 75.5133 30.42 75.86C30.8267 76.2067 31.06 76.6667 31.12 77.24H29.54C29.5133 77.0467 29.4267 76.8933 29.28 76.78C29.14 76.6667 28.9533 76.61 28.72 76.61C28.52 76.61 28.3667 76.65 28.26 76.73C28.1533 76.8033 28.1 76.9067 28.1 77.04C28.1 77.2 28.1833 77.32 28.35 77.4C28.5233 77.48 28.79 77.56 29.15 77.64C29.5633 77.7467 29.9 77.8533 30.16 77.96C30.42 78.06 30.6467 78.2267 30.84 78.46C31.04 78.6867 31.1433 78.9933 31.15 79.38C31.15 79.7067 31.0567 80 30.87 80.26C30.69 80.5133 30.4267 80.7133 30.08 80.86C29.74 81.0067 29.3433 81.08 28.89 81.08ZM35.3062 79.55V81H34.4362C33.8162 81 33.3328 80.85 32.9862 80.55C32.6395 80.2433 32.4662 79.7467 32.4662 79.06V76.84H31.7862V75.42H32.4662V74.06H34.1762V75.42H35.2962V76.84H34.1762V79.08C34.1762 79.2467 34.2162 79.3667 34.2962 79.44C34.3762 79.5133 34.5095 79.55 34.6962 79.55H35.3062ZM35.9187 78.2C35.9187 77.6267 36.0253 77.1233 36.2387 76.69C36.4587 76.2567 36.7553 75.9233 37.1287 75.69C37.502 75.4567 37.9187 75.34 38.3787 75.34C38.772 75.34 39.1153 75.42 39.4087 75.58C39.7087 75.74 39.9387 75.95 40.0987 76.21V75.42H41.8087V81H40.0987V80.21C39.932 80.47 39.6987 80.68 39.3987 80.84C39.1053 81 38.762 81.08 38.3687 81.08C37.9153 81.08 37.502 80.9633 37.1287 80.73C36.7553 80.49 36.4587 80.1533 36.2387 79.72C36.0253 79.28 35.9187 78.7733 35.9187 78.2ZM40.0987 78.21C40.0987 77.7833 39.9787 77.4467 39.7387 77.2C39.5053 76.9533 39.2187 76.83 38.8787 76.83C38.5387 76.83 38.2487 76.9533 38.0087 77.2C37.7753 77.44 37.6587 77.7733 37.6587 78.2C37.6587 78.6267 37.7753 78.9667 38.0087 79.22C38.2487 79.4667 38.5387 79.59 38.8787 79.59C39.2187 79.59 39.5053 79.4667 39.7387 79.22C39.9787 78.9733 40.0987 78.6367 40.0987 78.21ZM48.7458 75.42L45.2458 83.65H43.4058L44.6858 80.81L42.4158 75.42H44.3258L45.6158 78.91L46.8958 75.42H48.7458Z" fill="#164C82"/>
<path opacity="0.8" d="M71.8531 6.87659L6.61005 28.3013L22.5889 101.385L87.832 79.9607L71.8531 6.87659Z" stroke="#164C82" stroke-width="10"/>
<path opacity="0.8" d="M71.3683 6.21601L6.0415 27.3752L10.3193 46.6736L75.646 25.5144L71.3683 6.21601Z" fill="#65656C"/>
<path d="M15.5777 17.5369L13.5455 18.2099L15.6629 27.9728L17.6951 27.2998L15.5777 17.5369Z" fill="#65656C"/>
<path d="M18.7374 16.5519L16.7052 17.2247L18.8222 26.9878L20.8544 26.315L18.7374 16.5519Z" fill="#65656C"/>
<path d="M57.9022 4.34083L55.8701 5.01382L57.9875 14.7768L60.0196 14.1038L57.9022 4.34083Z" fill="#65656C"/>
<path d="M61.0619 3.35582L59.0297 4.02869L61.1467 13.7918L63.1789 13.1189L61.0619 3.35582Z" fill="#65656C"/>
<path d="M70.3794 69.9489L73.8989 86.0466L74.279 85.9218L84.8415 65.6494L84.7498 65.2298L70.3792 69.9489L70.3794 69.9489Z" fill="#808080" stroke="#333333" stroke-width="4"/>
</svg>
