<svg width="111" height="127" viewBox="0 0 111 127" fill="none" xmlns="http://www.w3.org/2000/svg">
<path d="M30.2743 77.1359L23.8064 94.793L46.1907 95.1063L52.6586 77.4492L30.2743 77.1359Z" fill="#164C82" stroke="#164C82" stroke-width="0.679403" stroke-linecap="round" stroke-linejoin="round"/>
<path d="M54.7324 76.4741L48.2645 94.1313L70.6489 94.4446L77.1168 76.7874L54.7324 76.4741Z" fill="#FBFBFB" stroke="#164C82" stroke-width="0.679403" stroke-linecap="round" stroke-linejoin="round"/>
<path d="M24.1644 95.168L17.6966 109.936L40.081 110.251L46.5487 95.4834L24.1644 95.168Z" fill="#FBFBFB" stroke="#164C82" stroke-width="0.620332" stroke-linecap="round" stroke-linejoin="round"/>
<path d="M47.5722 95.0093L41.1045 109.777L63.4889 110.093L69.9566 95.3248L47.5722 95.0093Z" fill="#FBFBFB" stroke="#164C82" stroke-width="0.620332" stroke-linecap="round" stroke-linejoin="round"/>
<path d="M71.6655 94.6124L65.1977 109.38L87.5821 109.696L94.0498 94.9279L71.6655 94.6124Z" fill="#FBFBFB" stroke="#164C82" stroke-width="0.620332" stroke-linecap="round" stroke-linejoin="round"/>
<path d="M78.4905 76.7574L72.0811 94.4243L94.264 94.7348L100.673 77.0679L78.4905 76.7574Z" fill="#164C82" stroke="#164C82" stroke-width="0.676082" stroke-linecap="round" stroke-linejoin="round"/>
<path d="M30.0979 75.5409L24.9121 56.9835L47.2742 57.2946L52.46 75.852L30.0979 75.5409Z" fill="#FBFBFB" stroke="#164C82" stroke-width="0.670439" stroke-linecap="round" stroke-linejoin="round"/>
<path d="M24.4121 58.8484L18.2786 75.6652L23.1171 93.8834L29.2506 77.0666L24.4121 58.8484Z" fill="#FBFBFB" stroke="#164C82" stroke-width="0.611312" stroke-linecap="round" stroke-linejoin="round"/>
<path d="M19.4918 39.5096L13.3583 56.3264L18.1968 74.5446L24.3303 57.7278L19.4918 39.5096Z" fill="#FBFBFB" stroke="#164C82" stroke-width="0.611312" stroke-linecap="round" stroke-linejoin="round"/>
<path d="M18.5151 76.1L13.0858 92.4754L17.7186 110.09L23.1479 93.7144L18.5151 76.1Z" fill="#FBFBFB" stroke="#164C82" stroke-width="0.58808" stroke-linecap="round" stroke-linejoin="round"/>
<path d="M13.5392 58.1492L8.10986 74.5246L12.7427 92.1391L18.172 75.7637L13.5392 58.1492Z" fill="#164C82" stroke="#164C82" stroke-width="0.58808" stroke-linecap="round" stroke-linejoin="round"/>
<path d="M8.8932 38.3516L3.46384 54.727L8.09664 72.3415L13.526 55.9661L8.8932 38.3516Z" fill="#FBFBFB" stroke="#164C82" stroke-width="0.58808" stroke-linecap="round" stroke-linejoin="round"/>
<path d="M14.9218 20.1462L8.78825 36.963L13.6268 55.1812L19.7603 38.3644L14.9218 20.1462Z" fill="#FBFBFB" stroke="#164C82" stroke-width="0.611312" stroke-linecap="round" stroke-linejoin="round"/>
<path d="M53.9571 75.1542L48.7713 56.5969L71.1334 56.9079L76.3191 75.4653L53.9571 75.1542Z" fill="#FBFBFB" stroke="#164C82" stroke-width="0.670439" stroke-linecap="round" stroke-linejoin="round"/>
<path d="M78.0819 75.7337L72.8961 57.1763L95.2583 57.4874L100.444 76.0448L78.0819 75.7337Z" fill="#FBFBFB" stroke="#164C82" stroke-width="0.670439" stroke-linecap="round" stroke-linejoin="round"/>
<path d="M19.7971 36.3304L15.0773 20.5713L37.4829 20.8823L42.2027 36.6413L19.7971 36.3304Z" fill="#FBFBFB" stroke="#164C82" stroke-width="0.620287" stroke-linecap="round" stroke-linejoin="round"/>
<path d="M43.7557 35.9455L39.0359 20.1864L61.4414 20.4974L66.1612 36.2564L43.7557 35.9455Z" fill="#FBFBFB" stroke="#164C82" stroke-width="0.620287" stroke-linecap="round" stroke-linejoin="round"/>
<path d="M67.8624 36.4263L63.1426 20.6673L85.5482 20.9782L90.268 36.7373L67.8624 36.4263Z" fill="#FBFBFB" stroke="#164C82" stroke-width="0.620287" stroke-linecap="round" stroke-linejoin="round"/>
<path d="M24.8766 55.4631L20.1606 38.5392L42.5482 38.8503L47.2642 55.7741L24.8766 55.4631Z" fill="#FBFBFB" stroke="#164C82" stroke-width="0.64106" stroke-linecap="round" stroke-linejoin="round"/>
<path d="M48.8159 54.9797L44.0998 38.0559L66.4875 38.367L71.2035 55.2908L48.8159 54.9797Z" fill="#FBFBFB" stroke="#164C82" stroke-width="0.64106" stroke-linecap="round" stroke-linejoin="round"/>
<path d="M72.9401 55.5594L68.2241 38.6356L90.6116 38.9467L95.3276 55.8704L72.9401 55.5594Z" fill="#FBFBFB" stroke="#164C82" stroke-width="0.64106" stroke-linecap="round" stroke-linejoin="round"/>
<path d="M49.9958 59.6538L35.1558 46.8228L54.9643 40.3676L69.8042 53.1986L49.9958 59.6538Z" fill="#164C82" stroke="#164C82" stroke-width="0.641014" stroke-linecap="round" stroke-linejoin="round"/>
<path d="M34.0944 46.5347L19.5487 33.3524L39.8612 27.9164L54.4069 41.0988L34.0944 46.5347Z" fill="#FBFBFB" stroke="#164C82" stroke-width="0.641687" stroke-linecap="round" stroke-linejoin="round"/>
<path d="M19.2481 33.6218L5.45854 20.3148L25.2103 15.5075L38.9998 28.8145L19.2481 33.6218Z" fill="#FBFBFB" stroke="#164C82" stroke-width="0.622862" stroke-linecap="round" stroke-linejoin="round"/>
<path d="M19.8027 33.8657L15.8268 52.1002L31.1393 65.7382L35.1151 47.5037L19.8027 33.8657Z" fill="#FBFBFB" stroke="#164C82" stroke-width="0.640188" stroke-linecap="round" stroke-linejoin="round"/>
<path d="M35.3162 47.2118L31.2233 65.4492L46.8645 79.0367L50.9574 60.7994L35.3162 47.2118Z" fill="#FBFBFB" stroke="#164C82" stroke-width="0.643712" stroke-linecap="round" stroke-linejoin="round"/>
<path d="M4.9758 20.3752L0.999985 38.6096L16.3124 52.2476L20.2883 34.0132L4.9758 20.3752Z" fill="#164C82" stroke="#164C82" stroke-width="0.640188" stroke-linecap="round" stroke-linejoin="round"/>
<path d="M70.5064 53.5942L55.7237 40.967L75.4557 34.8438L90.2384 47.471L70.5064 53.5942Z" fill="#FBFBFB" stroke="#164C82" stroke-width="0.634363" stroke-linecap="round" stroke-linejoin="round"/>
<path d="M54.7625 40.8363L40.2729 27.8752L60.507 22.7373L74.9966 35.6984L54.7625 40.8363Z" fill="#164C82" stroke="#164C82" stroke-width="0.635127" stroke-linecap="round" stroke-linejoin="round"/>
<path d="M39.8592 27.2831L26.1046 14.8756L45.8055 10.6149L59.5601 23.0223L39.8592 27.2831Z" fill="#164C82" stroke="#164C82" stroke-width="0.607741" stroke-linecap="round" stroke-linejoin="round"/>
<path d="M87.7788 46.4597L74.0189 34.6093L92.3852 28.9855L106.145 40.8359L87.7788 46.4597Z" fill="#FBFBFB" stroke="#164C82" stroke-width="0.590644" stroke-linecap="round" stroke-linejoin="round"/>
<path d="M73.1467 34.5308L59.6595 22.4542L78.4938 17.6639L91.9809 29.7404L73.1467 34.5308Z" fill="#FBFBFB" stroke="#164C82" stroke-width="0.591369" stroke-linecap="round" stroke-linejoin="round"/>
<path d="M59.2746 21.9019L46.4715 10.3412L64.8094 6.36827L77.6124 17.929L59.2746 21.9019Z" fill="#164C82" stroke="#164C82" stroke-width="0.565863" stroke-linecap="round" stroke-linejoin="round"/>
<path d="M47.2449 78.3713L50.7805 58.9059L68.9823 53.3147L65.4466 72.7801L47.2449 78.3713Z" fill="#FBFBFB" stroke="#164C82" stroke-width="0.643464" stroke-linecap="round" stroke-linejoin="round"/>
<path d="M66.8845 71.9639L70.4202 52.4985L88.6219 46.9072L85.0863 66.3727L66.8845 71.9639Z" fill="#FBFBFB" stroke="#164C82" stroke-width="0.643464" stroke-linecap="round" stroke-linejoin="round"/>
<path d="M85.5213 65.7791L89.0152 46.3086L107 40.7132L103.506 60.1837L85.5213 65.7791Z" fill="#164C82" stroke="#164C82" stroke-width="0.640079" stroke-linecap="round" stroke-linejoin="round"/>
<path d="M70.324 42.148V40.24H73.648V49H71.512V42.148H70.324Z" fill="#164C82"/>
<path d="M49.468 103.356C49.74 103.14 49.864 103.04 49.84 103.056C50.624 102.408 51.24 101.876 51.688 101.46C52.144 101.044 52.528 100.608 52.84 100.152C53.152 99.696 53.308 99.252 53.308 98.82C53.308 98.492 53.232 98.236 53.08 98.052C52.928 97.868 52.7 97.776 52.396 97.776C52.092 97.776 51.852 97.892 51.676 98.124C51.508 98.348 51.424 98.668 51.424 99.084H49.444C49.46 98.404 49.604 97.836 49.876 97.38C50.156 96.924 50.52 96.588 50.968 96.372C51.424 96.156 51.928 96.048 52.48 96.048C53.432 96.048 54.148 96.292 54.628 96.78C55.116 97.268 55.36 97.904 55.36 98.688C55.36 99.544 55.068 100.34 54.484 101.076C53.9 101.804 53.156 102.516 52.252 103.212H55.492V104.88H49.468V103.356ZM60.7275 98.604C60.6635 98.308 60.5515 98.088 60.3915 97.944C60.2315 97.792 60.0035 97.716 59.7075 97.716C59.2515 97.716 58.9235 97.916 58.7235 98.316C58.5235 98.708 58.4195 99.332 58.4115 100.188C58.5875 99.908 58.8395 99.688 59.1675 99.528C59.5035 99.368 59.8715 99.288 60.2715 99.288C61.0555 99.288 61.6835 99.536 62.1555 100.032C62.6355 100.528 62.8755 101.22 62.8755 102.108C62.8755 102.692 62.7555 103.204 62.5155 103.644C62.2835 104.084 61.9395 104.428 61.4835 104.676C61.0355 104.924 60.5035 105.048 59.8875 105.048C58.6555 105.048 57.7995 104.664 57.3195 103.896C56.8395 103.12 56.5995 102.008 56.5995 100.56C56.5995 99.04 56.8515 97.912 57.3555 97.176C57.8675 96.432 58.6835 96.06 59.8035 96.06C60.4035 96.06 60.9075 96.18 61.3155 96.42C61.7315 96.652 62.0435 96.96 62.2515 97.344C62.4675 97.728 62.5955 98.148 62.6355 98.604H60.7275ZM59.7795 100.908C59.4355 100.908 59.1475 101.012 58.9155 101.22C58.6915 101.42 58.5795 101.708 58.5795 102.084C58.5795 102.468 58.6835 102.768 58.8915 102.984C59.1075 103.2 59.4115 103.308 59.8035 103.308C60.1555 103.308 60.4315 103.204 60.6315 102.996C60.8395 102.78 60.9435 102.488 60.9435 102.12C60.9435 101.744 60.8435 101.448 60.6435 101.232C60.4435 101.016 60.1555 100.908 59.7795 100.908Z" fill="#164C82"/>
<path d="M17.324 21.148V19.24H20.648V28H18.512V21.148H17.324ZM22.0997 26.44V24.784L25.8917 19.36H28.1837V24.664H29.1677V26.44H28.1837V28H26.1317V26.44H22.0997ZM26.2757 21.616L24.2597 24.664H26.2757V21.616Z" fill="#164C82"/>
</svg>
