<svg width="243" height="243" viewBox="0 0 243 243" fill="none" xmlns="http://www.w3.org/2000/svg">
<path d="M91.3611 3.16285C90.0892 5.05429 87.9695 13.0929 86.6976 21.368C83.518 44.5381 74.1911 62.0339 74.1911 45.0109C74.1911 31.0616 58.9289 26.0965 49.6021 36.4995C45.9985 40.5188 42.8189 42.1738 40.2752 41.2281C36.0357 39.8095 27.7687 43.5924 25.013 48.0845C22.2573 52.8131 23.3172 66.2896 26.9208 73.3825C31.1603 81.1847 29.0405 85.6769 24.3771 78.8204C14.2023 64.6346 14.4143 65.5803 18.8657 45.7202C21.1975 35.5537 22.6813 26.5694 22.0454 25.3873C21.4094 24.4415 18.6538 23.4958 16.1101 23.4958C11.6586 23.4958 10.5987 25.8601 5.72331 45.2474L0 66.9989L4.23949 75.0375C6.57121 79.2933 8.47898 83.7854 8.47898 85.204C8.47898 86.3862 11.0227 91.5876 13.9903 96.7891C19.5017 106.01 19.5017 106.01 20.5615 170.792C21.8334 235.81 21.8334 235.81 17.3819 237.465C9.11491 240.302 12.5065 243.612 22.6813 242.903C32.6441 242.193 32.8561 241.957 33.28 233.918C35.3998 201.764 36.6716 185.687 37.3075 187.815C37.5195 188.997 38.5794 201.528 39.2153 215.24L40.6991 240.538L49.1781 241.957C58.717 243.612 62.3205 241.957 56.5972 238.411C53.4176 236.283 52.9937 232.027 52.9937 202.71C52.9937 174.102 53.6296 168.664 56.8092 164.644C59.7768 160.862 60.4128 155.187 60.6247 130.126C60.8367 97.4984 58.9289 89.2233 49.814 84.4947C45.7865 82.3669 45.1506 81.1847 46.8464 78.584C48.1182 76.929 50.6619 75.5104 52.1458 75.5104C55.5374 75.5104 56.1733 65.8168 52.9937 62.2703C51.9338 61.0882 50.8739 55.4139 50.45 49.7395C49.814 40.5188 50.45 38.8638 54.9014 36.263C60.2008 33.1894 66.984 35.3173 70.3756 40.9916C73.5552 46.1931 72.0714 58.9603 68.2558 61.561C63.8044 64.6346 64.4403 75.5104 69.1037 75.5104C73.3432 75.5104 73.5552 87.5683 69.5277 96.7891C66.1361 104.118 65.9241 107.665 67.8319 124.688C69.1037 135.327 71.0115 146.912 72.0714 149.986C73.1312 153.296 73.5552 164.172 72.7073 174.575C71.6474 190.179 72.0714 193.962 75.039 197.272C80.1264 202.946 79.9144 233.446 74.827 237.701C71.4354 240.538 71.8594 240.775 78.6426 241.011C85.8497 241.011 86.4856 240.538 87.7575 232.027C88.3934 227.298 89.2413 216.895 89.4533 209.093C89.6653 197.745 90.0892 199.4 90.9371 217.368L92.209 239.829L100.688 240.538C108.319 241.011 108.743 240.775 105.563 237.938C100.264 233.209 99.84 196.09 105.139 196.09C108.107 196.09 108.531 193.725 107.683 181.904C106.835 169.61 107.259 167.718 110.439 167.718C112.982 167.718 115.526 163.699 118.494 154.714C121.038 147.385 122.945 140.292 123.157 138.637C123.157 136.982 124.005 137.928 125.065 140.529C126.125 143.129 126.973 164.881 126.973 188.76C127.185 226.116 126.761 232.973 123.581 236.756C120.402 240.775 120.614 241.011 131 241.011H142.023L142.235 228.481C142.235 221.861 143.083 210.748 144.143 204.365L145.627 192.543L146.051 207.911C146.262 216.423 146.898 227.298 147.534 232.263C148.806 240.775 149.23 241.011 158.133 241.011C167.248 241.011 170.428 238.174 164.28 235.337C161.737 234.391 161.101 228.244 161.101 200.345C161.101 167.482 161.313 166.299 165.976 164.172C170.428 162.044 170.64 159.916 171.911 132.254C173.183 97.4984 171.275 89.6962 160.041 82.3669C155.165 79.0569 152.834 75.9833 153.47 73.8554C154.106 71.964 154.741 69.8361 154.741 69.3632C154.741 66.2896 158.981 69.1268 160.041 73.1461C160.889 76.4561 163.22 77.8747 167.672 77.8747C175.091 77.8747 175.727 72.9097 169.58 66.0532C164.068 59.906 164.068 46.9024 169.156 41.7009C174.031 36.7359 181.026 36.4995 185.478 41.4645C188.445 45.0109 188.445 45.9567 184.418 53.5224C178.695 64.1618 180.39 77.1654 187.81 80.239C194.169 83.0762 194.169 84.4947 188.233 91.5876C183.57 96.7891 183.358 98.917 183.782 130.599C184.63 188.997 184.63 189.942 187.598 192.307C191.625 195.853 192.897 233.446 189.293 235.101C183.782 237.228 186.75 241.011 193.957 241.011H201.376V217.368C201.376 203.183 202.224 193.725 203.496 193.725C204.767 193.725 205.615 203.183 205.615 217.368V241.011H213.034C217.062 241.011 220.454 240.066 220.454 238.647C220.454 237.465 217.698 236.992 214.094 237.938L207.735 239.356V216.186C207.735 198.927 208.371 193.489 210.491 194.435C212.399 195.144 212.823 200.818 212.187 215.713C211.975 227.062 212.399 236.283 213.246 236.283C214.306 236.283 215.366 227.062 215.578 215.95C216.002 204.601 217.062 194.198 218.334 192.543C220.03 190.415 220.242 177.885 219.182 153.059C218.122 123.033 218.334 117.358 220.666 119.723C222.149 121.378 224.481 122.796 225.753 122.796C229.357 122.796 244.195 99.1534 242.923 95.3705C241.015 89.9326 235.928 91.5876 230.416 99.3898L225.329 106.719L220.666 98.2077C217.91 93.4791 214.094 88.514 211.763 87.3319C207.947 84.9676 207.947 84.4947 211.127 79.2933C213.67 74.8011 214.094 69.3632 213.034 53.7588C211.551 27.988 207.311 6.47287 203.92 5.05429C201.588 4.345 201.376 5.05429 203.072 8.36431C205.403 13.5658 210.703 46.9024 209.219 48.5574C208.795 49.0303 206.887 49.0303 205.191 48.321C203.072 47.3752 201.376 42.1738 200.316 33.6623C198.196 15.2208 194.593 6.23644 196.077 23.4958C196.924 30.5887 197.984 38.8638 198.62 41.7009C200.104 49.0303 194.381 48.7938 190.141 41.4645C184.418 32.0073 170.428 31.5344 164.916 40.9916C161.949 45.7202 163.008 65.3439 166.4 68.4175C170.004 71.7275 170.64 75.5104 167.248 75.5104C166.188 75.5104 163.22 70.5454 160.677 64.6346C156.649 54.4681 156.649 52.3403 158.981 34.8445C160.465 24.678 161.101 15.6936 160.465 14.9843C159.829 14.0386 158.557 17.5851 157.921 22.5501C155.165 42.1738 154.953 42.6466 150.714 40.2823C147.322 38.1545 147.11 36.4995 149.018 24.2051C150.078 16.6394 151.986 9.0736 153.258 7.41859C154.318 5.76358 154.741 3.87214 154.106 3.16285C151.138 -0.147171 148.594 5.76358 146.262 21.1315C144.355 33.4259 142.871 37.6816 140.327 37.6816C138.631 37.6816 135.452 39.3366 133.332 41.4645C129.94 44.7745 129.516 44.7745 128.245 40.5188C126.549 34.1352 115.95 30.1159 109.167 32.953C106.199 34.1352 102.808 37.918 101.324 41.2281C98.9921 46.9024 95.3886 49.2667 95.3886 45.0109C95.3886 43.8288 96.8724 34.8445 98.7802 24.9144C101.324 10.7286 101.536 6.00001 99.6281 3.39928C96.4485 -1.09289 94.5407 -1.09289 91.3611 3.16285ZM123.793 40.5188C128.669 48.0845 128.033 55.8867 122.309 62.2703C116.586 68.6539 118.282 73.8554 127.397 76.2197L133.12 77.8747L125.065 86.6226C118.07 94.6612 117.222 97.262 115.95 111.684C114.042 134.145 110.439 140.292 110.227 120.905C110.227 105.064 106.411 93.4791 99.2041 87.0955C95.1766 83.549 95.3886 83.3126 102.596 79.0569C110.863 74.0918 112.135 69.8361 107.047 63.6889C103.02 58.7239 102.384 43.8288 105.987 38.8638C110.015 33.4259 119.978 34.3716 123.793 40.5188ZM150.926 46.4295C155.589 51.1581 156.013 62.9796 151.35 68.6539C147.322 73.619 149.23 82.6033 153.894 82.6033C155.801 82.6033 160.041 85.6769 163.432 89.4598C170.64 97.7348 171.699 106.246 165.34 106.246C161.525 106.246 161.101 107.901 161.101 123.979V141.947L144.779 141.238L128.245 140.529L127.609 124.451C127.185 115.703 126.337 108.611 125.489 108.611C116.162 108.374 119.554 92.5334 130.576 84.7312C138.419 79.5297 139.479 75.274 134.604 70.7818C130.788 67.2354 130.364 49.2667 133.968 45.2474C137.572 41.2281 146.262 41.7009 150.926 46.4295ZM45.3626 49.976C50.026 57.3053 49.6021 65.1075 44.3027 70.5454C38.5794 76.4561 40.4872 83.7854 48.9661 88.514C52.5697 90.6419 55.5374 94.6612 56.3852 98.6805C57.0212 102.227 58.081 106.956 58.717 109.32C59.3529 112.63 58.717 113.339 55.7493 112.866C52.5697 112.157 51.9338 114.048 51.2979 123.979C50.8739 130.362 49.814 136.746 48.9661 137.691C47.9063 138.874 41.3351 138.874 34.1279 137.928L21.1975 136.273V119.723C21.1975 106.956 20.1376 101.281 16.746 95.1341C12.5065 87.5683 12.5065 86.6226 15.6861 83.0762C18.2298 80.0026 19.7136 80.0026 21.6214 82.1304C23.1052 83.7854 25.8609 84.9676 27.9806 84.9676C32.6441 84.9676 33.068 76.2197 28.6166 69.8361C22.2573 60.3789 27.5567 44.7745 37.0956 44.7745C39.8512 44.7745 43.6668 47.1388 45.3626 49.976ZM97.9323 52.8131C100.9 57.7782 99.84 75.5104 96.4485 76.929C92.209 78.8204 92.209 89.6962 96.4485 89.6962C98.3562 89.6962 101.748 94.1884 103.868 99.6263C107.895 109.793 107.895 109.793 103.868 110.502C100.264 111.211 99.6281 113.339 99.6281 126.343C99.6281 139.583 101.96 165.59 104.927 184.741L105.775 190.888L89.8772 191.834L73.7672 192.543L75.039 186.16C75.6749 182.613 76.7348 164.408 77.5827 145.494C79.0665 111.211 79.0665 110.975 74.6151 110.975C65.9241 110.975 69.9516 93.7155 79.7025 89.6962C83.0941 88.0412 84.7898 85.6769 84.5779 82.1304C84.3659 78.3476 83.9419 77.8747 83.306 80.7119C82.8821 82.8397 80.9743 85.204 79.0665 85.9133C76.3109 87.0955 75.8869 85.204 76.7348 71.7275C77.3707 58.7239 78.4306 55.1774 82.4581 51.3946C87.5455 46.9024 94.9646 47.6117 97.9323 52.8131ZM209.431 64.6346C209.855 72.9097 209.007 77.1654 206.251 80.7119C202.648 85.204 202.648 85.4405 206.675 88.514C217.698 97.0255 221.513 106.01 216.002 110.029C213.67 111.684 214.73 162.989 217.698 181.195L218.758 188.997H203.496H188.233L190.141 167.009C192.473 138.401 191.837 110.266 188.869 109.083C184.842 107.665 186.326 99.1534 191.837 93.0062C198.62 85.4405 198.62 81.1847 191.413 77.4018C184.63 73.8554 182.722 65.5803 186.75 57.3053C189.081 52.3403 190.777 51.631 199.044 52.3403L208.795 53.0496L209.431 64.6346ZM46.8464 141.711C50.6619 141.711 50.8739 144.548 50.8739 190.179C50.8739 235.81 50.6619 238.647 46.8464 238.647C43.4548 238.647 42.8189 235.81 41.547 211.93C40.6991 197.508 39.4273 179.54 38.7914 172.447C36.8836 154.478 34.9758 163.462 33.068 198.454C30.9483 238.647 30.3124 241.011 23.5292 240.775C20.5615 240.775 19.2897 240.066 20.7735 239.356C22.6813 238.647 23.3172 226.116 23.3172 188.524V138.637L33.068 140.292C38.5794 141.001 44.7266 141.711 46.8464 141.711ZM158.981 188.524C158.981 219.969 159.829 233.918 161.525 235.81C163.432 237.938 162.585 238.647 157.497 238.647C151.138 238.647 150.926 238.411 149.866 225.171C149.018 217.605 147.958 200.345 147.11 186.632C145.203 156.369 143.295 163.462 140.963 208.384L139.479 238.647H132.908C128.245 238.647 126.973 237.938 128.669 236.046C130.152 234.391 130.576 219.496 129.728 188.76L128.669 144.075H143.931H158.981V188.524Z" fill="#155C73"/>
</svg>
