<svg width="207" height="189" viewBox="0 0 207 189" fill="none" xmlns="http://www.w3.org/2000/svg">
<path d="M44.2982 2.59602C33.8707 7.22832 21.248 22.9782 13.3816 40.9515C7.34469 54.8484 11.3693 51.3279 19.4186 35.7633C35.1513 5.3754 57.1039 -5.37155 73.0195 9.63712C83.264 19.2723 91.6792 43.7309 91.6792 64.113V70.7836L78.5076 69.4865C71.1901 68.7453 61.8603 67.8189 57.8356 67.0777L50.5181 65.966L54.7257 70.0424C56.9209 72.2659 58.7503 75.0453 58.7503 76.157C58.7503 77.2688 59.2991 77.8247 59.8479 77.2688C60.3968 76.5276 60.0309 74.4894 58.9333 72.2659C57.1039 68.9306 57.2868 68.7453 62.775 69.4865C66.0678 70.0424 73.7513 70.9689 79.7882 71.71L90.7645 73.1924L90.3986 81.3452C89.6669 92.0922 86.374 111.548 84.3617 114.513C83.264 116.551 79.7882 116.18 67.3484 112.845L51.6157 108.583L56.1892 102.469C58.7503 99.1333 60.5797 95.2421 60.0309 93.9451C59.2991 92.2775 58.9333 92.4627 58.9333 94.501C58.7503 95.9833 56.3721 99.6891 53.4451 102.469C46.4935 109.324 39.5418 108.027 35.883 99.3186C34.4195 95.9833 33.3219 94.6863 33.139 96.3539C33.139 100.43 40.0906 109.139 43.3835 109.139C49.9693 109.139 82.5323 119.145 82.5323 121.183C82.5323 126.742 68.2631 151.571 60.5797 159.353C49.7863 170.285 41.0053 173.435 30.9437 170.1C22.1627 167.321 12.8328 156.203 8.80819 144.159C4.60061 131.745 1.6736 106.174 2.95417 95.4274C4.0518 88.0157 3.68592 86.3481 2.03948 88.201C-2.1681 92.0922 0.575972 128.039 6.24706 144.345C13.0158 163.43 21.7968 172.509 35.3342 173.621C51.0669 174.918 59.2991 171.583 71.1901 159.353C88.7522 141.195 103.936 135.636 126.986 138.971C134.67 140.083 141.073 141.565 141.073 142.306C141.073 143.974 127.352 156.574 124.425 157.686C122.413 158.427 122.413 159.353 124.974 162.318C128.084 165.838 128.084 166.024 124.425 170.1C117.291 177.882 122.596 185.109 137.78 187.888L143.817 189L154.244 167.691L164.854 146.197H172.721C183.148 146.197 191.929 143.048 198.332 137.303C203.637 132.115 204.552 129.706 201.076 130.262C199.796 130.262 198.698 129.521 198.698 128.595C198.698 127.483 199.979 126.927 201.625 127.112C206.747 127.854 208.943 111.177 204.918 103.024C201.442 96.1686 188.271 85.0511 181.502 83.3834C177.843 82.2717 163.574 78.7511 149.854 75.0453C116.193 66.3365 101.741 56.1455 98.082 38.728C94.6062 22.237 84.3617 6.67245 73.9342 2.41073C66.2508 -0.924535 52.1645 -0.739243 44.2982 2.59602ZM85.2764 13.5283C97.7162 30.0193 102.655 68.1895 96.4356 98.948C93.1427 114.883 93.6915 120.257 97.1673 105.989C98.265 101.171 99.7285 87.0893 100.277 74.86L101.375 52.8102L105.217 57.4425C107.229 60.0366 111.619 63.9277 114.546 65.966C120.583 69.8571 142.17 78.3805 146.561 78.5658C148.024 78.5658 150.768 81.5305 152.598 85.0511L156.073 91.5363L154.976 85.2364C154.244 80.7893 154.427 79.307 156.256 80.0482C157.354 80.4188 164.854 82.2717 172.538 84.1246C188.636 88.0157 193.576 91.9069 195.954 102.839C197.6 109.88 195.771 124.889 192.478 131.004C189.551 136.748 181.685 142.862 177.294 143.048C174.916 143.233 166.318 142.121 158.086 140.824L143.268 138.415L148.573 129.892C151.5 125.259 153.878 120.442 153.878 119.515C153.695 118.404 152.232 120.442 150.219 124.148C144.548 134.895 142.902 135.636 120.4 135.821C102.838 136.006 98.8138 136.562 92.0451 140.083C87.8375 142.492 83.8129 144.345 83.447 144.345C82.8982 144.345 84.5446 140.268 87.1057 135.08C89.6669 130.077 91.6792 124.889 91.6792 123.592C91.6792 122.295 88.7522 127.298 85.2764 134.709C79.4223 147.309 62.4091 168.433 58.2015 168.433C57.2868 168.433 59.665 164.912 63.6896 160.465C73.9342 149.347 79.6053 138.786 86.374 118.404C91.8621 102.283 92.4109 98.5774 93.1427 73.0071C93.6915 47.2514 93.5086 44.2868 89.301 31.8722C86.7399 24.4605 81.9835 15.0106 78.6906 10.7489C73.9342 4.63423 73.5683 3.52248 76.6783 5.19011C78.6906 6.30186 82.7152 10.0077 85.2764 13.5283ZM156.988 150.459C160.464 153.053 144 185.109 139.06 185.109C134.487 185.109 125.157 180.291 124.242 177.327C123.328 174.732 130.279 167.321 133.023 168.062C134.121 168.247 137.414 164.912 140.158 160.65C144 154.721 144.731 152.312 143.268 149.903C141.987 147.68 141.987 146.012 143.268 144.715C145.097 142.862 149.305 144.53 156.988 150.459Z" fill="#155C73"/>
</svg>
