<svg width="73" height="87" viewBox="0 0 73 87" fill="none" xmlns="http://www.w3.org/2000/svg">
<path d="M1.22522 3.2776V85.0368L67.8627 85.428L67.4094 2.49417L1.22522 3.2776Z" fill="white" stroke="black" stroke-width="1.5" stroke-linecap="round" stroke-linejoin="round"/>
<path d="M1 3.27761L1.45332 85.0368C21.2482 86.732 58.8859 82.1466 71.2635 78.3862C66.8863 59.5596 68.413 29.3603 67.637 2.4917L1 3.27761Z" fill="white" stroke="black" stroke-width="1.5" stroke-linecap="round" stroke-linejoin="round"/>
<path d="M10.8561 3.05366C9.99987 0.199105 5.27831 0.286655 5.21613 3.52791L6.04569 12.8916C6.8873 17.1865 12.1478 15.665 11.2122 12.2606L10.415 7.21768" stroke="black" stroke-width="1.2" stroke-linecap="round" stroke-linejoin="round"/>
<path d="M14.2736 30.4166L14.8121 36.4609L54.6403 35.9762L54.4846 30.0092L14.2736 30.4166Z" fill="#ECECEC"/>
<path d="M21.001 39.239L20.8699 45.0872L49.1725 44.7748L48.7037 38.4154L21.001 39.239Z" fill="#ECECEC"/>
<path d="M17.2407 48.5262L17.3026 53.7883L50.7359 53.4475L50.2345 47.2858L17.2407 48.5262Z" fill="#ECECEC"/>
<path d="M13.04 23.576V32H10.988V28.532H7.796V32H5.744V23.576H7.796V26.876H10.988V23.576H13.04ZM20.8333 28.544C20.8333 28.736 20.8213 28.936 20.7973 29.144H16.1533C16.1853 29.56 16.3173 29.88 16.5493 30.104C16.7893 30.32 17.0813 30.428 17.4253 30.428C17.9373 30.428 18.2933 30.212 18.4933 29.78H20.6773C20.5653 30.22 20.3613 30.616 20.0653 30.968C19.7773 31.32 19.4133 31.596 18.9733 31.796C18.5333 31.996 18.0413 32.096 17.4973 32.096C16.8413 32.096 16.2573 31.956 15.7453 31.676C15.2333 31.396 14.8333 30.996 14.5453 30.476C14.2573 29.956 14.1133 29.348 14.1133 28.652C14.1133 27.956 14.2533 27.348 14.5333 26.828C14.8213 26.308 15.2213 25.908 15.7333 25.628C16.2453 25.348 16.8333 25.208 17.4973 25.208C18.1453 25.208 18.7213 25.344 19.2253 25.616C19.7293 25.888 20.1213 26.276 20.4013 26.78C20.6893 27.284 20.8333 27.872 20.8333 28.544ZM18.7333 28.004C18.7333 27.652 18.6133 27.372 18.3733 27.164C18.1333 26.956 17.8333 26.852 17.4733 26.852C17.1293 26.852 16.8373 26.952 16.5973 27.152C16.3653 27.352 16.2213 27.636 16.1653 28.004H18.7333ZM23.9679 26.42C24.2079 26.052 24.5079 25.764 24.8679 25.556C25.2279 25.34 25.6279 25.232 26.0679 25.232V27.404H25.5039C24.9919 27.404 24.6079 27.516 24.3519 27.74C24.0959 27.956 23.9679 28.34 23.9679 28.892V32H21.9159V25.304H23.9679V26.42ZM33.3607 28.544C33.3607 28.736 33.3487 28.936 33.3247 29.144H28.6807C28.7127 29.56 28.8447 29.88 29.0767 30.104C29.3167 30.32 29.6087 30.428 29.9527 30.428C30.4647 30.428 30.8207 30.212 31.0207 29.78H33.2047C33.0927 30.22 32.8887 30.616 32.5927 30.968C32.3047 31.32 31.9407 31.596 31.5007 31.796C31.0607 31.996 30.5687 32.096 30.0247 32.096C29.3687 32.096 28.7847 31.956 28.2727 31.676C27.7607 31.396 27.3607 30.996 27.0727 30.476C26.7847 29.956 26.6407 29.348 26.6407 28.652C26.6407 27.956 26.7807 27.348 27.0607 26.828C27.3487 26.308 27.7487 25.908 28.2607 25.628C28.7727 25.348 29.3607 25.208 30.0247 25.208C30.6727 25.208 31.2487 25.344 31.7527 25.616C32.2567 25.888 32.6487 26.276 32.9287 26.78C33.2167 27.284 33.3607 27.872 33.3607 28.544ZM31.2607 28.004C31.2607 27.652 31.1407 27.372 30.9007 27.164C30.6607 26.956 30.3607 26.852 30.0007 26.852C29.6567 26.852 29.3647 26.952 29.1247 27.152C28.8927 27.352 28.7487 27.636 28.6927 28.004H31.2607ZM38.0182 24.608C37.6582 24.608 37.3622 24.504 37.1302 24.296C36.9062 24.08 36.7942 23.816 36.7942 23.504C36.7942 23.184 36.9062 22.92 37.1302 22.712C37.3622 22.496 37.6582 22.388 38.0182 22.388C38.3702 22.388 38.6582 22.496 38.8822 22.712C39.1142 22.92 39.2302 23.184 39.2302 23.504C39.2302 23.816 39.1142 24.08 38.8822 24.296C38.6582 24.504 38.3702 24.608 38.0182 24.608ZM39.0382 25.304V32H36.9862V25.304H39.0382ZM43.2493 32.096C42.6653 32.096 42.1453 31.996 41.6893 31.796C41.2333 31.596 40.8733 31.324 40.6093 30.98C40.3453 30.628 40.1973 30.236 40.1653 29.804H42.1933C42.2173 30.036 42.3253 30.224 42.5173 30.368C42.7093 30.512 42.9453 30.584 43.2253 30.584C43.4813 30.584 43.6773 30.536 43.8133 30.44C43.9573 30.336 44.0293 30.204 44.0293 30.044C44.0293 29.852 43.9293 29.712 43.7293 29.624C43.5293 29.528 43.2053 29.424 42.7573 29.312C42.2773 29.2 41.8773 29.084 41.5573 28.964C41.2373 28.836 40.9613 28.64 40.7293 28.376C40.4973 28.104 40.3813 27.74 40.3813 27.284C40.3813 26.9 40.4853 26.552 40.6933 26.24C40.9093 25.92 41.2213 25.668 41.6293 25.484C42.0453 25.3 42.5373 25.208 43.1053 25.208C43.9453 25.208 44.6053 25.416 45.0853 25.832C45.5733 26.248 45.8533 26.8 45.9253 27.488H44.0293C43.9973 27.256 43.8933 27.072 43.7173 26.936C43.5493 26.8 43.3253 26.732 43.0453 26.732C42.8053 26.732 42.6213 26.78 42.4933 26.876C42.3653 26.964 42.3013 27.088 42.3013 27.248C42.3013 27.44 42.4013 27.584 42.6013 27.68C42.8093 27.776 43.1293 27.872 43.5613 27.968C44.0573 28.096 44.4613 28.224 44.7733 28.352C45.0853 28.472 45.3573 28.672 45.5893 28.952C45.8293 29.224 45.9533 29.592 45.9613 30.056C45.9613 30.448 45.8493 30.8 45.6253 31.112C45.4093 31.416 45.0933 31.656 44.6773 31.832C44.2693 32.008 43.7933 32.096 43.2493 32.096ZM12.584 43.304L8.384 53.18H6.176L7.712 49.772L4.988 43.304H7.28L8.828 47.492L10.364 43.304H12.584ZM16.374 50.096C15.718 50.096 15.126 49.956 14.598 49.676C14.078 49.396 13.666 48.996 13.362 48.476C13.066 47.956 12.918 47.348 12.918 46.652C12.918 45.964 13.07 45.36 13.374 44.84C13.678 44.312 14.094 43.908 14.622 43.628C15.15 43.348 15.742 43.208 16.398 43.208C17.054 43.208 17.646 43.348 18.174 43.628C18.702 43.908 19.118 44.312 19.422 44.84C19.726 45.36 19.878 45.964 19.878 46.652C19.878 47.34 19.722 47.948 19.41 48.476C19.106 48.996 18.686 49.396 18.15 49.676C17.622 49.956 17.03 50.096 16.374 50.096ZM16.374 48.32C16.766 48.32 17.098 48.176 17.37 47.888C17.65 47.6 17.79 47.188 17.79 46.652C17.79 46.116 17.654 45.704 17.382 45.416C17.118 45.128 16.79 44.984 16.398 44.984C15.998 44.984 15.666 45.128 15.402 45.416C15.138 45.696 15.006 46.108 15.006 46.652C15.006 47.188 15.134 47.6 15.39 47.888C15.654 48.176 15.982 48.32 16.374 48.32ZM27.5787 43.304V50H25.5267V49.088C25.3187 49.384 25.0347 49.624 24.6747 49.808C24.3227 49.984 23.9307 50.072 23.4987 50.072C22.9867 50.072 22.5347 49.96 22.1427 49.736C21.7507 49.504 21.4467 49.172 21.2307 48.74C21.0147 48.308 20.9067 47.8 20.9067 47.216V43.304H22.9467V46.94C22.9467 47.388 23.0627 47.736 23.2947 47.984C23.5267 48.232 23.8387 48.356 24.2307 48.356C24.6307 48.356 24.9467 48.232 25.1787 47.984C25.4107 47.736 25.5267 47.388 25.5267 46.94V43.304H27.5787ZM31.1046 44.42C31.3446 44.052 31.6446 43.764 32.0046 43.556C32.3646 43.34 32.7646 43.232 33.2046 43.232V45.404H32.6406C32.1286 45.404 31.7446 45.516 31.4886 45.74C31.2326 45.956 31.1046 46.34 31.1046 46.892V50H29.0526V43.304H31.1046V44.42ZM39.7764 50.096C39.1204 50.096 38.5284 49.956 38.0004 49.676C37.4804 49.396 37.0684 48.996 36.7644 48.476C36.4684 47.956 36.3204 47.348 36.3204 46.652C36.3204 45.964 36.4724 45.36 36.7764 44.84C37.0804 44.312 37.4964 43.908 38.0244 43.628C38.5524 43.348 39.1444 43.208 39.8004 43.208C40.4564 43.208 41.0484 43.348 41.5764 43.628C42.1044 43.908 42.5204 44.312 42.8244 44.84C43.1284 45.36 43.2804 45.964 43.2804 46.652C43.2804 47.34 43.1244 47.948 42.8124 48.476C42.5084 48.996 42.0884 49.396 41.5524 49.676C41.0244 49.956 40.4324 50.096 39.7764 50.096ZM39.7764 48.32C40.1684 48.32 40.5004 48.176 40.7724 47.888C41.0524 47.6 41.1924 47.188 41.1924 46.652C41.1924 46.116 41.0564 45.704 40.7844 45.416C40.5204 45.128 40.1924 44.984 39.8004 44.984C39.4004 44.984 39.0684 45.128 38.8044 45.416C38.5404 45.696 38.4084 46.108 38.4084 46.652C38.4084 47.188 38.5364 47.6 38.7924 47.888C39.0564 48.176 39.3844 48.32 39.7764 48.32ZM47.729 45.008H46.625V50H44.573V45.008H43.829V43.304H44.573V43.112C44.573 42.288 44.809 41.664 45.281 41.24C45.753 40.808 46.445 40.592 47.357 40.592C47.509 40.592 47.621 40.596 47.693 40.604V42.344C47.301 42.32 47.025 42.376 46.865 42.512C46.705 42.648 46.625 42.892 46.625 43.244V43.304H47.729V45.008ZM52.0532 45.008H50.9492V50H48.8972V45.008H48.1532V43.304H48.8972V43.112C48.8972 42.288 49.1332 41.664 49.6052 41.24C50.0772 40.808 50.7692 40.592 51.6812 40.592C51.8332 40.592 51.9452 40.596 52.0172 40.604V42.344C51.6252 42.32 51.3492 42.376 51.1892 42.512C51.0292 42.648 50.9492 42.892 50.9492 43.244V43.304H52.0532V45.008ZM59.3294 46.544C59.3294 46.736 59.3174 46.936 59.2934 47.144H54.6494C54.6814 47.56 54.8134 47.88 55.0454 48.104C55.2854 48.32 55.5774 48.428 55.9214 48.428C56.4334 48.428 56.7894 48.212 56.9894 47.78H59.1734C59.0614 48.22 58.8574 48.616 58.5614 48.968C58.2734 49.32 57.9094 49.596 57.4694 49.796C57.0294 49.996 56.5374 50.096 55.9934 50.096C55.3374 50.096 54.7534 49.956 54.2414 49.676C53.7294 49.396 53.3294 48.996 53.0414 48.476C52.7534 47.956 52.6094 47.348 52.6094 46.652C52.6094 45.956 52.7494 45.348 53.0294 44.828C53.3174 44.308 53.7174 43.908 54.2294 43.628C54.7414 43.348 55.3294 43.208 55.9934 43.208C56.6414 43.208 57.2174 43.344 57.7214 43.616C58.2254 43.888 58.6174 44.276 58.8974 44.78C59.1854 45.284 59.3294 45.872 59.3294 46.544ZM57.2294 46.004C57.2294 45.652 57.1094 45.372 56.8694 45.164C56.6294 44.956 56.3294 44.852 55.9694 44.852C55.6254 44.852 55.3334 44.952 55.0934 45.152C54.8614 45.352 54.7174 45.636 54.6614 46.004H57.2294ZM62.464 44.42C62.704 44.052 63.004 43.764 63.364 43.556C63.724 43.34 64.124 43.232 64.564 43.232V45.404H64C63.488 45.404 63.104 45.516 62.848 45.74C62.592 45.956 62.464 46.34 62.464 46.892V50H60.412V43.304H62.464V44.42Z" fill="#164C82"/>
</svg>
