<svg width="94" height="107" viewBox="0 0 94 107" fill="none" xmlns="http://www.w3.org/2000/svg">
<path d="M92.1059 75.4473C89.2173 70.4527 82.8257 58.4648 81.8612 55.9106C81.0908 53.8707 78.0755 45.1608 78.0755 43.1C78.0755 43.0331 78.0698 42.9606 78.066 42.8899C77.882 42.945 77.6993 42.9923 77.5169 43.0331C77.0715 43.1307 76.6265 43.1995 76.1801 43.2458C75.7337 43.2916 75.2836 43.3099 74.8358 43.2901C74.3929 43.2664 73.9294 43.2134 73.5464 43.0151C73.9657 43.1351 74.4017 43.0986 74.8217 43.0422C75.2431 42.9799 75.6571 42.8824 76.0611 42.7602C76.4644 42.6376 76.8594 42.495 77.2339 42.3314C77.4208 42.2498 77.6036 42.1623 77.7705 42.0683C77.8299 42.0365 77.8855 42.0029 77.9385 41.9688C77.8344 41.4773 77.6762 40.9496 77.4865 40.4216C77.4519 40.4239 77.4175 40.4266 77.3835 40.4289C77.1858 40.4468 76.9859 40.4674 76.7842 40.4912C76.3812 40.5381 75.976 40.5902 75.5702 40.6453L74.3522 40.8127C73.9452 40.8653 73.54 40.9337 73.1288 40.965C73.5183 40.8531 73.8959 40.7057 74.2786 40.573L75.4255 40.1652C75.8089 40.03 76.1936 39.8968 76.5834 39.7675C76.7724 39.7042 76.9647 39.6434 77.1599 39.5839C76.9803 39.157 76.788 38.7437 76.5926 38.3629L76.5923 38.3624H76.5926L76.578 38.3336C76.5435 38.3137 76.495 38.2922 76.4271 38.2794C76.2607 38.24 76.043 38.2329 75.8264 38.2424C75.3873 38.2621 74.9268 38.3452 74.4773 38.46C74.0265 38.5746 73.5829 38.7267 73.154 38.9103C72.7276 39.0977 72.3135 39.3164 71.9449 39.598C72.2464 39.2581 72.6161 38.9639 73.0086 38.6983C73.4043 38.4358 73.8259 38.2003 74.2713 37.9982C74.7182 37.7959 75.1839 37.6205 75.6984 37.5054C75.8207 37.4796 75.9454 37.4562 76.0757 37.4392C75.9781 37.2819 75.8827 37.134 75.7917 37.0068C75.2737 36.2802 74.2805 33.6842 73.4896 30.8129C73.0705 30.9224 72.4568 31.0398 71.7486 31.0398C71.0861 31.0398 70.3413 30.9369 69.5989 30.6278C67.3937 29.7092 66.964 25.6946 67.5702 23.8704C68.0609 22.3924 71.1844 21.8647 72.5391 21.7036C72.3856 21.2458 71.923 20.9987 71.5933 20.8773C69.7649 20.2054 65.9341 21.0109 63.5191 24.8765C60.5356 29.6507 62.6657 38.4758 64.3946 42.9377C65.9683 46.9991 63.6063 58.0249 62.0432 65.3208L62.0237 65.4131C59.8837 75.4025 61.0013 83.9784 64.7319 89.7851C64.8669 90.0219 65.0097 90.2552 65.1575 90.4859C65.2433 90.6194 65.3307 90.7515 65.4203 90.8829C65.9108 91.6005 66.463 92.2838 67.0854 92.9153C67.5523 93.3883 68.0604 93.8285 68.6041 94.2329C68.8763 94.4361 69.1582 94.6256 69.4498 94.8087L70.3529 95.3456C71.5751 96.0346 72.8674 96.6397 74.2414 97.0611C74.9254 97.2828 75.6326 97.4422 76.3508 97.5535C77.0686 97.6569 77.8061 97.7175 78.5362 97.6279C78.5141 97.6325 78.4919 97.6359 78.4695 97.6401C77.7707 97.7778 77.043 97.7808 76.3262 97.7387C75.5857 97.6876 74.8452 97.5858 74.1231 97.4189C72.6699 97.1059 71.2746 96.597 69.939 95.9934L68.9489 95.5185C68.6192 95.3509 68.2921 95.1715 67.9775 94.9785C67.3463 94.5934 66.7467 94.1641 66.1877 93.6958C65.4986 93.1175 64.8672 92.4855 64.2912 91.8154C63.474 94.2863 60.9101 96.0952 57.8797 96.0952H46.0282C49.245 100.454 59.0873 107.542 69.24 105.714C75.3494 104.615 77.285 102.298 79.3347 99.8454C80.5075 98.4409 81.7187 96.9919 83.7384 95.8138L84.1443 95.5865C86.7179 94.2062 89.5129 90.5277 91.2649 86.2148C93.0641 81.7868 93.3866 77.6608 92.1059 75.4473ZM11.2766 69.5429C10.4246 69.6876 8.4699 70.0615 7.47815 70.5921C6.72609 70.9949 5.82744 71.9549 5.03484 72.8016C4.46025 73.4153 3.91771 73.9947 3.44399 74.3552C3.25898 74.4959 3.12228 75.102 3.41688 75.956C3.80812 77.0904 4.85666 78.3638 6.62711 78.5361C8.23729 78.6923 9.44374 78.4593 10.2132 77.8437C10.9186 77.2786 11.2766 76.3678 11.2766 75.1364C11.2766 74.4643 11.2026 73.8149 11.0572 73.2065L11.2766 73.1646V73.1634L11.0567 73.2044C11.0153 72.6407 10.9163 72.067 10.7563 71.4996C10.5979 70.9322 10.3914 70.3671 10.1154 69.8226C10.5496 70.28 10.9311 70.7833 11.2726 71.3131L11.2766 71.3194V69.5429ZM9.60353 67.9391C10.9361 67.7982 12.5797 67.2697 13.1958 66.2094C14.4534 64.0449 14.0737 61.5227 12.1265 59.1071C11.7706 58.6659 11.4682 58.1607 11.2274 57.6055L11.2316 57.604C11.0862 57.293 10.9457 56.9796 10.814 56.6637C10.6837 56.3521 10.5616 56.0379 10.4513 55.7201C10.3386 55.3874 10.2359 55.0517 10.1595 54.7115C10.0893 54.372 10.0188 54.0225 10.0697 53.6808C10.1126 54.0191 10.27 54.33 10.4239 54.6343C10.5849 54.9376 10.7685 55.2307 10.9604 55.5182C11.0631 55.6696 11.1687 55.8189 11.2766 55.967V52.7584C11.2026 52.816 11.1265 52.8719 11.0461 52.9237C9.9712 53.6183 8.87103 54.0198 7.8008 54.2C7.67283 54.2217 7.54509 54.2393 7.41806 54.2547C6.95211 54.5266 5.08009 55.7666 3.89956 58.7344C3.58987 59.5132 3.50715 60.33 3.57432 61.1399C4.3153 60.2577 5.54768 59.4202 6.60401 59.1912C7.5029 58.9965 7.99241 59.2911 8.24506 59.5729C9.24907 60.6932 9.98463 62.1227 9.47744 62.5753L9.44516 62.6045C7.94858 63.9338 6.33816 65.5961 5.90309 66.6102C6.17955 66.9799 6.42301 67.2649 6.59152 67.4382C6.95023 67.8073 8.10012 68.0971 9.60353 67.9391ZM3.9097 62.8116C4.30328 64.0802 4.95754 65.2449 5.54816 66.112C6.29102 64.7894 8.15668 63.0476 9.05204 62.2522L9.08386 62.224C9.16163 62.0756 8.90827 61.1088 7.80976 59.8833C7.5901 59.6377 7.22857 59.5677 6.73529 59.6743C6.52529 59.7199 6.30352 59.7984 6.07891 59.8976C6.26934 60.186 6.28136 60.5643 6.19392 60.8936C6.09635 61.2585 5.89367 61.5914 5.63748 61.8779C5.38082 62.1647 5.06194 62.4058 4.70064 62.5809C4.45718 62.6966 4.18497 62.7851 3.9097 62.8116ZM3.8602 62.643C4.07609 62.5279 4.27029 62.3984 4.45483 62.2577C4.72916 62.047 4.98016 61.8152 5.20406 61.5658C5.42749 61.3168 5.62734 61.0526 5.78054 60.7681C5.91818 60.5107 6.01433 60.2371 6.0214 59.9227C5.08316 60.3529 4.10625 61.1784 3.68203 61.9075C3.73034 62.1553 3.78997 62.4007 3.8602 62.643ZM10.3928 52.1186C11.7174 51.2624 12.1018 48.8433 12.0197 46.8649C12.0169 46.7562 12.0202 46.646 11.9995 46.5093C11.9884 46.3812 11.9658 46.2458 11.9439 46.1104C11.9005 45.8405 11.847 45.5663 11.79 45.2918C11.6768 44.7427 11.5503 44.1917 11.4218 43.6405L11.036 41.9852C10.9731 41.7084 10.9099 41.4319 10.8541 41.1536C10.8029 40.8762 10.7299 40.5957 10.7428 40.3124C10.7761 40.5915 10.8929 40.8556 10.9891 41.1227C11.089 41.3888 11.1967 41.6533 11.304 41.9177L11.9575 43.5042C11.986 43.5736 12.0141 43.6437 12.0428 43.7133L11.2997 39.3494L11.3174 39.846C8.47862 39.9273 6.16847 41.1742 5.22362 42.2985C5.09518 42.4514 4.95612 42.6817 4.81024 42.9629C5.02376 43.0474 5.20665 43.1795 5.35348 43.3581C6.04521 44.1968 5.76734 45.8302 5.4117 46.7236C4.77583 48.3215 2.79916 49.2233 1.843 49.5764C1.62806 49.9072 1.4077 50.1844 1.18003 50.3871C1.00067 50.5476 1.1871 50.9949 1.62311 51.4513C3.13242 53.0307 6.96343 54.3348 10.3928 52.1186ZM2.26252 48.8523C3.19487 48.4258 4.44328 47.6723 4.88707 46.5573C5.13194 45.9425 5.26581 45.1739 5.20925 44.5453L5.20288 44.5553C5.07538 44.7282 4.90097 44.8742 4.70489 44.9894C4.50856 45.1059 4.29056 45.1919 4.06407 45.2561C3.97474 45.2824 3.8833 45.3017 3.79138 45.3183C3.75792 45.4031 3.72421 45.4876 3.69075 45.5722C3.22999 46.7301 2.7598 47.9091 2.26252 48.8523ZM3.96225 44.892L3.97969 44.891C4.18144 44.8738 4.38294 44.8369 4.57408 44.7701C4.76475 44.7038 4.94599 44.6075 5.09518 44.4767C5.12841 44.4472 5.15999 44.4153 5.19039 44.3825C5.14585 44.0878 5.05417 43.8327 4.90474 43.6523C4.81754 43.5461 4.71172 43.4689 4.58775 43.4188C4.3853 43.8561 4.17413 44.3657 3.96225 44.892ZM11.2766 30.0562V19.7268C10.5027 19.3406 7.97214 19.128 5.99383 19.9352C4.72798 20.4515 4.00515 21.257 3.84465 22.3293C3.3886 25.3819 6.29621 27.6191 11.2766 30.0562ZM26.5307 3.37584C26.5307 3.86438 26.9756 4.26102 27.5231 4.26102C28.0699 4.26102 28.5151 3.86438 28.5151 3.37584C28.5151 2.88772 28.0699 2.49024 27.5231 2.49024C26.9756 2.49024 26.5307 2.88772 26.5307 3.37584ZM30.171 2.49024C29.624 2.49024 29.1788 2.88772 29.1788 3.37584C29.1788 3.86438 29.624 4.26102 30.171 4.26102C30.718 4.26102 31.1632 3.86438 31.1632 3.37584C31.1632 2.88772 30.718 2.49024 30.171 2.49024ZM42.8191 2.7546H33.0216C32.5875 2.7546 32.2342 3.06985 32.2342 3.45723V3.66733C32.2342 4.05471 32.5875 4.36996 33.0216 4.36996H42.8191C43.2535 4.36996 43.6065 4.05471 43.6065 3.66733V3.45723C43.6065 3.06985 43.2535 2.7546 42.8191 2.7546ZM50.5695 2.11779C49.792 2.11779 49.1594 2.68204 49.1594 3.37584C49.1594 4.06964 49.792 4.63411 50.5695 4.63411C51.3473 4.63411 51.9794 4.06964 51.9794 3.37584C51.9794 2.68204 51.3473 2.11779 50.5695 2.11779ZM32.0421 91.5134C32.0421 92.5097 32.9502 93.32 34.0666 93.32H42.0694C43.1858 93.32 44.0942 92.5097 44.0942 91.5134V90.9019C44.0942 89.9056 43.1858 89.0953 42.0694 89.0953H34.0666C32.9502 89.0953 32.0421 89.9056 32.0421 90.9019V91.5134ZM62.0743 39.3013C60.9079 34.8493 60.2325 29.1548 62.0743 25.2641V10.6034H14.0617V60.0566C15.2957 62.3109 15.3565 64.651 14.1847 66.667C14.1472 66.7322 14.1051 66.7955 14.0617 66.8586V85.9542H61.3786C59.4055 80.3325 59.2285 73.1665 60.9294 65.2266L60.9492 65.1341C61.2914 63.5372 61.688 61.6848 62.0743 59.7382V39.3013ZM70.2772 30.3321C71.5099 30.6985 72.7142 30.4947 73.3581 30.326C73.1988 29.7237 73.0505 29.1138 72.9181 28.5098C72.7484 28.5533 72.5914 28.6032 72.4408 28.6625C72.1434 28.7763 71.8811 28.9144 71.6355 29.0804C71.3899 29.2467 71.162 29.4429 70.9322 29.6646C70.7173 29.8646 70.524 30.0955 70.2772 30.3321ZM72.5223 22.4401C72.5492 22.356 72.5643 22.2778 72.5754 22.2019C71.0679 22.3897 68.4627 22.9316 68.1038 24.0118C67.5605 25.649 67.9171 29.379 69.8346 30.1775C69.9562 30.228 70.0776 30.2722 70.1992 30.3107C70.1742 29.9859 70.2285 29.6591 70.3765 29.3556C70.5367 29.0255 70.7917 28.7161 71.1304 28.4867C71.4667 28.2557 71.8844 28.1123 72.3039 28.089C72.4823 28.0782 72.663 28.0913 72.836 28.1268C72.3571 25.8269 72.1387 23.6635 72.5223 22.4401ZM92.3123 86.5538C90.4502 91.1372 87.5402 94.9248 84.7182 96.4384C82.6385 97.5537 81.4674 98.9554 80.2275 100.439C78.1431 102.934 75.9878 105.514 69.4597 106.689C68.2772 106.902 67.0974 107 65.932 107C56.2353 107 47.4566 100.209 44.7757 96.1835L44.9424 96.0952H17.9613C14.2752 96.0952 11.2766 93.4192 11.2766 90.13V78.2932C11.1765 78.3956 11.0707 78.4927 10.9573 78.5836C10.1319 79.2444 8.98723 79.5771 7.54603 79.5771C7.21537 79.5771 6.86845 79.5594 6.50644 79.5243C4.19888 79.2999 2.84748 77.6852 2.35184 76.2485C1.95259 75.0908 2.09424 74.0752 2.72139 73.5985C3.12346 73.2927 3.63654 72.7446 4.18002 72.1646C5.07043 71.2128 5.99171 70.2289 6.90498 69.7398C7.49253 69.4254 8.32708 69.1665 9.1251 68.9673C9.00938 68.9717 8.89413 68.9768 8.77676 68.9768C7.60943 68.9768 6.38718 68.7459 5.74943 68.0893C4.18639 66.4798 1.4209 61.9944 2.8496 58.4021C3.66364 56.3559 4.77889 55.0524 5.64879 54.2776C3.57149 54.086 1.78408 53.1516 0.775127 52.0963C-0.272008 51.0004 -0.109152 50.1318 0.392144 49.6845C1.13643 49.0202 1.93562 47.0117 2.64078 45.2397C3.25898 43.6864 3.79233 42.3446 4.33227 41.7021C5.4685 40.3509 8.05558 38.9463 11.2766 38.8529V31.1866C5.55641 28.4459 2.18545 25.9119 2.74048 22.1979C2.95188 20.7846 3.91677 19.6895 5.53072 19.0309C7.38105 18.2763 9.84746 18.2353 11.2766 18.6536V5.96514C11.2766 2.67594 14.2752 0 17.9613 0H57.8797C61.5657 0 64.5648 2.67594 64.5648 5.96514V21.977C67.1563 19.6702 70.2497 19.3085 72.0177 19.9583C73.3673 20.4542 73.9718 21.5081 73.5954 22.7083C72.6765 25.6378 75.8195 35.1933 76.7321 36.4733C77.0012 36.8512 77.2987 37.3536 77.5909 37.9221L77.5916 37.9231H77.5914C78.4118 39.5191 79.1893 41.6474 79.1893 43.1C79.1893 44.8054 81.8351 52.7295 82.9169 55.5931C83.8377 58.0312 90.2378 70.0498 93.096 74.9913C94.5355 77.4801 94.2426 81.8025 92.3123 86.5538ZM34.0666 93.0716H42.0694C43.0322 93.0716 43.8156 92.3725 43.8156 91.5134V90.9019C43.8156 90.0428 43.0322 89.3437 42.0694 89.3437H34.0666C33.1038 89.3437 32.3204 90.0428 32.3204 90.9019V91.5134C32.3204 92.3725 33.1038 93.0716 34.0666 93.0716ZM33.0216 3.00318C32.7411 3.00318 32.513 3.20718 32.513 3.45723V3.66733C32.513 3.91759 32.7411 4.12138 33.0216 4.12138H42.8191C43.0998 4.12138 43.3282 3.91759 43.3282 3.66733V3.45723C43.3282 3.20718 43.0998 3.00318 42.8191 3.00318H33.0216ZM49.438 3.37584C49.438 3.93252 49.9454 4.38552 50.5695 4.38552C51.1934 4.38552 51.7013 3.93252 51.7013 3.37584C51.7013 2.81916 51.1934 2.36637 50.5695 2.36637C49.9454 2.36637 49.438 2.81916 49.438 3.37584ZM27.5231 4.01286C27.9167 4.01286 28.2365 3.72705 28.2365 3.37584C28.2365 3.02463 27.9167 2.73903 27.5231 2.73903C27.1295 2.73903 26.809 3.02463 26.809 3.37584C26.809 3.72705 27.1295 4.01286 27.5231 4.01286ZM30.171 2.73903C30.5646 2.73903 30.8847 3.02463 30.8847 3.37584C30.8847 3.72705 30.5646 4.01286 30.171 4.01286C29.7777 4.01286 29.4574 3.72705 29.4574 3.37584C29.4574 3.02463 29.7777 2.73903 30.171 2.73903Z" fill="#0B0B09"/>
<path d="M25.804 16.576V18.22H23.572V25H21.52V18.22H19.288V16.576H25.804ZM33.1458 21.544C33.1458 21.736 33.1338 21.936 33.1098 22.144H28.4658C28.4978 22.56 28.6298 22.88 28.8618 23.104C29.1018 23.32 29.3938 23.428 29.7378 23.428C30.2498 23.428 30.6058 23.212 30.8058 22.78H32.9898C32.8778 23.22 32.6738 23.616 32.3778 23.968C32.0898 24.32 31.7258 24.596 31.2858 24.796C30.8458 24.996 30.3538 25.096 29.8098 25.096C29.1538 25.096 28.5698 24.956 28.0578 24.676C27.5458 24.396 27.1458 23.996 26.8578 23.476C26.5698 22.956 26.4258 22.348 26.4258 21.652C26.4258 20.956 26.5658 20.348 26.8458 19.828C27.1338 19.308 27.5338 18.908 28.0458 18.628C28.5578 18.348 29.1458 18.208 29.8098 18.208C30.4578 18.208 31.0338 18.344 31.5378 18.616C32.0418 18.888 32.4338 19.276 32.7138 19.78C33.0018 20.284 33.1458 20.872 33.1458 21.544ZM31.0458 21.004C31.0458 20.652 30.9258 20.372 30.6858 20.164C30.4458 19.956 30.1458 19.852 29.7858 19.852C29.4418 19.852 29.1498 19.952 28.9098 20.152C28.6778 20.352 28.5338 20.636 28.4778 21.004H31.0458ZM36.2804 16.12V25H34.2284V16.12H36.2804ZM39.8194 16.12V25H37.7674V16.12H39.8194ZM50.4615 18.304V25H48.4095V24.088C48.2015 24.384 47.9175 24.624 47.5575 24.808C47.2055 24.984 46.8135 25.072 46.3815 25.072C45.8695 25.072 45.4175 24.96 45.0255 24.736C44.6335 24.504 44.3295 24.172 44.1135 23.74C43.8975 23.308 43.7895 22.8 43.7895 22.216V18.304H45.8295V21.94C45.8295 22.388 45.9455 22.736 46.1775 22.984C46.4095 23.232 46.7215 23.356 47.1135 23.356C47.5135 23.356 47.8295 23.232 48.0615 22.984C48.2935 22.736 48.4095 22.388 48.4095 21.94V18.304H50.4615ZM54.6594 25.096C54.0754 25.096 53.5554 24.996 53.0994 24.796C52.6434 24.596 52.2834 24.324 52.0194 23.98C51.7554 23.628 51.6074 23.236 51.5754 22.804H53.6034C53.6274 23.036 53.7354 23.224 53.9274 23.368C54.1194 23.512 54.3554 23.584 54.6354 23.584C54.8914 23.584 55.0874 23.536 55.2234 23.44C55.3674 23.336 55.4394 23.204 55.4394 23.044C55.4394 22.852 55.3394 22.712 55.1394 22.624C54.9394 22.528 54.6154 22.424 54.1674 22.312C53.6874 22.2 53.2874 22.084 52.9674 21.964C52.6474 21.836 52.3714 21.64 52.1394 21.376C51.9074 21.104 51.7914 20.74 51.7914 20.284C51.7914 19.9 51.8954 19.552 52.1034 19.24C52.3194 18.92 52.6314 18.668 53.0394 18.484C53.4554 18.3 53.9474 18.208 54.5154 18.208C55.3554 18.208 56.0154 18.416 56.4954 18.832C56.9834 19.248 57.2634 19.8 57.3354 20.488H55.4394C55.4074 20.256 55.3034 20.072 55.1274 19.936C54.9594 19.8 54.7354 19.732 54.4554 19.732C54.2154 19.732 54.0314 19.78 53.9034 19.876C53.7754 19.964 53.7114 20.088 53.7114 20.248C53.7114 20.44 53.8114 20.584 54.0114 20.68C54.2194 20.776 54.5394 20.872 54.9714 20.968C55.4674 21.096 55.8714 21.224 56.1834 21.352C56.4954 21.472 56.7674 21.672 56.9994 21.952C57.2394 22.224 57.3634 22.592 57.3714 23.056C57.3714 23.448 57.2594 23.8 57.0354 24.112C56.8194 24.416 56.5034 24.656 56.0874 24.832C55.6794 25.008 55.2034 25.096 54.6594 25.096ZM19.336 39.64C19.336 38.952 19.464 38.348 19.72 37.828C19.984 37.308 20.34 36.908 20.788 36.628C21.236 36.348 21.736 36.208 22.288 36.208C22.76 36.208 23.172 36.304 23.524 36.496C23.884 36.688 24.16 36.94 24.352 37.252V36.304H26.404V43H24.352V42.052C24.152 42.364 23.872 42.616 23.512 42.808C23.16 43 22.748 43.096 22.276 43.096C21.732 43.096 21.236 42.956 20.788 42.676C20.34 42.388 19.984 41.984 19.72 41.464C19.464 40.936 19.336 40.328 19.336 39.64ZM24.352 39.652C24.352 39.14 24.208 38.736 23.92 38.44C23.64 38.144 23.296 37.996 22.888 37.996C22.48 37.996 22.132 38.144 21.844 38.44C21.564 38.728 21.424 39.128 21.424 39.64C21.424 40.152 21.564 40.56 21.844 40.864C22.132 41.16 22.48 41.308 22.888 41.308C23.296 41.308 23.64 41.16 23.92 40.864C24.208 40.568 24.352 40.164 24.352 39.652ZM29.9405 37.252C30.1325 36.94 30.4085 36.688 30.7685 36.496C31.1285 36.304 31.5405 36.208 32.0045 36.208C32.5565 36.208 33.0565 36.348 33.5045 36.628C33.9525 36.908 34.3045 37.308 34.5605 37.828C34.8245 38.348 34.9565 38.952 34.9565 39.64C34.9565 40.328 34.8245 40.936 34.5605 41.464C34.3045 41.984 33.9525 42.388 33.5045 42.676C33.0565 42.956 32.5565 43.096 32.0045 43.096C31.5325 43.096 31.1205 43.004 30.7685 42.82C30.4165 42.628 30.1405 42.376 29.9405 42.064V43H27.8885V34.12H29.9405V37.252ZM32.8685 39.64C32.8685 39.128 32.7245 38.728 32.4365 38.44C32.1565 38.144 31.8085 37.996 31.3925 37.996C30.9845 37.996 30.6365 38.144 30.3485 38.44C30.0685 38.736 29.9285 39.14 29.9285 39.652C29.9285 40.164 30.0685 40.568 30.3485 40.864C30.6365 41.16 30.9845 41.308 31.3925 41.308C31.8005 41.308 32.1485 41.16 32.4365 40.864C32.7245 40.56 32.8685 40.152 32.8685 39.64ZM39.0811 43.096C38.4251 43.096 37.8331 42.956 37.3051 42.676C36.7851 42.396 36.3731 41.996 36.0691 41.476C35.7731 40.956 35.6251 40.348 35.6251 39.652C35.6251 38.964 35.7771 38.36 36.0811 37.84C36.3851 37.312 36.8011 36.908 37.3291 36.628C37.8571 36.348 38.4491 36.208 39.1051 36.208C39.7611 36.208 40.3531 36.348 40.8811 36.628C41.4091 36.908 41.8251 37.312 42.1291 37.84C42.4331 38.36 42.5851 38.964 42.5851 39.652C42.5851 40.34 42.4291 40.948 42.1171 41.476C41.8131 41.996 41.3931 42.396 40.8571 42.676C40.3291 42.956 39.7371 43.096 39.0811 43.096ZM39.0811 41.32C39.4731 41.32 39.8051 41.176 40.0771 40.888C40.3571 40.6 40.4971 40.188 40.4971 39.652C40.4971 39.116 40.3611 38.704 40.0891 38.416C39.8251 38.128 39.4971 37.984 39.1051 37.984C38.7051 37.984 38.3731 38.128 38.1091 38.416C37.8451 38.696 37.7131 39.108 37.7131 39.652C37.7131 40.188 37.8411 40.6 38.0971 40.888C38.3611 41.176 38.6891 41.32 39.0811 41.32ZM50.2857 36.304V43H48.2337V42.088C48.0257 42.384 47.7417 42.624 47.3817 42.808C47.0297 42.984 46.6377 43.072 46.2057 43.072C45.6937 43.072 45.2417 42.96 44.8497 42.736C44.4577 42.504 44.1537 42.172 43.9377 41.74C43.7217 41.308 43.6137 40.8 43.6137 40.216V36.304H45.6537V39.94C45.6537 40.388 45.7697 40.736 46.0017 40.984C46.2337 41.232 46.5457 41.356 46.9377 41.356C47.3377 41.356 47.6537 41.232 47.8857 40.984C48.1177 40.736 48.2337 40.388 48.2337 39.94V36.304H50.2857ZM55.4916 41.26V43H54.4476C53.7036 43 53.1236 42.82 52.7076 42.46C52.2916 42.092 52.0836 41.496 52.0836 40.672V38.008H51.2676V36.304H52.0836V34.672H54.1356V36.304H55.4796V38.008H54.1356V40.696C54.1356 40.896 54.1836 41.04 54.2796 41.128C54.3756 41.216 54.5356 41.26 54.7596 41.26H55.4916ZM26.584 54.304L22.384 64.18H20.176L21.712 60.772L18.988 54.304H21.28L22.828 58.492L24.364 54.304H26.584ZM30.374 61.096C29.718 61.096 29.126 60.956 28.598 60.676C28.078 60.396 27.666 59.996 27.362 59.476C27.066 58.956 26.918 58.348 26.918 57.652C26.918 56.964 27.07 56.36 27.374 55.84C27.678 55.312 28.094 54.908 28.622 54.628C29.15 54.348 29.742 54.208 30.398 54.208C31.054 54.208 31.646 54.348 32.174 54.628C32.702 54.908 33.118 55.312 33.422 55.84C33.726 56.36 33.878 56.964 33.878 57.652C33.878 58.34 33.722 58.948 33.41 59.476C33.106 59.996 32.686 60.396 32.15 60.676C31.622 60.956 31.03 61.096 30.374 61.096ZM30.374 59.32C30.766 59.32 31.098 59.176 31.37 58.888C31.65 58.6 31.79 58.188 31.79 57.652C31.79 57.116 31.654 56.704 31.382 56.416C31.118 56.128 30.79 55.984 30.398 55.984C29.998 55.984 29.666 56.128 29.402 56.416C29.138 56.696 29.006 57.108 29.006 57.652C29.006 58.188 29.134 58.6 29.39 58.888C29.654 59.176 29.982 59.32 30.374 59.32ZM41.5787 54.304V61H39.5267V60.088C39.3187 60.384 39.0347 60.624 38.6747 60.808C38.3227 60.984 37.9307 61.072 37.4987 61.072C36.9867 61.072 36.5347 60.96 36.1427 60.736C35.7507 60.504 35.4467 60.172 35.2307 59.74C35.0147 59.308 34.9067 58.8 34.9067 58.216V54.304H36.9467V57.94C36.9467 58.388 37.0627 58.736 37.2947 58.984C37.5267 59.232 37.8387 59.356 38.2307 59.356C38.6307 59.356 38.9467 59.232 39.1787 58.984C39.4107 58.736 39.5267 58.388 39.5267 57.94V54.304H41.5787ZM45.1046 55.42C45.3446 55.052 45.6446 54.764 46.0046 54.556C46.3646 54.34 46.7646 54.232 47.2046 54.232V56.404H46.6406C46.1286 56.404 45.7446 56.516 45.4886 56.74C45.2326 56.956 45.1046 57.34 45.1046 57.892V61H43.0526V54.304H45.1046V55.42ZM23.86 72.232C24.628 72.232 25.244 72.488 25.708 73C26.172 73.504 26.404 74.2 26.404 75.088V79H24.364V75.364C24.364 74.916 24.248 74.568 24.016 74.32C23.784 74.072 23.472 73.948 23.08 73.948C22.688 73.948 22.376 74.072 22.144 74.32C21.912 74.568 21.796 74.916 21.796 75.364V79H19.744V70.12H21.796V73.204C22.004 72.908 22.288 72.672 22.648 72.496C23.008 72.32 23.412 72.232 23.86 72.232ZM30.8779 79.096C30.2219 79.096 29.6299 78.956 29.1019 78.676C28.5819 78.396 28.1699 77.996 27.8659 77.476C27.5699 76.956 27.4219 76.348 27.4219 75.652C27.4219 74.964 27.5739 74.36 27.8779 73.84C28.1819 73.312 28.5979 72.908 29.1259 72.628C29.6539 72.348 30.2459 72.208 30.9019 72.208C31.5579 72.208 32.1499 72.348 32.6779 72.628C33.2059 72.908 33.6219 73.312 33.9259 73.84C34.2299 74.36 34.3819 74.964 34.3819 75.652C34.3819 76.34 34.2259 76.948 33.9139 77.476C33.6099 77.996 33.1899 78.396 32.6539 78.676C32.1259 78.956 31.5339 79.096 30.8779 79.096ZM30.8779 77.32C31.2699 77.32 31.6019 77.176 31.8739 76.888C32.1539 76.6 32.2939 76.188 32.2939 75.652C32.2939 75.116 32.1579 74.704 31.8859 74.416C31.6219 74.128 31.2939 73.984 30.9019 73.984C30.5019 73.984 30.1699 74.128 29.9059 74.416C29.6419 74.696 29.5099 75.108 29.5099 75.652C29.5099 76.188 29.6379 76.6 29.8939 76.888C30.1579 77.176 30.4859 77.32 30.8779 77.32ZM44.0146 72.232C44.8466 72.232 45.5066 72.484 45.9946 72.988C46.4906 73.492 46.7386 74.192 46.7386 75.088V79H44.6986V75.364C44.6986 74.932 44.5826 74.6 44.3506 74.368C44.1266 74.128 43.8146 74.008 43.4146 74.008C43.0146 74.008 42.6986 74.128 42.4666 74.368C42.2426 74.6 42.1306 74.932 42.1306 75.364V79H40.0906V75.364C40.0906 74.932 39.9746 74.6 39.7426 74.368C39.5186 74.128 39.2066 74.008 38.8066 74.008C38.4066 74.008 38.0906 74.128 37.8586 74.368C37.6346 74.6 37.5226 74.932 37.5226 75.364V79H35.4706V72.304H37.5226V73.144C37.7306 72.864 38.0026 72.644 38.3386 72.484C38.6746 72.316 39.0546 72.232 39.4786 72.232C39.9826 72.232 40.4306 72.34 40.8226 72.556C41.2226 72.772 41.5346 73.08 41.7586 73.48C41.9906 73.112 42.3066 72.812 42.7066 72.58C43.1066 72.348 43.5426 72.232 44.0146 72.232ZM54.4857 75.544C54.4857 75.736 54.4737 75.936 54.4497 76.144H49.8057C49.8377 76.56 49.9697 76.88 50.2017 77.104C50.4417 77.32 50.7337 77.428 51.0777 77.428C51.5897 77.428 51.9457 77.212 52.1457 76.78H54.3297C54.2177 77.22 54.0137 77.616 53.7177 77.968C53.4297 78.32 53.0657 78.596 52.6257 78.796C52.1857 78.996 51.6937 79.096 51.1497 79.096C50.4937 79.096 49.9097 78.956 49.3977 78.676C48.8857 78.396 48.4857 77.996 48.1977 77.476C47.9097 76.956 47.7657 76.348 47.7657 75.652C47.7657 74.956 47.9057 74.348 48.1857 73.828C48.4737 73.308 48.8737 72.908 49.3857 72.628C49.8977 72.348 50.4857 72.208 51.1497 72.208C51.7977 72.208 52.3737 72.344 52.8777 72.616C53.3817 72.888 53.7737 73.276 54.0537 73.78C54.3417 74.284 54.4857 74.872 54.4857 75.544ZM52.3857 75.004C52.3857 74.652 52.2657 74.372 52.0257 74.164C51.7857 73.956 51.4857 73.852 51.1257 73.852C50.7817 73.852 50.4897 73.952 50.2497 74.152C50.0177 74.352 49.8737 74.636 49.8177 75.004H52.3857Z" fill="#164C82"/>
</svg>
