<svg width="110" height="68" viewBox="0 0 110 68" fill="none" xmlns="http://www.w3.org/2000/svg">
<path fill-rule="evenodd" clip-rule="evenodd" d="M5.89295 2C3.73637 2 2 3.41944 2 5.18215V62.8178C2 64.5806 3.73637 66 5.89295 66H104.108C106.264 66 108 64.5806 108 62.8178V5.18215C108 3.41944 106.264 2 104.108 2H5.89295V2Z" fill="url(#paint0_linear)" fill-opacity="0.75" stroke="black" stroke-width="3.125" stroke-linecap="round" stroke-linejoin="round"/>
<path d="M16.792 20.084C16.176 20.084 15.624 19.984 15.136 19.784C14.648 19.584 14.256 19.288 13.96 18.896C13.672 18.504 13.52 18.032 13.504 17.48H15.688C15.72 17.792 15.828 18.032 16.012 18.2C16.196 18.36 16.436 18.44 16.732 18.44C17.036 18.44 17.276 18.372 17.452 18.236C17.628 18.092 17.716 17.896 17.716 17.648C17.716 17.44 17.644 17.268 17.5 17.132C17.364 16.996 17.192 16.884 16.984 16.796C16.784 16.708 16.496 16.608 16.12 16.496C15.576 16.328 15.132 16.16 14.788 15.992C14.444 15.824 14.148 15.576 13.9 15.248C13.652 14.92 13.528 14.492 13.528 13.964C13.528 13.18 13.812 12.568 14.38 12.128C14.948 11.68 15.688 11.456 16.6 11.456C17.528 11.456 18.276 11.68 18.844 12.128C19.412 12.568 19.716 13.184 19.756 13.976H17.536C17.52 13.704 17.42 13.492 17.236 13.34C17.052 13.18 16.816 13.1 16.528 13.1C16.28 13.1 16.08 13.168 15.928 13.304C15.776 13.432 15.7 13.62 15.7 13.868C15.7 14.14 15.828 14.352 16.084 14.504C16.34 14.656 16.74 14.82 17.284 14.996C17.828 15.18 18.268 15.356 18.604 15.524C18.948 15.692 19.244 15.936 19.492 16.256C19.74 16.576 19.864 16.988 19.864 17.492C19.864 17.972 19.74 18.408 19.492 18.8C19.252 19.192 18.9 19.504 18.436 19.736C17.972 19.968 17.424 20.084 16.792 20.084ZM25.2428 13.232C26.0108 13.232 26.6268 13.488 27.0908 14C27.5548 14.504 27.7868 15.2 27.7868 16.088V20H25.7468V16.364C25.7468 15.916 25.6308 15.568 25.3988 15.32C25.1668 15.072 24.8548 14.948 24.4628 14.948C24.0708 14.948 23.7588 15.072 23.5268 15.32C23.2948 15.568 23.1788 15.916 23.1788 16.364V20H21.1268V11.12H23.1788V14.204C23.3868 13.908 23.6708 13.672 24.0308 13.496C24.3908 13.32 24.7948 13.232 25.2428 13.232ZM28.8048 16.64C28.8048 15.952 28.9328 15.348 29.1888 14.828C29.4528 14.308 29.8088 13.908 30.2568 13.628C30.7048 13.348 31.2048 13.208 31.7568 13.208C32.2288 13.208 32.6408 13.304 32.9928 13.496C33.3528 13.688 33.6288 13.94 33.8208 14.252V13.304H35.8728V20H33.8208V19.052C33.6208 19.364 33.3408 19.616 32.9808 19.808C32.6288 20 32.2168 20.096 31.7448 20.096C31.2008 20.096 30.7048 19.956 30.2568 19.676C29.8088 19.388 29.4528 18.984 29.1888 18.464C28.9328 17.936 28.8048 17.328 28.8048 16.64ZM33.8208 16.652C33.8208 16.14 33.6768 15.736 33.3888 15.44C33.1088 15.144 32.7648 14.996 32.3568 14.996C31.9488 14.996 31.6008 15.144 31.3128 15.44C31.0328 15.728 30.8928 16.128 30.8928 16.64C30.8928 17.152 31.0328 17.56 31.3128 17.864C31.6008 18.16 31.9488 18.308 32.3568 18.308C32.7648 18.308 33.1088 18.16 33.3888 17.864C33.6768 17.568 33.8208 17.164 33.8208 16.652ZM39.4093 14.42C39.6493 14.052 39.9493 13.764 40.3093 13.556C40.6693 13.34 41.0693 13.232 41.5093 13.232V15.404H40.9453C40.4333 15.404 40.0493 15.516 39.7933 15.74C39.5373 15.956 39.4093 16.34 39.4093 16.892V20H37.3573V13.304H39.4093V14.42ZM48.8021 16.544C48.8021 16.736 48.7901 16.936 48.7661 17.144H44.1221C44.1541 17.56 44.2861 17.88 44.5181 18.104C44.7581 18.32 45.0501 18.428 45.3941 18.428C45.9061 18.428 46.2621 18.212 46.4621 17.78H48.6461C48.5341 18.22 48.3301 18.616 48.0341 18.968C47.7461 19.32 47.3821 19.596 46.9421 19.796C46.5021 19.996 46.0101 20.096 45.4661 20.096C44.8101 20.096 44.2261 19.956 43.7141 19.676C43.2021 19.396 42.8021 18.996 42.5141 18.476C42.2261 17.956 42.0821 17.348 42.0821 16.652C42.0821 15.956 42.2221 15.348 42.5021 14.828C42.7901 14.308 43.1901 13.908 43.7021 13.628C44.2141 13.348 44.8021 13.208 45.4661 13.208C46.1141 13.208 46.6901 13.344 47.1941 13.616C47.6981 13.888 48.0901 14.276 48.3701 14.78C48.6581 15.284 48.8021 15.872 48.8021 16.544ZM46.7021 16.004C46.7021 15.652 46.5821 15.372 46.3421 15.164C46.1021 14.956 45.8021 14.852 45.4421 14.852C45.0981 14.852 44.8061 14.952 44.5661 15.152C44.3341 15.352 44.1901 15.636 44.1341 16.004H46.7021ZM54.4796 14.252C54.6796 13.94 54.9556 13.688 55.3076 13.496C55.6596 13.304 56.0716 13.208 56.5436 13.208C57.0956 13.208 57.5956 13.348 58.0436 13.628C58.4916 13.908 58.8436 14.308 59.0996 14.828C59.3636 15.348 59.4956 15.952 59.4956 16.64C59.4956 17.328 59.3636 17.936 59.0996 18.464C58.8436 18.984 58.4916 19.388 58.0436 19.676C57.5956 19.956 57.0956 20.096 56.5436 20.096C56.0796 20.096 55.6676 20 55.3076 19.808C54.9556 19.616 54.6796 19.368 54.4796 19.064V23.192H52.4276V13.304H54.4796V14.252ZM57.4076 16.64C57.4076 16.128 57.2636 15.728 56.9756 15.44C56.6956 15.144 56.3476 14.996 55.9316 14.996C55.5236 14.996 55.1756 15.144 54.8876 15.44C54.6076 15.736 54.4676 16.14 54.4676 16.652C54.4676 17.164 54.6076 17.568 54.8876 17.864C55.1756 18.16 55.5236 18.308 55.9316 18.308C56.3396 18.308 56.6876 18.16 56.9756 17.864C57.2636 17.56 57.4076 17.152 57.4076 16.64ZM61.6041 12.608C61.2441 12.608 60.9481 12.504 60.7161 12.296C60.4921 12.08 60.3801 11.816 60.3801 11.504C60.3801 11.184 60.4921 10.92 60.7161 10.712C60.9481 10.496 61.2441 10.388 61.6041 10.388C61.9561 10.388 62.2441 10.496 62.4681 10.712C62.7001 10.92 62.8161 11.184 62.8161 11.504C62.8161 11.816 62.7001 12.08 62.4681 12.296C62.2441 12.504 61.9561 12.608 61.6041 12.608ZM62.6241 13.304V20H60.5721V13.304H62.6241ZM63.7032 16.652C63.7032 15.956 63.8432 15.348 64.1232 14.828C64.4112 14.308 64.8072 13.908 65.3112 13.628C65.8232 13.348 66.4072 13.208 67.0632 13.208C67.9032 13.208 68.6032 13.428 69.1632 13.868C69.7312 14.308 70.1032 14.928 70.2792 15.728H68.0952C67.9112 15.216 67.5552 14.96 67.0272 14.96C66.6512 14.96 66.3512 15.108 66.1272 15.404C65.9032 15.692 65.7912 16.108 65.7912 16.652C65.7912 17.196 65.9032 17.616 66.1272 17.912C66.3512 18.2 66.6512 18.344 67.0272 18.344C67.5552 18.344 67.9112 18.088 68.0952 17.576H70.2792C70.1032 18.36 69.7312 18.976 69.1632 19.424C68.5952 19.872 67.8952 20.096 67.0632 20.096C66.4072 20.096 65.8232 19.956 65.3112 19.676C64.8072 19.396 64.4112 18.996 64.1232 18.476C63.8432 17.956 63.7032 17.348 63.7032 16.652ZM75.1088 18.26V20H74.0648C73.3208 20 72.7408 19.82 72.3248 19.46C71.9088 19.092 71.7008 18.496 71.7008 17.672V15.008H70.8848V13.304H71.7008V11.672H73.7528V13.304H75.0968V15.008H73.7528V17.696C73.7528 17.896 73.8008 18.04 73.8968 18.128C73.9928 18.216 74.1528 18.26 74.3768 18.26H75.1088ZM82.8638 13.304V20H80.8118V19.088C80.6038 19.384 80.3198 19.624 79.9598 19.808C79.6078 19.984 79.2158 20.072 78.7838 20.072C78.2718 20.072 77.8198 19.96 77.4278 19.736C77.0358 19.504 76.7318 19.172 76.5158 18.74C76.2998 18.308 76.1918 17.8 76.1918 17.216V13.304H78.2318V16.94C78.2318 17.388 78.3478 17.736 78.5798 17.984C78.8118 18.232 79.1238 18.356 79.5158 18.356C79.9158 18.356 80.2318 18.232 80.4638 17.984C80.6958 17.736 80.8118 17.388 80.8118 16.94V13.304H82.8638ZM86.3898 14.42C86.6298 14.052 86.9298 13.764 87.2898 13.556C87.6498 13.34 88.0498 13.232 88.4898 13.232V15.404H87.9258C87.4138 15.404 87.0298 15.516 86.7738 15.74C86.5178 15.956 86.3898 16.34 86.3898 16.892V20H84.3378V13.304H86.3898V14.42ZM95.7826 16.544C95.7826 16.736 95.7706 16.936 95.7466 17.144H91.1026C91.1346 17.56 91.2666 17.88 91.4986 18.104C91.7386 18.32 92.0306 18.428 92.3746 18.428C92.8866 18.428 93.2426 18.212 93.4426 17.78H95.6266C95.5146 18.22 95.3106 18.616 95.0146 18.968C94.7266 19.32 94.3626 19.596 93.9226 19.796C93.4826 19.996 92.9906 20.096 92.4466 20.096C91.7906 20.096 91.2066 19.956 90.6946 19.676C90.1826 19.396 89.7826 18.996 89.4946 18.476C89.2066 17.956 89.0626 17.348 89.0626 16.652C89.0626 15.956 89.2026 15.348 89.4826 14.828C89.7706 14.308 90.1706 13.908 90.6826 13.628C91.1946 13.348 91.7826 13.208 92.4466 13.208C93.0946 13.208 93.6706 13.344 94.1746 13.616C94.6786 13.888 95.0706 14.276 95.3506 14.78C95.6386 15.284 95.7826 15.872 95.7826 16.544ZM93.6826 16.004C93.6826 15.652 93.5626 15.372 93.3226 15.164C93.0826 14.956 92.7826 14.852 92.4226 14.852C92.0786 14.852 91.7866 14.952 91.5466 15.152C91.3146 15.352 91.1706 15.636 91.1146 16.004H93.6826ZM99.5891 20.096C99.0051 20.096 98.4851 19.996 98.0291 19.796C97.5731 19.596 97.2131 19.324 96.9491 18.98C96.6851 18.628 96.5371 18.236 96.5051 17.804H98.5331C98.5571 18.036 98.6651 18.224 98.8571 18.368C99.0491 18.512 99.2851 18.584 99.5651 18.584C99.8211 18.584 100.017 18.536 100.153 18.44C100.297 18.336 100.369 18.204 100.369 18.044C100.369 17.852 100.269 17.712 100.069 17.624C99.8691 17.528 99.5451 17.424 99.0971 17.312C98.6171 17.2 98.2171 17.084 97.8971 16.964C97.5771 16.836 97.3011 16.64 97.0691 16.376C96.8371 16.104 96.7211 15.74 96.7211 15.284C96.7211 14.9 96.8251 14.552 97.0331 14.24C97.2491 13.92 97.5611 13.668 97.9691 13.484C98.3851 13.3 98.8771 13.208 99.4451 13.208C100.285 13.208 100.945 13.416 101.425 13.832C101.913 14.248 102.193 14.8 102.265 15.488H100.369C100.337 15.256 100.233 15.072 100.057 14.936C99.8891 14.8 99.6651 14.732 99.3851 14.732C99.1451 14.732 98.9611 14.78 98.8331 14.876C98.7051 14.964 98.6411 15.088 98.6411 15.248C98.6411 15.44 98.7411 15.584 98.9411 15.68C99.1491 15.776 99.4691 15.872 99.9011 15.968C100.397 16.096 100.801 16.224 101.113 16.352C101.425 16.472 101.697 16.672 101.929 16.952C102.169 17.224 102.293 17.592 102.301 18.056C102.301 18.448 102.189 18.8 101.965 19.112C101.749 19.416 101.433 19.656 101.017 19.832C100.609 20.008 100.133 20.096 99.5891 20.096ZM16.792 38.096C16.136 38.096 15.544 37.956 15.016 37.676C14.496 37.396 14.084 36.996 13.78 36.476C13.484 35.956 13.336 35.348 13.336 34.652C13.336 33.964 13.488 33.36 13.792 32.84C14.096 32.312 14.512 31.908 15.04 31.628C15.568 31.348 16.16 31.208 16.816 31.208C17.472 31.208 18.064 31.348 18.592 31.628C19.12 31.908 19.536 32.312 19.84 32.84C20.144 33.36 20.296 33.964 20.296 34.652C20.296 35.34 20.14 35.948 19.828 36.476C19.524 36.996 19.104 37.396 18.568 37.676C18.04 37.956 17.448 38.096 16.792 38.096ZM16.792 36.32C17.184 36.32 17.516 36.176 17.788 35.888C18.068 35.6 18.208 35.188 18.208 34.652C18.208 34.116 18.072 33.704 17.8 33.416C17.536 33.128 17.208 32.984 16.816 32.984C16.416 32.984 16.084 33.128 15.82 33.416C15.556 33.696 15.424 34.108 15.424 34.652C15.424 35.188 15.552 35.6 15.808 35.888C16.072 36.176 16.4 36.32 16.792 36.32ZM24.7446 33.008H23.6406V38H21.5886V33.008H20.8446V31.304H21.5886V31.112C21.5886 30.288 21.8246 29.664 22.2966 29.24C22.7686 28.808 23.4606 28.592 24.3726 28.592C24.5246 28.592 24.6366 28.596 24.7086 28.604V30.344C24.3166 30.32 24.0406 30.376 23.8806 30.512C23.7206 30.648 23.6406 30.892 23.6406 31.244V31.304H24.7446V33.008ZM35.0918 31.304L30.8918 41.18H28.6838L30.2198 37.772L27.4958 31.304H29.7878L31.3358 35.492L32.8718 31.304H35.0918ZM38.8818 38.096C38.2258 38.096 37.6338 37.956 37.1058 37.676C36.5858 37.396 36.1738 36.996 35.8698 36.476C35.5738 35.956 35.4258 35.348 35.4258 34.652C35.4258 33.964 35.5778 33.36 35.8818 32.84C36.1858 32.312 36.6018 31.908 37.1298 31.628C37.6578 31.348 38.2498 31.208 38.9058 31.208C39.5618 31.208 40.1538 31.348 40.6818 31.628C41.2098 31.908 41.6258 32.312 41.9298 32.84C42.2338 33.36 42.3858 33.964 42.3858 34.652C42.3858 35.34 42.2298 35.948 41.9178 36.476C41.6138 36.996 41.1938 37.396 40.6578 37.676C40.1298 37.956 39.5378 38.096 38.8818 38.096ZM38.8818 36.32C39.2738 36.32 39.6058 36.176 39.8778 35.888C40.1578 35.6 40.2978 35.188 40.2978 34.652C40.2978 34.116 40.1618 33.704 39.8898 33.416C39.6258 33.128 39.2978 32.984 38.9058 32.984C38.5058 32.984 38.1738 33.128 37.9098 33.416C37.6458 33.696 37.5138 34.108 37.5138 34.652C37.5138 35.188 37.6418 35.6 37.8978 35.888C38.1618 36.176 38.4898 36.32 38.8818 36.32ZM50.0865 31.304V38H48.0345V37.088C47.8265 37.384 47.5425 37.624 47.1825 37.808C46.8305 37.984 46.4385 38.072 46.0065 38.072C45.4945 38.072 45.0425 37.96 44.6505 37.736C44.2585 37.504 43.9545 37.172 43.7385 36.74C43.5225 36.308 43.4145 35.8 43.4145 35.216V31.304H45.4545V34.94C45.4545 35.388 45.5705 35.736 45.8025 35.984C46.0345 36.232 46.3465 36.356 46.7385 36.356C47.1385 36.356 47.4545 36.232 47.6865 35.984C47.9185 35.736 48.0345 35.388 48.0345 34.94V31.304H50.0865ZM53.6124 32.42C53.8524 32.052 54.1524 31.764 54.5124 31.556C54.8724 31.34 55.2724 31.232 55.7124 31.232V33.404H55.1484C54.6364 33.404 54.2524 33.516 53.9964 33.74C53.7404 33.956 53.6124 34.34 53.6124 34.892V38H51.5604V31.304H53.6124V32.42ZM63.3522 31.232C64.1202 31.232 64.7362 31.488 65.2002 32C65.6642 32.504 65.8962 33.2 65.8962 34.088V38H63.8562V34.364C63.8562 33.916 63.7402 33.568 63.5082 33.32C63.2762 33.072 62.9642 32.948 62.5722 32.948C62.1802 32.948 61.8682 33.072 61.6362 33.32C61.4042 33.568 61.2882 33.916 61.2882 34.364V38H59.2362V29.12H61.2882V32.204C61.4962 31.908 61.7802 31.672 62.1402 31.496C62.5002 31.32 62.9042 31.232 63.3522 31.232ZM70.3701 38.096C69.7141 38.096 69.1221 37.956 68.5941 37.676C68.0741 37.396 67.6621 36.996 67.3581 36.476C67.0621 35.956 66.9141 35.348 66.9141 34.652C66.9141 33.964 67.0661 33.36 67.3701 32.84C67.6741 32.312 68.0901 31.908 68.6181 31.628C69.1461 31.348 69.7381 31.208 70.3941 31.208C71.0501 31.208 71.6421 31.348 72.1701 31.628C72.6981 31.908 73.1141 32.312 73.4181 32.84C73.7221 33.36 73.8741 33.964 73.8741 34.652C73.8741 35.34 73.7181 35.948 73.4061 36.476C73.1021 36.996 72.6821 37.396 72.1461 37.676C71.6181 37.956 71.0261 38.096 70.3701 38.096ZM70.3701 36.32C70.7621 36.32 71.0941 36.176 71.3661 35.888C71.6461 35.6 71.7861 35.188 71.7861 34.652C71.7861 34.116 71.6501 33.704 71.3781 33.416C71.1141 33.128 70.7861 32.984 70.3941 32.984C69.9941 32.984 69.6621 33.128 69.3981 33.416C69.1341 33.696 69.0021 34.108 69.0021 34.652C69.0021 35.188 69.1301 35.6 69.3861 35.888C69.6501 36.176 69.9781 36.32 70.3701 36.32ZM83.5068 31.232C84.3388 31.232 84.9988 31.484 85.4868 31.988C85.9828 32.492 86.2308 33.192 86.2308 34.088V38H84.1908V34.364C84.1908 33.932 84.0748 33.6 83.8428 33.368C83.6188 33.128 83.3068 33.008 82.9068 33.008C82.5068 33.008 82.1908 33.128 81.9588 33.368C81.7348 33.6 81.6228 33.932 81.6228 34.364V38H79.5828V34.364C79.5828 33.932 79.4668 33.6 79.2348 33.368C79.0108 33.128 78.6988 33.008 78.2988 33.008C77.8988 33.008 77.5828 33.128 77.3508 33.368C77.1268 33.6 77.0148 33.932 77.0148 34.364V38H74.9628V31.304H77.0148V32.144C77.2228 31.864 77.4948 31.644 77.8308 31.484C78.1668 31.316 78.5468 31.232 78.9708 31.232C79.4748 31.232 79.9228 31.34 80.3148 31.556C80.7148 31.772 81.0268 32.08 81.2508 32.48C81.4828 32.112 81.7988 31.812 82.1988 31.58C82.5988 31.348 83.0348 31.232 83.5068 31.232ZM93.9779 34.544C93.9779 34.736 93.9659 34.936 93.9419 35.144H89.2979C89.3299 35.56 89.4619 35.88 89.6939 36.104C89.9339 36.32 90.2259 36.428 90.5699 36.428C91.0819 36.428 91.4379 36.212 91.6379 35.78H93.8219C93.7099 36.22 93.5059 36.616 93.2099 36.968C92.9219 37.32 92.5579 37.596 92.1179 37.796C91.6779 37.996 91.1859 38.096 90.6419 38.096C89.9859 38.096 89.4019 37.956 88.8899 37.676C88.3779 37.396 87.9779 36.996 87.6899 36.476C87.4019 35.956 87.2579 35.348 87.2579 34.652C87.2579 33.956 87.3979 33.348 87.6779 32.828C87.9659 32.308 88.3659 31.908 88.8779 31.628C89.3899 31.348 89.9779 31.208 90.6419 31.208C91.2899 31.208 91.8659 31.344 92.3699 31.616C92.8739 31.888 93.2659 32.276 93.5459 32.78C93.8339 33.284 93.9779 33.872 93.9779 34.544ZM91.8779 34.004C91.8779 33.652 91.7579 33.372 91.5179 33.164C91.2779 32.956 90.9779 32.852 90.6179 32.852C90.2739 32.852 89.9819 32.952 89.7419 33.152C89.5099 33.352 89.3659 33.636 89.3099 34.004H91.8779ZM23.356 49.304L21.544 56H19.276L18.22 51.656L17.128 56H14.872L13.048 49.304H15.1L16.048 54.092L17.176 49.304H19.348L20.488 54.068L21.424 49.304H23.356ZM25.1705 48.608C24.8105 48.608 24.5145 48.504 24.2825 48.296C24.0585 48.08 23.9465 47.816 23.9465 47.504C23.9465 47.184 24.0585 46.92 24.2825 46.712C24.5145 46.496 24.8105 46.388 25.1705 46.388C25.5225 46.388 25.8105 46.496 26.0345 46.712C26.2665 46.92 26.3825 47.184 26.3825 47.504C26.3825 47.816 26.2665 48.08 26.0345 48.296C25.8105 48.504 25.5225 48.608 25.1705 48.608ZM26.1905 49.304V56H24.1385V49.304H26.1905ZM31.4096 54.26V56H30.3656C29.6216 56 29.0416 55.82 28.6256 55.46C28.2096 55.092 28.0016 54.496 28.0016 53.672V51.008H27.1856V49.304H28.0016V47.672H30.0536V49.304H31.3976V51.008H30.0536V53.696C30.0536 53.896 30.1016 54.04 30.1976 54.128C30.2936 54.216 30.4536 54.26 30.6776 54.26H31.4096ZM36.6686 49.232C37.4366 49.232 38.0526 49.488 38.5166 50C38.9806 50.504 39.2126 51.2 39.2126 52.088V56H37.1726V52.364C37.1726 51.916 37.0566 51.568 36.8246 51.32C36.5926 51.072 36.2806 50.948 35.8886 50.948C35.4966 50.948 35.1846 51.072 34.9526 51.32C34.7206 51.568 34.6046 51.916 34.6046 52.364V56H32.5526V47.12H34.6046V50.204C34.8126 49.908 35.0966 49.672 35.4566 49.496C35.8166 49.32 36.2206 49.232 36.6686 49.232ZM49.7935 49.304V56H47.7415V55.088C47.5335 55.384 47.2495 55.624 46.8895 55.808C46.5375 55.984 46.1455 56.072 45.7135 56.072C45.2015 56.072 44.7495 55.96 44.3575 55.736C43.9655 55.504 43.6615 55.172 43.4455 54.74C43.2295 54.308 43.1215 53.8 43.1215 53.216V49.304H45.1615V52.94C45.1615 53.388 45.2775 53.736 45.5095 53.984C45.7415 54.232 46.0535 54.356 46.4455 54.356C46.8455 54.356 47.1615 54.232 47.3935 53.984C47.6255 53.736 47.7415 53.388 47.7415 52.94V49.304H49.7935ZM53.9914 56.096C53.4074 56.096 52.8874 55.996 52.4314 55.796C51.9754 55.596 51.6154 55.324 51.3514 54.98C51.0874 54.628 50.9394 54.236 50.9074 53.804H52.9354C52.9594 54.036 53.0674 54.224 53.2594 54.368C53.4514 54.512 53.6874 54.584 53.9674 54.584C54.2234 54.584 54.4194 54.536 54.5554 54.44C54.6994 54.336 54.7714 54.204 54.7714 54.044C54.7714 53.852 54.6714 53.712 54.4714 53.624C54.2714 53.528 53.9474 53.424 53.4994 53.312C53.0194 53.2 52.6194 53.084 52.2994 52.964C51.9794 52.836 51.7034 52.64 51.4714 52.376C51.2394 52.104 51.1234 51.74 51.1234 51.284C51.1234 50.9 51.2274 50.552 51.4354 50.24C51.6514 49.92 51.9634 49.668 52.3714 49.484C52.7874 49.3 53.2794 49.208 53.8474 49.208C54.6874 49.208 55.3474 49.416 55.8274 49.832C56.3154 50.248 56.5954 50.8 56.6674 51.488H54.7714C54.7394 51.256 54.6354 51.072 54.4594 50.936C54.2914 50.8 54.0674 50.732 53.7874 50.732C53.5474 50.732 53.3634 50.78 53.2354 50.876C53.1074 50.964 53.0434 51.088 53.0434 51.248C53.0434 51.44 53.1434 51.584 53.3434 51.68C53.5514 51.776 53.8714 51.872 54.3034 51.968C54.7994 52.096 55.2034 52.224 55.5154 52.352C55.8274 52.472 56.0994 52.672 56.3314 52.952C56.5714 53.224 56.6954 53.592 56.7034 54.056C56.7034 54.448 56.5914 54.8 56.3674 55.112C56.1514 55.416 55.8354 55.656 55.4194 55.832C55.0114 56.008 54.5354 56.096 53.9914 56.096Z" fill="#164C82"/>
<defs>
<linearGradient id="paint0_linear" x1="-1.25791" y1="33.9993" x2="111.262" y2="33.9993" gradientUnits="userSpaceOnUse">
<stop stop-color="#2047AC"/>
<stop offset="0.0001" stop-color="#FCFEFF"/>
<stop offset="0.9997" stop-color="#E4E8EA"/>
<stop offset="0.9998" stop-color="#19191A"/>
</linearGradient>
</defs>
</svg>
