<svg width="67" height="93" viewBox="0 0 67 93" fill="none" xmlns="http://www.w3.org/2000/svg">
<path d="M18.516 30.098C17.592 30.098 16.7427 29.8833 15.968 29.454C15.2027 29.0247 14.5913 28.4273 14.134 27.662C13.686 26.8873 13.462 26.0193 13.462 25.058C13.462 24.0967 13.686 23.2333 14.134 22.468C14.5913 21.7027 15.2027 21.1053 15.968 20.676C16.7427 20.2467 17.592 20.032 18.516 20.032C19.44 20.032 20.2847 20.2467 21.05 20.676C21.8247 21.1053 22.4313 21.7027 22.87 22.468C23.318 23.2333 23.542 24.0967 23.542 25.058C23.542 26.0193 23.318 26.8873 22.87 27.662C22.422 28.4273 21.8153 29.0247 21.05 29.454C20.2847 29.8833 19.44 30.098 18.516 30.098ZM18.516 27.914C19.3 27.914 19.9253 27.6527 20.392 27.13C20.868 26.6073 21.106 25.9167 21.106 25.058C21.106 24.19 20.868 23.4993 20.392 22.986C19.9253 22.4633 19.3 22.202 18.516 22.202C17.7227 22.202 17.088 22.4587 16.612 22.972C16.1453 23.4853 15.912 24.1807 15.912 25.058C15.912 25.926 16.1453 26.6213 16.612 27.144C17.088 27.6573 17.7227 27.914 18.516 27.914ZM32.5879 22.188V30H30.1939V28.936C29.9512 29.2813 29.6199 29.5613 29.1999 29.776C28.7892 29.9813 28.3319 30.084 27.8279 30.084C27.2305 30.084 26.7032 29.9533 26.2459 29.692C25.7885 29.4213 25.4339 29.034 25.1819 28.53C24.9299 28.026 24.8039 27.4333 24.8039 26.752V22.188H27.1839V26.43C27.1839 26.9527 27.3192 27.3587 27.5899 27.648C27.8605 27.9373 28.2245 28.082 28.6819 28.082C29.1485 28.082 29.5172 27.9373 29.7879 27.648C30.0585 27.3587 30.1939 26.9527 30.1939 26.43V22.188H32.5879ZM36.7015 23.49C36.9815 23.0607 37.3315 22.7247 37.7515 22.482C38.1715 22.23 38.6381 22.104 39.1515 22.104V24.638H38.4935C37.8961 24.638 37.4481 24.7687 37.1495 25.03C36.8508 25.282 36.7015 25.73 36.7015 26.374V30H34.3075V22.188H36.7015V23.49ZM17.424 51.112C16.6587 51.112 15.968 50.9487 15.352 50.622C14.7453 50.2953 14.2647 49.8287 13.91 49.222C13.5647 48.6153 13.392 47.906 13.392 47.094C13.392 46.2913 13.5693 45.5867 13.924 44.98C14.2787 44.364 14.764 43.8927 15.38 43.566C15.996 43.2393 16.6867 43.076 17.452 43.076C18.2173 43.076 18.908 43.2393 19.524 43.566C20.14 43.8927 20.6253 44.364 20.98 44.98C21.3347 45.5867 21.512 46.2913 21.512 47.094C21.512 47.8967 21.33 48.606 20.966 49.222C20.6113 49.8287 20.1213 50.2953 19.496 50.622C18.88 50.9487 18.1893 51.112 17.424 51.112ZM17.424 49.04C17.8813 49.04 18.2687 48.872 18.586 48.536C18.9127 48.2 19.076 47.7193 19.076 47.094C19.076 46.4687 18.9173 45.988 18.6 45.652C18.292 45.316 17.9093 45.148 17.452 45.148C16.9853 45.148 16.598 45.316 16.29 45.652C15.982 45.9787 15.828 46.4593 15.828 47.094C15.828 47.7193 15.9773 48.2 16.276 48.536C16.584 48.872 16.9667 49.04 17.424 49.04ZM26.7021 45.176H25.4141V51H23.0201V45.176H22.1521V43.188H23.0201V42.964C23.0201 42.0027 23.2954 41.2747 23.8461 40.78C24.3967 40.276 25.2041 40.024 26.2681 40.024C26.4454 40.024 26.5761 40.0287 26.6601 40.038V42.068C26.2027 42.04 25.8807 42.1053 25.6941 42.264C25.5074 42.4227 25.4141 42.7073 25.4141 43.118V43.188H26.7021V45.176ZM31.747 45.176H30.459V51H28.065V45.176H27.197V43.188H28.065V42.964C28.065 42.0027 28.3403 41.2747 28.891 40.78C29.4417 40.276 30.249 40.024 31.313 40.024C31.4903 40.024 31.621 40.0287 31.705 40.038V42.068C31.2477 42.04 30.9257 42.1053 30.739 42.264C30.5523 42.4227 30.459 42.7073 30.459 43.118V43.188H31.747V45.176ZM40.2359 46.968C40.2359 47.192 40.2219 47.4253 40.1939 47.668H34.7759C34.8132 48.1533 34.9672 48.5267 35.2379 48.788C35.5179 49.04 35.8586 49.166 36.2599 49.166C36.8572 49.166 37.2726 48.914 37.5059 48.41H40.0539C39.9232 48.9233 39.6852 49.3853 39.3399 49.796C39.0039 50.2067 38.5792 50.5287 38.0659 50.762C37.5526 50.9953 36.9786 51.112 36.3439 51.112C35.5786 51.112 34.8972 50.9487 34.2999 50.622C33.7026 50.2953 33.2359 49.8287 32.8999 49.222C32.5639 48.6153 32.3959 47.906 32.3959 47.094C32.3959 46.282 32.5592 45.5727 32.8859 44.966C33.2219 44.3593 33.6886 43.8927 34.2859 43.566C34.8832 43.2393 35.5692 43.076 36.3439 43.076C37.0999 43.076 37.7719 43.2347 38.3599 43.552C38.9479 43.8693 39.4052 44.322 39.7319 44.91C40.0679 45.498 40.2359 46.184 40.2359 46.968ZM37.7859 46.338C37.7859 45.9273 37.6459 45.6007 37.3659 45.358C37.0859 45.1153 36.7359 44.994 36.3159 44.994C35.9146 44.994 35.5739 45.1107 35.2939 45.344C35.0232 45.5773 34.8552 45.9087 34.7899 46.338H37.7859ZM43.8929 44.49C44.1729 44.0607 44.5229 43.7247 44.9429 43.482C45.3629 43.23 45.8295 43.104 46.3429 43.104V45.638H45.6849C45.0875 45.638 44.6395 45.7687 44.3409 46.03C44.0422 46.282 43.8929 46.73 43.8929 47.374V51H41.4989V43.188H43.8929V44.49ZM21.302 69.144C21.302 69.6573 21.1667 70.1333 20.896 70.572C20.6347 71.0013 20.2427 71.356 19.72 71.636C19.2067 71.9067 18.5953 72.056 17.886 72.084V73.218H16.99V72.07C16.0007 71.986 15.2027 71.692 14.596 71.188C13.9893 70.6747 13.6673 69.9793 13.63 69.102H16.178C16.234 69.662 16.5047 70.0213 16.99 70.18V67.968C16.262 67.7813 15.6787 67.5993 15.24 67.422C14.8107 67.2447 14.4327 66.96 14.106 66.568C13.7793 66.176 13.616 65.6393 13.616 64.958C13.616 64.1087 13.9287 63.4273 14.554 62.914C15.1887 62.4007 16.0007 62.1113 16.99 62.046V60.912H17.886V62.046C18.866 62.1207 19.6407 62.4053 20.21 62.9C20.7793 63.3947 21.0967 64.0807 21.162 64.958H18.6C18.544 64.454 18.306 64.1273 17.886 63.978V66.148C18.6607 66.3627 19.258 66.554 19.678 66.722C20.098 66.89 20.4713 67.17 20.798 67.562C21.134 67.9447 21.302 68.472 21.302 69.144ZM16.15 64.846C16.15 65.0793 16.22 65.2753 16.36 65.434C16.5093 65.5927 16.7193 65.7327 16.99 65.854V63.908C16.7287 63.9547 16.5233 64.0573 16.374 64.216C16.2247 64.3653 16.15 64.5753 16.15 64.846ZM17.886 70.222C18.166 70.1753 18.3853 70.0633 18.544 69.886C18.712 69.7087 18.796 69.4893 18.796 69.228C18.796 68.9853 18.7167 68.7893 18.558 68.64C18.4087 68.4813 18.1847 68.346 17.886 68.234V70.222ZM30.5168 69.144C30.5168 69.6573 30.3815 70.1333 30.1108 70.572C29.8495 71.0013 29.4575 71.356 28.9348 71.636C28.4215 71.9067 27.8102 72.056 27.1008 72.084V73.218H26.2048V72.07C25.2155 71.986 24.4175 71.692 23.8108 71.188C23.2042 70.6747 22.8822 69.9793 22.8448 69.102H25.3928C25.4488 69.662 25.7195 70.0213 26.2048 70.18V67.968C25.4768 67.7813 24.8935 67.5993 24.4548 67.422C24.0255 67.2447 23.6475 66.96 23.3208 66.568C22.9942 66.176 22.8308 65.6393 22.8308 64.958C22.8308 64.1087 23.1435 63.4273 23.7688 62.914C24.4035 62.4007 25.2155 62.1113 26.2048 62.046V60.912H27.1008V62.046C28.0808 62.1207 28.8555 62.4053 29.4248 62.9C29.9942 63.3947 30.3115 64.0807 30.3768 64.958H27.8148C27.7588 64.454 27.5208 64.1273 27.1008 63.978V66.148C27.8755 66.3627 28.4728 66.554 28.8928 66.722C29.3128 66.89 29.6862 67.17 30.0128 67.562C30.3488 67.9447 30.5168 68.472 30.5168 69.144ZM25.3648 64.846C25.3648 65.0793 25.4348 65.2753 25.5748 65.434C25.7242 65.5927 25.9342 65.7327 26.2048 65.854V63.908C25.9435 63.9547 25.7382 64.0573 25.5888 64.216C25.4395 64.3653 25.3648 64.5753 25.3648 64.846ZM27.1008 70.222C27.3808 70.1753 27.6002 70.0633 27.7588 69.886C27.9268 69.7087 28.0108 69.4893 28.0108 69.228C28.0108 68.9853 27.9315 68.7893 27.7728 68.64C27.6235 68.4813 27.3995 68.346 27.1008 68.234V70.222ZM39.7317 69.144C39.7317 69.6573 39.5964 70.1333 39.3257 70.572C39.0644 71.0013 38.6724 71.356 38.1497 71.636C37.6364 71.9067 37.025 72.056 36.3157 72.084V73.218H35.4197V72.07C34.4304 71.986 33.6324 71.692 33.0257 71.188C32.419 70.6747 32.097 69.9793 32.0597 69.102H34.6077C34.6637 69.662 34.9344 70.0213 35.4197 70.18V67.968C34.6917 67.7813 34.1084 67.5993 33.6697 67.422C33.2404 67.2447 32.8624 66.96 32.5357 66.568C32.209 66.176 32.0457 65.6393 32.0457 64.958C32.0457 64.1087 32.3584 63.4273 32.9837 62.914C33.6184 62.4007 34.4304 62.1113 35.4197 62.046V60.912H36.3157V62.046C37.2957 62.1207 38.0704 62.4053 38.6397 62.9C39.209 63.3947 39.5264 64.0807 39.5917 64.958H37.0297C36.9737 64.454 36.7357 64.1273 36.3157 63.978V66.148C37.0904 66.3627 37.6877 66.554 38.1077 66.722C38.5277 66.89 38.901 67.17 39.2277 67.562C39.5637 67.9447 39.7317 68.472 39.7317 69.144ZM34.5797 64.846C34.5797 65.0793 34.6497 65.2753 34.7897 65.434C34.939 65.5927 35.149 65.7327 35.4197 65.854V63.908C35.1584 63.9547 34.953 64.0573 34.8037 64.216C34.6544 64.3653 34.5797 64.5753 34.5797 64.846ZM36.3157 70.222C36.5957 70.1753 36.815 70.0633 36.9737 69.886C37.1417 69.7087 37.2257 69.4893 37.2257 69.228C37.2257 68.9853 37.1464 68.7893 36.9877 68.64C36.8384 68.4813 36.6144 68.346 36.3157 68.234V70.222Z" fill="#164C82"/>
<path d="M2.62835 0.104122C1.41762 0.46833 0.505747 1.42543 0.145594 2.69593C0 3.19565 0 4.2544 0 46.4771C0 88.6997 0 89.7585 0.145594 90.2582C0.521073 91.588 1.57088 92.6298 2.79693 92.8924C3.1341 92.9601 10.3372 92.9771 30.1916 92.9601L57.1264 92.9347L57.5632 92.7399C58.5287 92.3079 59.3333 91.3847 59.6705 90.3344C59.8008 89.9025 59.8084 88.361 59.8084 46.4771C59.8084 4.5932 59.8008 3.05166 59.6705 2.6197C59.3333 1.56942 58.5287 0.646199 57.5632 0.214232L57.1264 0.0194228L30.0766 0.00248294C6.97318 -0.005987 2.96552 0.00248294 2.62835 0.104122ZM57.4176 0.722428C58.2682 1.10358 58.9119 1.84893 59.2107 2.80603C59.341 3.22106 59.3487 5.08445 59.3487 46.4771C59.3487 87.8697 59.341 89.7331 59.2107 90.1481C58.9119 91.1052 58.2682 91.8506 57.4176 92.2317L56.9732 92.4265L30.1916 92.4519C10.4291 92.4689 3.28736 92.4519 2.95019 92.3842C1.80077 92.1385 0.911877 91.2577 0.582376 90.0211C0.467433 89.5976 0.45977 85.82 0.45977 46.4771C0.45977 7.37134 0.467433 3.35658 0.582376 2.93308C0.888889 1.78117 1.72414 0.900297 2.79693 0.603849C3.09579 0.51915 8.85824 0.50221 30.0766 0.51068L56.9732 0.52762L57.4176 0.722428Z" fill="#164C82"/>
<path d="M29.2874 3.28035C28.2605 3.97489 28.7663 5.75358 29.954 5.62653C30.7893 5.53336 31.2567 4.60166 30.8659 3.79702C30.5517 3.1533 29.8314 2.91614 29.2874 3.28035ZM30.4598 3.61915C31.2184 4.40686 30.4215 5.76205 29.4866 5.27926C28.8429 4.94046 28.7893 3.87325 29.41 3.4921C29.6935 3.31423 30.2299 3.37352 30.4598 3.61915Z" fill="#164C82"/>
<path d="M3.86973 8.80275C3.84675 8.86204 3.83908 25.641 3.84675 46.0959L3.86973 83.279H29.8084H55.7471V46.0112V8.74346L29.8237 8.71805C9.12644 8.70111 3.89272 8.71805 3.86973 8.80275ZM55.3256 46.0112V82.8131H29.8084H4.29119V46.0112V9.20931H29.8084H55.3256V46.0112Z" fill="#164C82"/>
<path d="M29.2107 85.6421C27.8927 86.1164 27.2874 87.768 27.9464 89.0894C28.3755 89.9702 29.1111 90.4022 30.0307 90.3345C30.6284 90.2836 31.0345 90.0719 31.4253 89.6145C31.8927 89.0809 31.9923 88.7929 31.9923 87.9798C31.9923 87.3784 31.9617 87.1921 31.8008 86.8533C31.3333 85.8369 30.1686 85.2948 29.2107 85.6421ZM30.7203 86.0232C32.0996 86.8025 32.1609 88.9454 30.8276 89.8178C30.5134 90.0211 30.3755 90.0549 29.8851 90.0549C29.2414 90.0549 28.8812 89.9025 28.4981 89.479C27.7165 88.615 27.7165 87.3191 28.4981 86.4552C29.1034 85.7861 29.9923 85.6167 30.7203 86.0232Z" fill="#164C82"/>
<path d="M29.1801 87.0565C29.0651 87.1243 29.0421 87.2683 29.0421 87.9205C29.0421 88.4202 29.0728 88.742 29.1341 88.8098C29.2567 88.9453 30.59 88.9453 30.7127 88.8098C30.8583 88.6489 30.8353 87.2598 30.682 87.0989C30.5441 86.9379 29.4023 86.9125 29.1801 87.0565ZM30.5594 87.9543L30.5824 88.6573H29.9234H29.272V87.9967C29.272 87.6325 29.295 87.3021 29.3257 87.2683C29.3563 87.2344 29.6399 87.2259 29.9617 87.2344L30.5364 87.2598L30.5594 87.9543Z" fill="#164C82"/>
</svg>
