<svg width="95" height="95" viewBox="0 0 95 95" fill="none" xmlns="http://www.w3.org/2000/svg">
<path fill-rule="evenodd" clip-rule="evenodd" d="M47.6192 0.00012207C38.8919 0.00012207 30.7069 2.33965 23.6555 6.4231L25.3181 9.30289C31.8784 5.51031 39.4892 3.32991 47.6192 3.32991V0.000286393L47.6192 0.00012207Z" fill="url(#paint0_linear)"/>
<path fill-rule="evenodd" clip-rule="evenodd" d="M23.8522 6.31046C16.5832 10.5197 10.5196 16.5834 6.31033 23.8525L9.19015 25.5152C13.1046 18.7444 18.7443 13.1044 25.515 9.19014L23.8524 6.31035L23.8522 6.31046Z" fill="url(#paint1_linear)"/>
<path fill-rule="evenodd" clip-rule="evenodd" d="M6.42292 23.6555C2.3395 30.707 0 38.8926 0 47.6194H3.32964C3.32964 39.4893 5.51008 31.8779 9.30257 25.3181L6.42275 23.6554L6.42292 23.6555Z" fill="url(#paint2_linear)"/>
<path fill-rule="evenodd" clip-rule="evenodd" d="M0 47.3824C0 56.1097 2.3395 64.2948 6.42292 71.3463L9.30274 69.6837C5.50997 63.1239 3.32981 55.5125 3.32981 47.3824H0.000164321H0Z" fill="url(#paint3_linear)"/>
<path fill-rule="evenodd" clip-rule="evenodd" d="M9.18989 69.4864L6.31007 71.149C10.5195 78.4182 16.5829 84.4818 23.8525 88.6911L25.5152 85.8113C18.7439 81.8938 13.1039 76.2565 9.18973 69.4852L9.18989 69.4864Z" fill="url(#paint4_linear)"/>
<path fill-rule="evenodd" clip-rule="evenodd" d="M25.3176 85.6972L23.6549 88.577C30.7064 92.6605 38.8919 95 47.6186 95V91.6703C39.4886 91.6703 31.8772 89.4898 25.3175 85.6974L25.3176 85.6972Z" fill="url(#paint5_linear)"/>
<path fill-rule="evenodd" clip-rule="evenodd" d="M69.6829 85.6972C63.1226 89.4898 55.5118 91.6702 47.3818 91.6702V94.9998C56.1091 94.9998 64.294 92.6603 71.3455 88.5768L69.6828 85.697L69.6829 85.6972Z" fill="url(#paint6_linear)"/>
<path fill-rule="evenodd" clip-rule="evenodd" d="M85.8132 69.4865C81.8958 76.2578 76.2563 81.895 69.4856 85.8126L71.1483 88.6924C78.4173 84.483 84.4809 78.4194 88.6902 71.1503L85.8104 69.4877L85.8132 69.4865Z" fill="url(#paint7_linear)"/>
<path fill-rule="evenodd" clip-rule="evenodd" d="M91.6702 47.3824C91.6702 55.5125 89.4898 63.1239 85.6973 69.6837L88.5771 71.3463C92.6605 64.2948 95 56.1092 95 47.3824H91.6704H91.6702Z" fill="url(#paint8_linear)"/>
<path fill-rule="evenodd" clip-rule="evenodd" d="M88.5769 23.6555L85.6972 25.3182C89.4896 31.8779 91.6701 39.4894 91.6701 47.6195H94.9997C94.9997 38.8921 92.6603 30.7071 88.5768 23.6555L88.5769 23.6555Z" fill="url(#paint9_linear)"/>
<path fill-rule="evenodd" clip-rule="evenodd" d="M71.1482 6.31049L69.4856 9.19028C76.2563 13.1047 81.8963 18.7445 85.8104 25.5153L88.6902 23.8526C84.4815 16.5835 78.4152 10.5199 71.1461 6.3106L71.1482 6.31049Z" fill="url(#paint10_linear)"/>
<path fill-rule="evenodd" clip-rule="evenodd" d="M47.3818 0.000133805V3.32975C55.5118 3.32975 63.1232 5.51032 69.6829 9.30274L71.3455 6.42295C64.2941 2.33949 56.1086 -3.05176e-05 47.3818 -3.05176e-05L47.3818 0.000133805Z" fill="url(#paint11_linear)"/>
<path d="M42.6469 79.3387C40.5259 80.6081 38.2931 79.7056 35.5752 79.4488C32.9691 79.1993 27.5745 75.2589 26.0285 73.2726C24.2682 71.0111 24.0084 68.6205 24 66.756C24.1639 64.2979 26.4791 61.1016 30.2218 61.3591C32.12 61.4912 33.202 60.0662 34.2696 59.0089C35.6626 57.6294 36.2662 57.1546 37.2885 55.8889C38.4015 54.5116 40.2401 53.0558 38.1594 51.4789C36.4411 50.1765 37.2658 47.97 38.6218 46.5084C39.7584 45.283 38.2746 44.4876 38.0115 43.3025C37.6407 41.6295 38.5478 39.7467 40.2846 38.9102C42.1349 38.0194 43.8163 37.9996 45.4674 36.656C46.0096 34.9552 45.3455 31.4903 45.0479 29.6038C44.7444 27.6798 43.8751 25.921 43.4119 24.0543C42.8983 21.9894 42.4737 19.1996 43.8381 17.4826C45.1134 15.8779 48.023 15.6673 49.8599 16.4135C52.0919 17.3212 53.8598 18.1731 55.1334 19.7441C56.4104 21.3188 58.3431 23.7241 57.9774 25.7603C57.3822 29.0718 54.8316 32.2241 55.3494 34.5076L55.4781 34.9449C56.6037 34.8979 57.4562 35.0307 58.5684 35.4908L61.5553 35.7506C63.3064 35.7887 65.0853 37.3084 65.9595 38.5411C67.229 40.3315 67.8351 42.8468 67.4711 45.3248C67.9654 45.9228 68.7262 46.898 68.9011 48.2936C69.2474 51.0592 68.7186 54.1601 66.7708 55.362C67.2651 56.8171 66.606 58.7667 65.2349 59.9598C66.4682 60.8499 66.9457 62.4605 65.5577 64.4615C64.7616 65.6084 63.6755 66.1939 61.9445 66.7839C60.9895 67.1089 58.792 67.7077 56.5894 67.8412C55.7975 68.8164 53.3049 70.2421 52.3382 70.8761C50.5366 71.9922 49.052 71.607 47.2521 72.3708C43.7953 73.8383 46.0197 77.3135 42.6469 79.3387V79.3387Z" fill="white"/>
<path d="M42.6469 79.3387C40.5259 80.6081 38.2931 79.7056 35.5752 79.4488C32.9691 79.1993 27.5745 75.2589 26.0285 73.2726C24.2682 71.0111 24.0084 68.6205 24 66.756C24.1639 64.2979 26.4791 61.1016 30.2218 61.3591C32.12 61.4912 33.202 60.0662 34.2696 59.0089C35.6626 57.6294 36.2662 57.1546 37.2885 55.8889C38.4015 54.5116 40.2401 53.0558 38.1594 51.4789C36.4411 50.1765 37.2658 47.97 38.6218 46.5084C39.7584 45.283 38.2746 44.4876 38.0115 43.3025C37.6407 41.6295 38.5478 39.7467 40.2846 38.9102C42.1349 38.0194 43.8163 37.9996 45.4674 36.656C46.0096 34.9552 45.3455 31.4903 45.0479 29.6038C44.7444 27.6798 43.8751 25.921 43.4119 24.0543C42.8983 21.9894 42.4737 19.1996 43.8381 17.4826C45.1134 15.8779 48.023 15.6673 49.8599 16.4135C52.0919 17.3212 53.8598 18.1731 55.1334 19.7441C56.4104 21.3188 58.3431 23.7241 57.9774 25.7603C57.3822 29.0718 54.8316 32.2241 55.3494 34.5076C54.1019 32.6511 56.8215 28.4459 57.0594 25.9158C57.2805 23.5377 55.6437 21.6622 54.3818 20.1822C53.5706 19.2312 51.7035 17.9434 49.9229 17.3322C48.4669 16.8318 46.4955 16.2814 44.8932 17.8554C43.4346 19.2048 43.8995 22.2419 44.3753 23.8437C45.0361 26.0648 45.8196 28.2096 46.187 30.8548C46.4232 32.5609 46.5207 34.8488 46.3206 36.656C47.1479 36.9774 49.9431 35.9567 51.5471 35.6596C53.7295 35.2545 56.386 34.3131 58.5684 35.4908C55.4133 35.2604 53.0284 35.9105 50.2575 36.6069C48.192 37.1264 46.166 37.8 44.1315 38.3745C42.5713 38.9388 40.7663 39.4752 39.6676 40.5582C38.6815 41.5305 38.299 42.5952 39.5978 43.7017C41.3313 45.178 39.2775 46.9039 38.2611 48.0757C36.895 49.6489 39.2229 50.8963 40.188 51.9984C41.243 53.2018 40.4494 55.2043 39.7601 56.605C39.0455 58.0557 40.2863 58.0601 41.3035 59.769C41.8895 60.7545 40.7394 62.0151 41.4036 62.9822C39.4709 62.6366 41.0042 60.3539 40.2518 59.7551C38.2275 58.1437 38.5739 57.9581 39.5675 55.6805C40.1829 54.2694 40.1325 53.7617 39.8761 53.5533C39.1464 55.0223 36.0258 57.9735 34.8463 59.2613C33.7039 60.5087 31.9738 61.8478 30.2151 61.7708C26.5514 61.6093 25.0744 65.0133 25.1416 66.7751C25.1963 68.1744 25.9024 70.4168 27.4039 72.1096C28.4278 73.2638 33.6938 77.3575 35.8123 77.4896C38.0737 77.629 40.6764 77.4382 41.7373 75.5304C42.731 74.4628 43.5885 72.8918 44.9672 72.1081C46.5199 71.2269 43.0715 71.5277 42.9672 70.6846C44.0903 71.0031 49.4631 71.3883 51.5269 70.2267C52.7518 69.537 53.9102 68.8399 55.0174 67.8589C52.6215 68.126 49.2958 68.2727 47.1025 67.5984C48.8216 67.6894 50.3029 67.4986 51.0906 67.4259C52.8199 67.2667 54.7299 66.8382 56.1388 66.4023C57.737 65.9092 58.048 65.7074 59.0711 65.1784C58.9399 65.7661 58.6213 66.373 58.1153 66.7802C59.8538 66.3627 63.5931 65.2885 64.6136 63.9831C65.6056 62.7129 65.6939 61.3481 64.1033 60.2313C63.5283 59.852 63.3493 59.0727 64.2622 59.4366C64.5573 59.105 65.2727 57.9684 65.4425 57.1862C65.7981 55.5513 65.0079 52.7777 63.4308 51.6418C64.4497 51.9926 65.8772 53.3317 66.4337 54.0809C67.9091 52.7527 68.3454 50.445 68.0049 48.2459C67.5619 45.3908 66.4177 44.5903 63.7158 43.1822C65.3248 43.4141 66.0823 43.9013 66.7397 44.4538C66.9599 42.5798 66.1697 40.6147 65.166 38.9725C64.4363 37.7802 63.055 36.5746 61.5553 35.7506C63.3064 35.7887 65.0853 37.3084 65.9595 38.5411C67.229 40.3315 67.8351 42.8468 67.4711 45.3248C67.9654 45.9228 68.7262 46.898 68.9011 48.2936C69.2474 51.0592 68.7186 54.1601 66.7708 55.362C67.2651 56.8171 66.606 58.7667 65.2349 59.9598C66.4682 60.8499 66.9457 62.4605 65.5577 64.4615C64.7616 65.6084 63.6755 66.1939 61.9445 66.7839C60.9895 67.1089 58.792 67.7077 56.5894 67.8412C55.7975 68.8164 53.3049 70.2421 52.3382 70.8761C50.5366 71.9922 49.052 71.607 47.2521 72.3708C43.7953 73.8383 46.0197 77.3135 42.6469 79.3387V79.3387ZM36.9236 72.7597C38.1754 71.5923 40.0375 70.4623 39.5289 68.5332C39.0421 67.2249 40.6251 64.4652 40.2981 67.3232C40.8445 68.7753 41.8222 70.4124 39.7432 71.2973C39.1262 71.8586 37.9013 73.219 36.9236 72.7597V72.7597ZM45.0975 66.9226C44.0323 66.7589 41.7768 65.5761 42.2871 64.4336C42.7175 65.2011 45.3909 65.6033 45.0975 66.9226V66.9226ZM52.0414 60.8088C51.0822 60.6415 48.4425 58.8716 49.7623 58.6647C51.706 59.1299 53.8472 60.0376 55.9564 59.557C58.0623 59.0771 60.6297 58.675 62.5733 59.4293C60.5204 59.6722 59.119 60.1066 57.135 60.4287C55.5327 60.6892 53.7143 61.0994 52.0414 60.8088V60.8088ZM62.6196 56.7716C63.24 55.4046 61.441 52.9164 62.4111 52.4974C62.8877 53.8314 64.8986 55.2182 63.377 56.415C63.298 56.594 62.8726 57.2449 62.6196 56.7716ZM47.6918 52.4387C45.6691 51.0519 46.1945 50.7011 47.395 50.9565C48.6712 51.2272 51.8153 51.3696 52.7291 51.181C54.7744 50.7591 58.9467 49.9996 60.6499 51.3446C58.8601 51.0863 55.473 51.8385 53.2427 52.1562C51.9977 52.333 48.6812 53.1174 47.6918 52.4387V52.4387ZM61.594 49.7993C63.3476 48.7764 61.5006 45.3879 63.1652 44.9807C63.7982 46.5223 64.2984 49.7149 61.7049 49.9072L61.594 49.7993ZM46.6208 44.8442C44.773 44.1508 44.8158 43.2504 47.2059 43.4441C50.16 43.6841 53.2772 43.045 56.0951 42.7294C57.9253 42.5255 61.087 42.2026 62.3539 42.885C60.0765 43.2372 57.6941 43.2754 55.5218 43.8595C53.0073 44.5345 47.0041 44.988 46.6208 44.8442V44.8442ZM60.8508 36.6824C61.9832 37.6231 63.3879 39.2088 62.1757 40.589C62.3371 39.0723 60.6768 37.9937 60.8508 36.6824ZM47.5808 30.5041C48.3769 28.834 51.7144 29.5898 53.6841 29.5275C55.2612 30.813 52.3045 30.1974 51.4361 30.3507C50.2743 30.1504 48.4013 31.6136 47.5808 30.5041Z" fill="#0A1577"/>
<defs>
<linearGradient id="paint0_linear" x1="25.3334" y1="9.30265" x2="47.6417" y2="3.32998" gradientUnits="userSpaceOnUse">
<stop stop-color="#FF0179"/>
<stop offset="1" stop-color="#FF0000"/>
</linearGradient>
<linearGradient id="paint1_linear" x1="8.96131" y1="25.3853" x2="25.4984" y2="9.19017" gradientUnits="userSpaceOnUse">
<stop stop-color="#FF00FC"/>
<stop offset="1" stop-color="#FF0078"/>
</linearGradient>
<linearGradient id="paint2_linear" x1="3.35486" y1="47.6197" x2="9.12626" y2="25.1881" gradientUnits="userSpaceOnUse">
<stop stop-color="#8400FF"/>
<stop offset="1" stop-color="#FF00FC"/>
</linearGradient>
<linearGradient id="paint3_linear" x1="3.35486" y1="47.3823" x2="9.34824" y2="69.6836" gradientUnits="userSpaceOnUse">
<stop stop-color="#8400FF"/>
<stop offset="1" stop-color="#0600FF"/>
</linearGradient>
<linearGradient id="paint4_linear" x1="9.1833" y1="69.4863" x2="25.4985" y2="85.8113" gradientUnits="userSpaceOnUse">
<stop stop-color="#0600FF"/>
<stop offset="1" stop-color="#007EFF"/>
</linearGradient>
<linearGradient id="paint5_linear" x1="25.3334" y1="85.6988" x2="47.6417" y2="91.6721" gradientUnits="userSpaceOnUse">
<stop stop-color="#007EFF"/>
<stop offset="1" stop-color="#00FCFF"/>
</linearGradient>
<linearGradient id="paint6_linear" x1="47.4219" y1="91.6721" x2="69.7302" y2="85.6989" gradientUnits="userSpaceOnUse">
<stop stop-color="#00FCFF"/>
<stop offset="1" stop-color="#00FF84"/>
</linearGradient>
<linearGradient id="paint7_linear" x1="69.5104" y1="85.8114" x2="85.8255" y2="69.4865" gradientUnits="userSpaceOnUse">
<stop stop-color="#00FF84"/>
<stop offset="1" stop-color="#00FF00"/>
</linearGradient>
<linearGradient id="paint8_linear" x1="85.7155" y1="69.6836" x2="91.6533" y2="47.3824" gradientUnits="userSpaceOnUse">
<stop stop-color="#00FF00"/>
<stop offset="1" stop-color="#7EFF00"/>
</linearGradient>
<linearGradient id="paint9_linear" x1="85.7155" y1="25.3179" x2="91.6533" y2="47.6196" gradientUnits="userSpaceOnUse">
<stop stop-color="#FCFF00"/>
<stop offset="1" stop-color="#7EFF00"/>
</linearGradient>
<linearGradient id="paint10_linear" x1="69.5104" y1="9.19003" x2="85.8255" y2="25.515" gradientUnits="userSpaceOnUse">
<stop stop-color="#FF7E00"/>
<stop offset="1" stop-color="#FCFF00"/>
</linearGradient>
<linearGradient id="paint11_linear" x1="47.4219" y1="3.32987" x2="69.7302" y2="9.30255" gradientUnits="userSpaceOnUse">
<stop stop-color="#FF0000"/>
<stop offset="1" stop-color="#FF7E00"/>
</linearGradient>
</defs>
</svg>
