<svg width="134" height="100" viewBox="0 0 134 100" fill="none" xmlns="http://www.w3.org/2000/svg">
<path d="M53.3346 69.6299C52.8278 69.6231 52.3051 69.7372 51.7204 69.899C49.3815 70.5463 47.4393 72.3818 47.4393 73.9893C47.4393 74.994 48.2072 75.6613 49.3343 75.873L61.7003 81.3338L68.6486 76.0595L54.8088 70.0068L54.7386 69.9531C54.3394 69.7742 53.8773 69.6379 53.335 69.6302L53.3346 69.6299Z" fill="url(#paint0_linear)" stroke="#0D2887" stroke-width="0.5" stroke-linecap="round" stroke-linejoin="round"/>
<path d="M68.9344 77.2006C68.9344 78.8089 67.0374 80.6378 64.6974 81.2854C62.3573 81.9329 60.4603 81.154 60.4603 79.5457C60.4603 77.9373 62.3573 76.1085 64.6974 75.4609C67.0374 74.8134 68.9344 75.5922 68.9344 77.2006Z" fill="#173D87" stroke="#0D2887" stroke-width="0.51554" stroke-linecap="round" stroke-linejoin="round"/>
<path d="M10.7224 49.4914C13.681 48.0905 18.2737 49.6801 20.9805 53.0417C23.6874 56.4034 23.4833 60.264 20.5247 61.6649C17.5662 63.0658 12.9733 61.4762 10.2666 58.1146C7.55964 54.7529 7.76378 50.8922 10.7224 49.4914Z" fill="#CC0000"/>
<path fill-rule="evenodd" clip-rule="evenodd" d="M13.1784 48.9824C12.2894 48.9773 11.4548 49.1392 10.7156 49.4891L5.70347 51.7001L14.8215 64.2063L21.1376 61.3043C23.4901 59.6829 23.4901 56.1439 20.9874 53.036C18.9582 50.516 15.8452 48.9965 13.1785 48.9824H13.1784Z" fill="url(#paint1_linear)" stroke="#0D2887" stroke-width="0.21397"/>
<path d="M5.35699 51.868C8.31559 50.4672 12.9083 52.0567 15.6151 55.4183C18.322 58.78 18.1179 62.6407 15.1593 64.0416C12.2008 65.4424 7.60795 63.8528 4.90116 60.4913C2.19425 57.1296 2.39839 53.2689 5.35699 51.868Z" fill="#173D87" stroke="#0D2887" stroke-width="0.213972" stroke-linejoin="bevel"/>
<path d="M7.57343 54.3233C9.18999 53.5578 11.6995 54.4263 13.1785 56.2631C14.6576 58.0999 14.5461 60.2094 12.9295 60.9748C11.313 61.7402 8.80349 60.8717 7.32447 59.035C5.84538 57.1982 5.95688 55.0887 7.57343 54.3233Z" fill="#0F67CE"/>
<path d="M24.9837 56.5679C27.9423 55.1671 32.535 56.7567 35.2418 60.1182C37.9487 63.4799 37.7446 67.3406 34.786 68.7415C31.8275 70.1423 27.2346 68.5528 24.5278 65.1912C21.8209 61.8295 22.0251 57.9688 24.9837 56.5679Z" fill="#CC0000"/>
<path fill-rule="evenodd" clip-rule="evenodd" d="M27.4397 56.059C26.5507 56.0538 25.7161 56.2157 24.9769 56.5657L19.9648 58.7766L29.0828 71.2828L35.3989 68.3809C37.7514 66.7594 37.7514 63.2204 35.2487 60.1125C33.2195 57.5926 30.1065 56.0731 27.4398 56.059H27.4397Z" fill="url(#paint2_linear)" stroke="#0D2887" stroke-width="0.21397"/>
<path d="M19.6183 58.9446C22.5769 57.5437 27.1696 59.1333 29.8764 62.4949C32.5833 65.8566 32.3792 69.7173 29.4206 71.1181C26.4621 72.519 21.8692 70.9294 19.1625 67.5679C16.4555 64.2061 16.6597 60.3455 19.6183 58.9446Z" fill="#173D87" stroke="#0D2887" stroke-width="0.213972" stroke-linejoin="bevel"/>
<path d="M21.8347 61.3998C23.4513 60.6344 25.9608 61.5029 27.4398 63.3396C28.9189 65.1765 28.8074 67.2859 27.1908 68.0514C25.5743 68.8168 23.0648 67.9483 21.5858 66.1116C20.1067 64.2748 20.2182 62.1653 21.8347 61.3998Z" fill="#0F67CE"/>
<path fill-rule="evenodd" clip-rule="evenodd" d="M37.2205 33.5153L2.76205 48.7711L71.6789 79.2834L106.137 64.0276L37.2205 33.5153Z" fill="#173D87" stroke="#0D2887" stroke-width="0.5" stroke-linecap="round" stroke-linejoin="bevel"/>
<path fill-rule="evenodd" clip-rule="evenodd" d="M5.56939 46.9829L74.4862 77.4953V46.9829L5.56939 16.4706V46.9829Z" fill="#0F67CE" stroke="#0D2887" stroke-width="0.5" stroke-linejoin="bevel"/>
<path fill-rule="evenodd" clip-rule="evenodd" d="M108.664 62.035L74.2055 77.2909V46.7785L108.664 31.5227V62.035Z" fill="#888A85" stroke="#0D2887" stroke-width="0.5" stroke-linecap="round" stroke-linejoin="bevel"/>
<path fill-rule="evenodd" clip-rule="evenodd" d="M39.7471 1L5.28866 16.2558L74.2055 46.7682L108.664 31.5123L39.7471 1Z" fill="#133EAC" stroke="#0D2887" stroke-width="0.5" stroke-linecap="round" stroke-linejoin="bevel"/>
<path d="M76.1896 80.9182C79.1482 79.5173 83.741 81.1069 86.4477 84.4685C89.1547 87.8302 88.9505 91.6908 85.9919 93.0917C83.0334 94.4926 78.4406 92.903 75.7338 89.5414C73.0269 86.1797 73.231 82.3191 76.1896 80.9182Z" fill="#CC0000"/>
<path fill-rule="evenodd" clip-rule="evenodd" d="M78.6456 80.4092C77.7567 80.4041 76.9221 80.566 76.1828 80.9159L71.1707 83.1269L80.2887 95.6331L86.6048 92.7311C88.9573 91.1097 88.9573 87.5707 86.4546 84.4628C84.4254 81.9429 81.3124 80.4234 78.6457 80.4092H78.6456Z" fill="url(#paint3_linear)" stroke="#0D2887" stroke-width="0.21397"/>
<path d="M70.8242 83.2948C73.7828 81.894 78.3756 83.4836 81.0823 86.8451C83.7893 90.2068 83.5851 94.0675 80.6265 95.4684C77.668 96.8692 73.0752 95.2797 70.3684 91.9181C67.6615 88.5564 67.8656 84.6957 70.8242 83.2948Z" fill="#173D87" stroke="#0D2887" stroke-width="0.213972" stroke-linejoin="bevel"/>
<path d="M73.0407 85.7501C74.6572 84.9846 77.1667 85.8532 78.6457 87.6899C80.1248 89.5267 80.0133 91.6362 78.3968 92.4016C76.7802 93.1671 74.2707 92.2986 72.7917 90.4618C71.3126 88.625 71.4241 86.5155 73.0407 85.7501Z" fill="#0F67CE"/>
<path fill-rule="evenodd" clip-rule="evenodd" d="M83.4877 86.3353C85.5073 88.8434 86.2102 91.5495 85.6634 93.7085L99.1386 99.6824V69.1667L76.75 59.4792L76.9007 78.3701C77.8722 80.2711 77.8269 82.5646 83.4876 86.3353H83.4877Z" fill="#888A85" stroke="#0D2887" stroke-width="0.5" stroke-linejoin="bevel"/>
<path fill-rule="evenodd" clip-rule="evenodd" d="M133.616 84.4065V53.8941L99.1572 69.15V99.6623L133.616 84.4065Z" fill="#173D87" stroke="#0D2887" stroke-width="0.5" stroke-linejoin="bevel"/>
<path fill-rule="evenodd" clip-rule="evenodd" d="M133.714 65.4105L133.615 53.891L99.1567 69.1469L99.256 80.6664L133.714 65.4105Z" fill="#729FCF" stroke="#0D2887" stroke-width="0.5" stroke-linejoin="bevel"/>
<path fill-rule="evenodd" clip-rule="evenodd" d="M96.8911 70.3188L79.5925 62.8917L79.8041 71.6417L96.6827 80.5043L96.8911 70.3187V70.3188Z" fill="#729FCF" stroke="#0D2887" stroke-width="0.5"/>
<path fill-rule="evenodd" clip-rule="evenodd" d="M111.507 44.3479L77.0488 59.6038L99.0505 69.3446L133.509 54.0887L111.507 44.3479Z" fill="#0F67CE" stroke="#0D2887" stroke-width="0.5" stroke-linejoin="bevel"/>
<path d="M110.101 91.3451C110.101 92.9534 108.204 94.7823 105.864 95.4299C103.524 96.0774 101.627 95.2985 101.627 93.6902C101.627 92.0818 103.524 90.253 105.864 89.6054C108.204 88.9579 110.101 89.7368 110.101 91.3451Z" fill="#0F67CE"/>
<path d="M108.71 91.7316C108.71 92.8125 107.435 94.0416 105.862 94.4767C104.29 94.9119 103.015 94.3885 103.015 93.3076C103.015 92.2268 104.29 90.9977 105.862 90.5625C107.435 90.1274 108.71 90.6508 108.71 91.7316Z" fill="#133EAC"/>
<path d="M105.709 91.8071C105.709 92.1664 105.285 92.5749 104.763 92.7195C104.24 92.8641 103.816 92.6902 103.816 92.3309C103.816 91.9717 104.24 91.5632 104.763 91.4186C105.285 91.2739 105.709 91.4479 105.709 91.8071Z" fill="#CED4DE"/>
<path d="M132.942 80.9602C132.942 82.5685 131.045 84.3974 128.705 85.045C126.365 85.6925 124.468 84.9136 124.468 83.3053C124.468 81.6969 126.365 79.8681 128.705 79.2205C131.045 78.573 132.942 79.3519 132.942 80.9602Z" fill="#0F67CE"/>
<path d="M131.55 81.3467C131.55 82.4276 130.275 83.6566 128.703 84.0918C127.13 84.527 125.855 84.0036 125.855 82.9227C125.855 81.8419 127.13 80.6128 128.703 80.1776C130.275 79.7424 131.55 80.2659 131.55 81.3467Z" fill="#133EAC"/>
<path d="M128.55 81.4222C128.55 81.7815 128.126 82.1899 127.603 82.3346C127.081 82.4792 126.657 82.3052 126.657 81.946C126.657 81.5868 127.081 81.1783 127.603 81.0336C128.126 80.889 128.55 81.063 128.55 81.4222Z" fill="#CED4DE"/>
<path d="M104.955 87.1879C104.955 87.9 104.115 88.7097 103.079 88.9965C102.043 89.2832 101.203 88.9383 101.203 88.2262C101.203 87.5141 102.043 86.7043 103.079 86.4176C104.115 86.1309 104.955 86.4758 104.955 87.1879Z" fill="#0F67CE"/>
<path d="M104.339 87.359C104.339 87.8376 103.774 88.3818 103.078 88.5745C102.382 88.7671 101.817 88.5354 101.817 88.0568C101.817 87.5783 102.382 87.0341 103.078 86.8414C103.774 86.6487 104.339 86.8805 104.339 87.359Z" fill="#F57900"/>
<path d="M103.01 87.3924C103.01 87.5515 102.823 87.7324 102.591 87.7964C102.36 87.8604 102.172 87.7834 102.172 87.6244C102.172 87.4653 102.36 87.2844 102.591 87.2204C102.823 87.1564 103.01 87.2334 103.01 87.3924Z" fill="#CED4DE"/>
<path d="M132.285 76.3035C132.285 77.0156 131.445 77.8254 130.409 78.1121C129.373 78.3988 128.533 78.0539 128.533 77.3418C128.533 76.6297 129.373 75.82 130.409 75.5333C131.445 75.2466 132.285 75.5914 132.285 76.3035Z" fill="#0F67CE"/>
<path d="M131.669 76.4747C131.669 76.9532 131.104 77.4974 130.408 77.6901C129.712 77.8828 129.147 77.651 129.147 77.1725C129.147 76.6939 129.712 76.1497 130.408 75.957C131.104 75.7644 131.669 75.9961 131.669 76.4747Z" fill="#F57900"/>
<path d="M130.34 76.5081C130.34 76.6671 130.153 76.848 129.921 76.912C129.69 76.9761 129.502 76.8991 129.502 76.74C129.502 76.5809 129.69 76.4001 129.921 76.336C130.153 76.272 130.34 76.349 130.34 76.5081Z" fill="#CED4DE"/>
<path fill-rule="evenodd" clip-rule="evenodd" d="M109.216 75.5199L111.232 74.7423L122.697 59.74L118.912 61.416L109.217 75.5198L109.216 75.5199Z" fill="#CED4DE"/>
<path fill-rule="evenodd" clip-rule="evenodd" d="M113.623 73.6771L115.639 72.8996L127.103 57.8973L123.318 59.5732L113.623 73.6771L113.623 73.6771Z" fill="#CED4DE"/>
<path d="M7.98372 47.7131V17.4626" stroke="#0D2887" stroke-width="0.5"/>
<path fill-rule="evenodd" clip-rule="evenodd" d="M8.54968 48.1953V17.9448V48.1953Z" fill="#133EAC"/>
<path d="M8.54968 48.1953V17.9448" stroke="#133EAC" stroke-width="0.5"/>
<path d="M14.3126 50.8337V20.5832" stroke="#0D2887" stroke-width="0.5"/>
<path fill-rule="evenodd" clip-rule="evenodd" d="M14.8785 51.3159V21.0654V51.3159Z" fill="#133EAC"/>
<path d="M14.8785 51.3159V21.0654" stroke="#133EAC" stroke-width="0.5"/>
<path d="M21.7689 53.8011V23.5506" stroke="#0D2887" stroke-width="0.5"/>
<path fill-rule="evenodd" clip-rule="evenodd" d="M22.3348 54.2833V24.0328V54.2833Z" fill="#133EAC"/>
<path d="M22.3348 54.2833V24.0328" stroke="#133EAC" stroke-width="0.5"/>
<path d="M28.0955 56.7702V26.5197" stroke="#0D2887" stroke-width="0.5"/>
<path fill-rule="evenodd" clip-rule="evenodd" d="M28.6614 57.2524V27.0019V57.2524Z" fill="#133EAC"/>
<path d="M28.6614 57.2524V27.0019" stroke="#133EAC" stroke-width="0.5"/>
<path d="M34.4221 59.8908V29.6403" stroke="#0D2887" stroke-width="0.5"/>
<path fill-rule="evenodd" clip-rule="evenodd" d="M34.9881 60.373V30.1225V60.373Z" fill="#133EAC"/>
<path d="M34.9881 60.373V30.1225" stroke="#133EAC" stroke-width="0.5"/>
<path d="M41.8784 62.8582V32.6077" stroke="#0D2887" stroke-width="0.5"/>
<path fill-rule="evenodd" clip-rule="evenodd" d="M42.4444 63.3404V33.0899V63.3404Z" fill="#133EAC"/>
<path d="M42.4444 63.3404V33.0899" stroke="#133EAC" stroke-width="0.5"/>
<path d="M48.7688 66.1321V35.8816" stroke="#0D2887" stroke-width="0.5"/>
<path fill-rule="evenodd" clip-rule="evenodd" d="M49.3347 66.6143V36.3638V66.6143Z" fill="#133EAC"/>
<path d="M49.3347 66.6143V36.3638" stroke="#133EAC" stroke-width="0.5"/>
<path d="M55.0976 69.2528V39.0022" stroke="#0D2887" stroke-width="0.5"/>
<path fill-rule="evenodd" clip-rule="evenodd" d="M55.6636 69.735V39.4845V69.735Z" fill="#133EAC"/>
<path d="M55.6636 69.735V39.4845" stroke="#133EAC" stroke-width="0.5"/>
<path d="M62.5539 72.2201V41.9696" stroke="#0D2887" stroke-width="0.5"/>
<path fill-rule="evenodd" clip-rule="evenodd" d="M63.1199 72.7023V42.4518V72.7023Z" fill="#133EAC"/>
<path d="M63.1199 72.7023V42.4518" stroke="#133EAC" stroke-width="0.5"/>
<path d="M69.4443 75.1892V44.9387" stroke="#0D2887" stroke-width="0.5"/>
<path fill-rule="evenodd" clip-rule="evenodd" d="M70.0102 75.6714V45.4209V75.6714Z" fill="#133EAC"/>
<path d="M70.0102 75.6714V45.4209" stroke="#133EAC" stroke-width="0.5"/>
<defs>
<linearGradient id="paint0_linear" x1="57.0908" y1="74.2007" x2="55.2234" y2="77.6362" gradientUnits="userSpaceOnUse">
<stop stop-color="#D3D7CF"/>
<stop offset="1" stop-color="#888A85"/>
</linearGradient>
<linearGradient id="paint1_linear" x1="13.1812" y1="48.9783" x2="18.8273" y2="59.7513" gradientUnits="userSpaceOnUse">
<stop stop-color="#D3D7CF"/>
<stop offset="1"/>
</linearGradient>
<linearGradient id="paint2_linear" x1="27.4425" y1="56.0549" x2="33.0886" y2="66.8279" gradientUnits="userSpaceOnUse">
<stop stop-color="#D3D7CF"/>
<stop offset="1"/>
</linearGradient>
<linearGradient id="paint3_linear" x1="78.6484" y1="80.4051" x2="84.2946" y2="91.1781" gradientUnits="userSpaceOnUse">
<stop stop-color="#D3D7CF"/>
<stop offset="1"/>
</linearGradient>
</defs>
</svg>
