<svg width="169" height="87" viewBox="0 0 169 87" fill="none" xmlns="http://www.w3.org/2000/svg">
<path d="M133 87C130.033 87 127.133 86.2376 124.666 84.8091C122.2 83.3806 120.277 81.3503 119.142 78.9749C118.006 76.5994 117.709 73.9856 118.288 71.4638C118.867 68.9421 120.296 66.6257 122.393 64.8076C124.491 62.9895 127.164 61.7514 130.074 61.2498C132.983 60.7482 135.999 61.0056 138.74 61.9896C141.481 62.9735 143.824 64.6398 145.472 66.7776C147.12 68.9154 148 71.4288 148 74C147.994 77.4463 146.412 80.75 143.6 83.1869C140.788 85.6238 136.976 86.995 133 87ZM133 65.1936C130.99 65.1936 129.026 65.71 127.355 66.6777C125.684 67.6454 124.381 69.0208 123.612 70.6299C122.843 72.2391 122.642 74.0098 123.034 75.7181C123.426 77.4263 124.394 78.9955 125.815 80.2271C127.236 81.4587 129.047 82.2974 131.018 82.6372C132.989 82.977 135.032 82.8026 136.889 82.1361C138.745 81.4696 140.332 80.3408 141.449 78.8926C142.565 77.4444 143.161 75.7418 143.161 74C143.159 71.6641 142.089 69.4243 140.184 67.7718C138.279 66.1193 135.695 65.189 133 65.1852V65.1936Z" fill="#162E85" fill-opacity="0.89"/>
<path d="M120.563 76H48.4367C47.7905 76 47.1707 75.7893 46.7137 75.4142C46.2567 75.0391 46 74.5304 46 74C46 73.4696 46.2567 72.9609 46.7137 72.5858C47.1707 72.2107 47.7905 72 48.4367 72H120.563C121.21 72 121.829 72.2107 122.286 72.5858C122.743 72.9609 123 73.4696 123 74C123 74.5304 122.743 75.0391 122.286 75.4142C121.829 75.7893 121.21 76 120.563 76Z" fill="#162E85" fill-opacity="0.89"/>
<path d="M161.757 76H145.34C144.7 76 144.086 75.7751 143.633 75.3747C143.18 74.9744 142.926 74.4314 142.926 73.8652C142.926 73.299 143.18 72.756 143.633 72.3556C144.086 71.9553 144.7 71.7303 145.34 71.7303H161.757C162.397 71.7303 163.012 71.5054 163.464 71.1051C163.917 70.7047 164.171 70.1617 164.171 69.5955V47.3079C164.165 45.8387 163.657 44.4055 162.714 43.1955C161.772 41.9855 160.439 41.055 158.889 40.5255L149.473 37.3467C149.107 37.2229 148.781 37.0222 148.522 36.7618L117.716 5.7854C117.242 5.30929 116.66 4.92785 116.006 4.66649C115.353 4.40513 114.645 4.26985 113.928 4.26966H7.24286C6.60255 4.26966 5.98847 4.49458 5.5357 4.89494C5.08293 5.2953 4.82857 5.8383 4.82857 6.4045V69.5955C4.82857 70.1617 5.08293 70.7047 5.5357 71.1051C5.98847 71.5054 6.60255 71.7303 7.24286 71.7303H23.66C24.3003 71.7303 24.9144 71.9553 25.3672 72.3556C25.8199 72.756 26.0743 73.299 26.0743 73.8652C26.0743 74.4314 25.8199 74.9744 25.3672 75.3747C24.9144 75.7751 24.3003 76 23.66 76H7.24286C5.32193 76 3.47968 75.3253 2.12138 74.1242C0.763085 72.9231 0 71.2941 0 69.5955V6.4045C0 4.70592 0.763085 3.07691 2.12138 1.87583C3.47968 0.674757 5.32193 0 7.24286 0H113.93C115.333 0.00144978 116.72 0.266575 117.998 0.777796C119.276 1.28902 120.417 2.03465 121.344 2.96528L151.764 33.5446L160.622 36.5334C163.082 37.3762 165.197 38.8551 166.692 40.7773C168.186 42.6994 168.991 44.9753 169 47.3079V69.5955C169 71.2941 168.237 72.9231 166.879 74.1242C165.52 75.3253 163.678 76 161.757 76V76Z" fill="#162E85" fill-opacity="0.89"/>
<path d="M36 87C33.0333 87 30.1332 86.2376 27.6665 84.8091C25.1997 83.3806 23.2771 81.3503 22.1418 78.9749C21.0065 76.5994 20.7094 73.9856 21.2882 71.4638C21.867 68.9421 23.2956 66.6257 25.3934 64.8076C27.4912 62.9895 30.1639 61.7514 33.0736 61.2498C35.9834 60.7482 38.9994 61.0056 41.7403 61.9896C44.4811 62.9735 46.8238 64.6398 48.472 66.7776C50.1203 68.9154 51 71.4288 51 74C50.9942 77.4463 49.412 80.75 46.6002 83.1869C43.7884 85.6238 39.9765 86.995 36 87V87ZM36 65.1936C33.9903 65.1936 32.0257 65.71 30.3547 66.6777C28.6837 67.6454 27.3813 69.0208 26.6122 70.6299C25.8431 72.2391 25.6419 74.0098 26.034 75.7181C26.426 77.4263 27.3938 78.9955 28.8149 80.2271C30.236 81.4587 32.0465 82.2974 34.0176 82.6372C35.9887 82.977 38.0318 82.8026 39.8886 82.1361C41.7453 81.4696 43.3323 80.3408 44.4488 78.8926C45.5653 77.4444 46.1613 75.7418 46.1613 74C46.1594 71.6641 45.0885 69.4243 43.1836 67.7718C41.2787 66.1193 38.6952 65.189 36 65.1852V65.1936Z" fill="#162E85" fill-opacity="0.89"/>
<path d="M135.531 37H99.4685C98.8138 37 98.186 36.7775 97.723 36.3816C97.2601 35.9856 97 35.4485 97 34.8885V11.1115C97 10.5515 97.2601 10.0144 97.723 9.61843C98.186 9.22246 98.8138 9 99.4685 9H111.386C111.74 9.00019 112.089 9.06533 112.411 9.19101C112.732 9.31668 113.019 9.49996 113.25 9.72845L137.395 33.5034C137.705 33.8092 137.907 34.1849 137.974 34.5858C138.042 34.9867 137.974 35.3959 137.778 35.7645C137.581 36.133 137.265 36.4455 136.866 36.6646C136.468 36.8837 136.004 37.0001 135.531 37V37ZM101.937 32.7771H130.117L110.261 13.2229H101.937V32.7771Z" fill="#162E85" fill-opacity="0.89"/>
<path d="M23 19.112C22.776 19.112 22.584 19.0373 22.424 18.888C22.2747 18.728 22.2 18.536 22.2 18.312V9.08C22.2 8.856 22.2747 8.66933 22.424 8.52C22.584 8.36 22.776 8.28 23 8.28H29.384C29.608 8.28 29.7947 8.36 29.944 8.52C30.0933 8.66933 30.168 8.856 30.168 9.08C30.168 9.29333 30.0933 9.48 29.944 9.64C29.7947 9.8 29.608 9.88 29.384 9.88H23.8V12.632H28.056C28.28 12.632 28.4667 12.712 28.616 12.872C28.7653 13.032 28.84 13.224 28.84 13.448C28.84 13.6613 28.7653 13.848 28.616 14.008C28.4667 14.1573 28.28 14.232 28.056 14.232H23.8V18.312C23.8 18.536 23.72 18.728 23.56 18.888C23.4107 19.0373 23.224 19.112 23 19.112ZM32.2009 19.096C31.9982 19.096 31.8169 19.0213 31.6569 18.872C31.4969 18.7227 31.4169 18.552 31.4169 18.36V11.88C31.4169 11.6667 31.4915 11.4853 31.6409 11.336C31.8009 11.1867 31.9875 11.112 32.2009 11.112C32.4142 11.112 32.5955 11.1867 32.7449 11.336C32.9049 11.4853 32.9849 11.6667 32.9849 11.88V12.36C33.5075 11.5067 34.2222 11.08 35.1289 11.08C35.6729 11.08 36.0622 11.2293 36.2969 11.528C36.5422 11.8267 36.6649 12.184 36.6649 12.6V13.08C36.6649 13.2933 36.5902 13.4747 36.4409 13.624C36.3022 13.7627 36.1262 13.832 35.9129 13.832C35.6569 13.832 35.4649 13.7573 35.3369 13.608C35.2195 13.4587 35.1609 13.2773 35.1609 13.064V12.856C35.1609 12.6853 35.0435 12.6 34.8089 12.6C34.6169 12.6 34.3929 12.696 34.1369 12.888C33.8915 13.08 33.6889 13.2827 33.5289 13.496C33.3049 13.7733 33.1555 14.0507 33.0809 14.328C33.0169 14.6053 32.9849 14.936 32.9849 15.32L32.9689 18.36C32.9689 18.552 32.8889 18.7227 32.7289 18.872C32.5689 19.0213 32.3929 19.096 32.2009 19.096ZM40.8416 19.096C40.0843 19.096 39.4016 18.936 38.7936 18.616C38.1963 18.2853 37.727 17.8213 37.3856 17.224C37.0443 16.616 36.8736 15.9013 36.8736 15.08C36.8736 14.408 37.023 13.768 37.3216 13.16C37.631 12.5413 38.0576 12.0453 38.6016 11.672C39.1563 11.2987 39.7856 11.112 40.4896 11.112C41.1403 11.112 41.695 11.2453 42.1536 11.512C42.623 11.768 42.975 12.0773 43.2096 12.44C43.4443 12.8027 43.5616 13.128 43.5616 13.416C43.5616 13.5547 43.519 13.688 43.4336 13.816C43.3483 13.944 43.2256 14.056 43.0656 14.152L38.7776 16.616C38.927 16.9467 39.1883 17.2027 39.5616 17.384C39.9456 17.5653 40.3723 17.656 40.8416 17.656C41.4603 17.656 41.9883 17.4267 42.4256 16.968C42.5963 16.7973 42.7723 16.712 42.9536 16.712C43.167 16.712 43.343 16.7813 43.4816 16.92C43.631 17.0587 43.7056 17.2293 43.7056 17.432C43.7056 17.6027 43.6416 17.7627 43.5136 17.912C43.215 18.2427 42.815 18.5253 42.3136 18.76C41.823 18.984 41.3323 19.096 40.8416 19.096ZM41.9776 13.224C41.8496 13 41.6683 12.8347 41.4336 12.728C41.199 12.6107 40.9216 12.552 40.6016 12.552C39.9936 12.552 39.4816 12.76 39.0656 13.176C38.6603 13.592 38.4256 14.104 38.3616 14.712C38.3403 14.872 38.3296 15.064 38.3296 15.288L41.9776 13.224ZM48.701 19.096C47.9437 19.096 47.261 18.936 46.653 18.616C46.0557 18.2853 45.5863 17.8213 45.245 17.224C44.9037 16.616 44.733 15.9013 44.733 15.08C44.733 14.408 44.8823 13.768 45.181 13.16C45.4903 12.5413 45.917 12.0453 46.461 11.672C47.0157 11.2987 47.645 11.112 48.349 11.112C48.9997 11.112 49.5543 11.2453 50.013 11.512C50.4823 11.768 50.8343 12.0773 51.069 12.44C51.3037 12.8027 51.421 13.128 51.421 13.416C51.421 13.5547 51.3783 13.688 51.293 13.816C51.2077 13.944 51.085 14.056 50.925 14.152L46.637 16.616C46.7863 16.9467 47.0477 17.2027 47.421 17.384C47.805 17.5653 48.2317 17.656 48.701 17.656C49.3197 17.656 49.8477 17.4267 50.285 16.968C50.4557 16.7973 50.6317 16.712 50.813 16.712C51.0263 16.712 51.2023 16.7813 51.341 16.92C51.4903 17.0587 51.565 17.2293 51.565 17.432C51.565 17.6027 51.501 17.7627 51.373 17.912C51.0743 18.2427 50.6743 18.5253 50.173 18.76C49.6823 18.984 49.1917 19.096 48.701 19.096ZM49.837 13.224C49.709 13 49.5277 12.8347 49.293 12.728C49.0583 12.6107 48.781 12.552 48.461 12.552C47.853 12.552 47.341 12.76 46.925 13.176C46.5197 13.592 46.285 14.104 46.221 14.712C46.1997 14.872 46.189 15.064 46.189 15.288L49.837 13.224ZM59.5755 19.096C59.3728 19.096 59.1915 19.0267 59.0315 18.888C58.8822 18.7387 58.8075 18.568 58.8075 18.376V9.096C58.8075 8.88267 58.8768 8.70667 59.0155 8.568C59.1648 8.41867 59.3515 8.344 59.5755 8.344C59.7782 8.344 59.9542 8.41867 60.1035 8.568C60.2635 8.71733 60.3435 8.89333 60.3435 9.096V18.376C60.3435 18.568 60.2635 18.7387 60.1035 18.888C59.9435 19.0267 59.7675 19.096 59.5755 19.096ZM65.3728 19.096C64.7648 19.096 64.2048 18.9307 63.6928 18.6C63.1914 18.2693 62.7968 17.8213 62.5088 17.256C62.2208 16.68 62.0768 16.056 62.0768 15.384C62.0768 14.6267 62.2474 13.9227 62.5888 13.272C62.9301 12.6107 63.3888 12.088 63.9648 11.704C64.5408 11.3093 65.1594 11.112 65.8208 11.112C66.4288 11.112 66.9834 11.2827 67.4848 11.624C67.9968 11.9653 68.3968 12.4187 68.6848 12.984C68.9834 13.5493 69.1328 14.1573 69.1328 14.808C69.1328 15.576 68.9621 16.2907 68.6208 16.952C68.2794 17.6027 67.8154 18.1253 67.2288 18.52C66.6528 18.904 66.0341 19.096 65.3728 19.096ZM65.3728 17.656C65.7461 17.656 66.1034 17.528 66.4448 17.272C66.7861 17.016 67.0581 16.6747 67.2608 16.248C67.4634 15.8213 67.5648 15.368 67.5648 14.888C67.5648 14.4827 67.4848 14.104 67.3248 13.752C67.1648 13.3893 66.9461 13.1013 66.6688 12.888C66.3914 12.664 66.0874 12.552 65.7568 12.552C65.3834 12.552 65.0314 12.6853 64.7008 12.952C64.3808 13.208 64.1248 13.5547 63.9328 13.992C63.7408 14.4187 63.6448 14.8773 63.6448 15.368C63.6448 15.848 63.7248 16.2587 63.8848 16.6C64.0554 16.9413 64.2688 17.2027 64.5248 17.384C64.7914 17.5653 65.0741 17.656 65.3728 17.656ZM73.8304 19.096C73.1904 19.096 72.6037 18.9413 72.0704 18.632C71.537 18.3227 71.1157 17.9013 70.8064 17.368C70.497 16.824 70.3424 16.232 70.3424 15.592C70.3424 14.8667 70.513 14.1573 70.8544 13.464C71.1957 12.7707 71.6437 12.2053 72.1984 11.768C72.753 11.3307 73.3397 11.112 73.9584 11.112C74.5237 11.112 74.977 11.2027 75.3184 11.384C75.6704 11.5547 76.0117 11.832 76.3424 12.216C76.5024 12.3867 76.5824 12.5733 76.5824 12.776C76.5824 12.9787 76.5077 13.1547 76.3584 13.304C76.209 13.4427 76.0277 13.512 75.8144 13.512C75.6757 13.512 75.5637 13.4907 75.4784 13.448C75.4037 13.4053 75.313 13.32 75.2064 13.192C75.025 12.9893 74.8437 12.8347 74.6624 12.728C74.4917 12.6213 74.2624 12.568 73.9744 12.568C73.6437 12.568 73.3077 12.712 72.9664 13C72.6357 13.288 72.3637 13.6667 72.1504 14.136C71.9477 14.5947 71.8464 15.0693 71.8464 15.56C71.8464 15.9867 71.937 16.36 72.1184 16.68C72.3104 16.9893 72.5557 17.2293 72.8544 17.4C73.153 17.56 73.4677 17.64 73.7984 17.64C74.225 17.64 74.5717 17.56 74.8384 17.4C75.1157 17.24 75.361 17.0213 75.5744 16.744C75.777 16.4773 76.0064 16.344 76.2624 16.344C76.465 16.344 76.641 16.4187 76.7904 16.568C76.9397 16.7067 77.0144 16.8667 77.0144 17.048C77.0144 17.2613 76.9557 17.4427 76.8384 17.592C76.529 18.008 76.1077 18.3653 75.5744 18.664C75.041 18.952 74.4597 19.096 73.8304 19.096ZM83.49 19.256C83.2767 19.256 83.1007 19.1973 82.962 19.08C82.834 18.9627 82.77 18.808 82.77 18.616V18.392C82.3327 18.8613 81.7247 19.096 80.946 19.096C80.3593 19.096 79.8313 18.952 79.362 18.664C78.8927 18.376 78.5247 17.9707 78.258 17.448C77.9913 16.9147 77.858 16.312 77.858 15.64C77.858 14.8933 78.018 14.1733 78.338 13.48C78.658 12.776 79.106 12.2053 79.682 11.768C80.2687 11.3307 80.9407 11.112 81.698 11.112C82.1887 11.112 82.6313 11.1813 83.026 11.32C83.4207 11.448 83.8313 11.608 84.258 11.8V18.456C84.258 18.6693 84.1833 18.856 84.034 19.016C83.8847 19.176 83.7033 19.256 83.49 19.256ZM81.058 17.608C81.3673 17.608 81.666 17.544 81.954 17.416C82.2527 17.288 82.498 17.1333 82.69 16.952L82.738 12.776C82.4287 12.648 82.0927 12.584 81.73 12.584C81.2713 12.584 80.866 12.728 80.514 13.016C80.162 13.2933 79.89 13.6667 79.698 14.136C79.506 14.5947 79.41 15.0853 79.41 15.608C79.41 16.2587 79.554 16.7547 79.842 17.096C80.13 17.4373 80.5353 17.608 81.058 17.608ZM87.263 19.096C87.0603 19.096 86.879 19.0267 86.719 18.888C86.5697 18.7387 86.495 18.568 86.495 18.376V9.096C86.495 8.88267 86.5643 8.70667 86.703 8.568C86.8523 8.41867 87.039 8.344 87.263 8.344C87.4657 8.344 87.6417 8.41867 87.791 8.568C87.951 8.71733 88.031 8.89333 88.031 9.096V18.376C88.031 18.568 87.951 18.7387 87.791 18.888C87.631 19.0267 87.455 19.096 87.263 19.096ZM22.888 37.096C22.6853 37.096 22.504 37.0213 22.344 36.872C22.1947 36.7227 22.12 36.5467 22.12 36.344V29.88C22.12 29.6773 22.1947 29.5013 22.344 29.352C22.504 29.192 22.6853 29.112 22.888 29.112C23.1013 29.112 23.2827 29.192 23.432 29.352C23.5813 29.5013 23.656 29.6773 23.656 29.88V31C24.3173 29.7413 25.1973 29.112 26.296 29.112C26.7333 29.112 27.112 29.24 27.432 29.496C27.7627 29.752 27.9973 30.136 28.136 30.648C28.8187 29.624 29.6507 29.112 30.632 29.112C31.2933 29.112 31.816 29.368 32.2 29.88C32.584 30.3813 32.776 31.1387 32.776 32.152V36.344C32.776 36.5467 32.696 36.7227 32.536 36.872C32.3867 37.0213 32.2107 37.096 32.008 37.096C31.7947 37.096 31.6133 37.0213 31.464 36.872C31.3147 36.7227 31.24 36.5467 31.24 36.344V32.056C31.24 31.5653 31.1707 31.1973 31.032 30.952C30.8933 30.7067 30.6747 30.584 30.376 30.584C30.0667 30.584 29.7573 30.7067 29.448 30.952C29.1387 31.1973 28.8827 31.5333 28.68 31.96C28.488 32.3867 28.392 32.856 28.392 33.368V36.344C28.392 36.5573 28.3173 36.7387 28.168 36.888C28.0187 37.0267 27.8373 37.096 27.624 37.096C27.4213 37.096 27.24 37.0213 27.08 36.872C26.9307 36.7227 26.856 36.5467 26.856 36.344V32.056C26.856 31.544 26.792 31.1707 26.664 30.936C26.5467 30.7013 26.3493 30.584 26.072 30.584C25.7307 30.584 25.3947 30.7227 25.064 31C24.7333 31.2667 24.4453 31.592 24.2 31.976C24.008 32.296 23.864 32.616 23.768 32.936C23.6827 33.256 23.64 33.608 23.64 33.992L23.656 36.344C23.656 36.5467 23.5813 36.7227 23.432 36.872C23.2827 37.0213 23.1013 37.096 22.888 37.096ZM37.6384 37.096C37.0304 37.096 36.4704 36.9307 35.9584 36.6C35.457 36.2693 35.0624 35.8213 34.7744 35.256C34.4864 34.68 34.3424 34.056 34.3424 33.384C34.3424 32.6267 34.513 31.9227 34.8544 31.272C35.1957 30.6107 35.6544 30.088 36.2304 29.704C36.8064 29.3093 37.425 29.112 38.0864 29.112C38.6944 29.112 39.249 29.2827 39.7504 29.624C40.2624 29.9653 40.6624 30.4187 40.9504 30.984C41.249 31.5493 41.3984 32.1573 41.3984 32.808C41.3984 33.576 41.2277 34.2907 40.8864 34.952C40.545 35.6027 40.081 36.1253 39.4944 36.52C38.9184 36.904 38.2997 37.096 37.6384 37.096ZM37.6384 35.656C38.0117 35.656 38.369 35.528 38.7104 35.272C39.0517 35.016 39.3237 34.6747 39.5264 34.248C39.729 33.8213 39.8304 33.368 39.8304 32.888C39.8304 32.4827 39.7504 32.104 39.5904 31.752C39.4304 31.3893 39.2117 31.1013 38.9344 30.888C38.657 30.664 38.353 30.552 38.0224 30.552C37.649 30.552 37.297 30.6853 36.9664 30.952C36.6464 31.208 36.3904 31.5547 36.1984 31.992C36.0064 32.4187 35.9104 32.8773 35.9104 33.368C35.9104 33.848 35.9904 34.2587 36.1504 34.6C36.321 34.9413 36.5344 35.2027 36.7904 35.384C37.057 35.5653 37.3397 35.656 37.6384 35.656ZM45.2499 37.112C45.0685 37.112 44.9245 37.0693 44.8179 36.984C44.7112 36.8987 44.6205 36.7653 44.5459 36.584L41.9059 30.152C41.8739 30.056 41.8579 29.9493 41.8579 29.832C41.8579 29.64 41.9325 29.4747 42.0819 29.336C42.2419 29.1867 42.4285 29.112 42.6419 29.112C42.9832 29.112 43.2232 29.2827 43.3619 29.624L45.2499 34.392L47.1539 29.576C47.2072 29.4267 47.2979 29.3093 47.4259 29.224C47.5645 29.1387 47.7139 29.096 47.8739 29.096C48.0979 29.096 48.2792 29.1707 48.4179 29.32C48.5672 29.4693 48.6419 29.6453 48.6419 29.848C48.6419 29.9333 48.6152 30.0453 48.5619 30.184L45.9699 36.632C45.9059 36.792 45.8152 36.9147 45.6979 37C45.5912 37.0747 45.4419 37.112 45.2499 37.112ZM50.7028 28.44C50.5001 28.44 50.3188 28.36 50.1588 28.2C50.0094 28.04 49.9401 27.8587 49.9508 27.656L49.9668 27.064C49.9774 26.8613 50.0574 26.6853 50.2068 26.536C50.3561 26.3867 50.5321 26.312 50.7348 26.312C50.9374 26.312 51.1134 26.392 51.2628 26.552C51.4228 26.712 51.4974 26.888 51.4868 27.08L51.4708 27.688C51.4601 27.9013 51.3801 28.0827 51.2308 28.232C51.0921 28.3707 50.9161 28.44 50.7028 28.44ZM50.6228 37.096C50.4094 37.096 50.2228 37.0213 50.0628 36.872C49.9134 36.712 49.8388 36.5253 49.8388 36.312L49.9188 29.944C49.9188 29.7307 49.9934 29.5493 50.1428 29.4C50.3028 29.24 50.4894 29.16 50.7028 29.16C50.9268 29.16 51.1134 29.24 51.2628 29.4C51.4121 29.5493 51.4868 29.7307 51.4868 29.944L51.4068 36.312C51.4068 36.5253 51.3268 36.712 51.1668 36.872C51.0174 37.0213 50.8361 37.096 50.6228 37.096ZM54.4974 37.096C54.2947 37.096 54.1134 37.0213 53.9534 36.872C53.804 36.7227 53.7294 36.552 53.7294 36.36V29.864C53.7294 29.6507 53.8094 29.4693 53.9694 29.32C54.1294 29.1707 54.316 29.096 54.5294 29.096C54.732 29.096 54.9027 29.1707 55.0414 29.32C55.1907 29.4693 55.2654 29.6507 55.2654 29.864V31.08C55.564 30.44 55.9427 29.9547 56.4014 29.624C56.86 29.2827 57.3614 29.112 57.9054 29.112C58.5027 29.112 58.9774 29.2507 59.3294 29.528C59.6814 29.8053 59.9374 30.264 60.0974 30.904C60.2574 31.5333 60.3374 32.408 60.3374 33.528L60.3214 36.328C60.3214 36.5307 60.252 36.712 60.1134 36.872C59.9747 37.0213 59.7987 37.096 59.5854 37.096C59.3827 37.096 59.2014 37.0213 59.0414 36.872C58.892 36.712 58.8174 36.536 58.8174 36.344V33.688C58.8174 32.856 58.78 32.216 58.7054 31.768C58.6307 31.32 58.5187 31.016 58.3694 30.856C58.22 30.6853 58.0174 30.6 57.7614 30.6C57.4414 30.6 57.1214 30.7387 56.8014 31.016C56.4814 31.2827 56.1827 31.6667 55.9054 32.168C55.66 32.6053 55.4894 33.032 55.3934 33.448C55.2974 33.864 55.2494 34.3653 55.2494 34.952V36.296C55.2494 36.5307 55.18 36.7227 55.0414 36.872C54.9134 37.0213 54.732 37.096 54.4974 37.096ZM65.1529 39.784C64.5342 39.784 63.9049 39.7093 63.2649 39.56C63.0942 39.5173 62.9502 39.4267 62.8329 39.288C62.7262 39.1493 62.6729 38.9893 62.6729 38.808C62.6729 38.5947 62.7475 38.4133 62.8969 38.264C63.0569 38.1147 63.2382 38.04 63.4409 38.04C63.5689 38.04 63.7395 38.0667 63.9529 38.12C63.9955 38.1307 64.1289 38.152 64.3529 38.184C64.5769 38.2267 64.8382 38.248 65.1369 38.248C66.2355 38.248 66.8275 37.6987 66.9129 36.6L66.9449 36.216C66.7635 36.4613 66.5235 36.648 66.2249 36.776C65.9262 36.8933 65.6062 36.952 65.2649 36.952C64.6995 36.952 64.1662 36.8133 63.6649 36.536C63.1742 36.248 62.7795 35.8373 62.4809 35.304C62.1822 34.76 62.0329 34.1253 62.0329 33.4C62.0329 32.6427 62.1982 31.9333 62.5289 31.272C62.8702 30.6107 63.3289 30.0827 63.9049 29.688C64.4915 29.2933 65.1369 29.096 65.8409 29.096C66.2355 29.096 66.6782 29.192 67.1689 29.384C67.2542 29.0853 67.4995 28.936 67.9049 28.936C68.1289 28.936 68.3102 29 68.4489 29.128C68.5982 29.2453 68.6675 29.4427 68.6569 29.72L68.4969 36.472C68.4755 37.5707 68.1609 38.3973 67.5529 38.952C66.9449 39.5067 66.1449 39.784 65.1529 39.784ZM65.1689 35.448C65.7555 35.448 66.2142 35.24 66.5449 34.824C66.8755 34.3973 67.0409 33.7413 67.0409 32.856V30.92C66.8915 30.8347 66.7102 30.7653 66.4969 30.712C66.2942 30.6587 66.0969 30.632 65.9049 30.632C65.4675 30.632 65.0622 30.7493 64.6889 30.984C64.3262 31.208 64.0329 31.5227 63.8089 31.928C63.5955 32.3333 63.4889 32.7867 63.4889 33.288C63.4889 33.9387 63.6489 34.4613 63.9689 34.856C64.2995 35.2507 64.6995 35.448 65.1689 35.448Z" fill="#0A3C87"/>
</svg>
