<svg width="128" height="99" viewBox="0 0 128 99" fill="none" xmlns="http://www.w3.org/2000/svg">
<g clip-path="url(#clip0)">
<rect width="128" height="99" fill="white"/>
<path d="M2.76066 85.398H0V82.9026H7.06897V85.398H4.3072V98.7758H2.76066V85.398Z" fill="#00004F"/>
<path d="M12.544 97.1528C11.9012 95.9198 11.5798 94.1549 11.5798 91.8581V82.9026H13.1263V91.745C13.1263 94.8581 13.8327 96.4145 15.2453 96.4145C16.6579 96.4145 17.3602 94.8581 17.3521 91.745V82.9026H18.8744V91.8563C18.8744 94.1541 18.5552 95.919 17.9168 97.1506C17.2783 98.3822 16.3845 98.9987 15.2354 99.0001C14.0833 99.0001 13.1862 98.3844 12.544 97.1528Z" fill="#00004F"/>
<path d="M123.255 98.2849C122.767 97.9643 122.325 97.4332 121.963 96.7333L122.236 95.8714C122.571 96.5109 122.975 97.0019 123.421 97.3099C123.919 97.6815 124.451 97.8702 124.986 97.8656C125.78 97.8656 126.379 97.5782 126.783 97.0038C126.973 96.7544 127.128 96.4189 127.234 96.0274C127.34 95.636 127.394 95.2006 127.39 94.7602C127.398 94.4501 127.374 94.1403 127.319 93.8483C127.264 93.5564 127.179 93.2883 127.069 93.0595C126.845 92.6253 126.572 92.2919 126.272 92.0845C125.851 91.8009 125.422 91.5663 124.986 91.3822C124.488 91.1604 123.997 90.8802 123.517 90.5433C123.153 90.2787 122.83 89.8463 122.575 89.2852C122.318 88.7191 122.189 87.9581 122.189 87.0082C122.186 86.2564 122.298 85.5192 122.511 84.8862C122.751 84.2028 123.093 83.6709 123.492 83.3575C123.933 82.9803 124.483 82.7908 125.144 82.7895C125.603 82.79 126.061 82.9201 126.501 83.1753C126.913 83.4046 127.302 83.7586 127.656 84.2237L127.429 85.1545C127.092 84.7125 126.72 84.3756 126.328 84.1565C125.944 83.9349 125.545 83.8204 125.144 83.817C124.374 83.817 123.791 84.1118 123.394 84.7018C123.206 84.964 123.054 85.3086 122.95 85.7068C122.846 86.1049 122.794 86.5451 122.799 86.9892C122.791 87.2993 122.815 87.6095 122.87 87.9016C122.926 88.1938 123.01 88.4625 123.12 88.692C123.345 89.126 123.617 89.4586 123.918 89.6649C124.343 89.9528 124.776 90.1952 125.215 90.3903C125.712 90.6121 126.201 90.8922 126.679 91.2291C127.038 91.4932 127.359 91.9176 127.614 92.4661C127.871 93.017 128 93.7614 128 94.6992C128.001 95.4449 127.886 96.1746 127.67 96.7961C127.42 97.4798 127.07 98.0085 126.664 98.3162C126.135 98.721 125.568 98.9137 124.998 98.8824C124.403 98.8899 123.811 98.687 123.255 98.2849Z" fill="#999999"/>
<path d="M30.0623 98.7758L28.3595 94.1271C28.253 94.1461 28.1461 94.1536 28.0392 94.1501H26.1579V98.7758H24.6103V82.9027H28.0392C28.6859 82.8746 29.3284 83.1068 29.9247 83.5842C30.4282 83.9852 30.8574 84.6643 31.1565 85.5342C31.4509 86.438 31.6002 87.4861 31.5857 88.5494C31.6006 89.6419 31.4404 90.717 31.1268 91.6318C30.8026 92.5209 30.3409 93.1946 29.8059 93.5588L31.7278 98.7758H30.0623ZM29.5021 86.2157C29.1535 85.6733 28.6421 85.4015 27.9676 85.3999H26.1579V91.7241H27.9676C28.6413 91.7241 29.1528 91.4488 29.5021 90.8981C29.8513 90.3472 30.026 89.5651 30.026 88.5515C30.026 87.5396 29.8513 86.7602 29.5021 86.2135V86.2157Z" fill="#00004F"/>
<path d="M43.8788 91.9612C44.1587 92.6892 44.3014 93.5757 44.2839 94.4774C44.2839 95.8529 44.0062 96.9146 43.4507 97.6625C42.8952 98.4103 42.086 98.7815 41.0234 98.7758H36.8815V82.9026H40.7847C41.7687 82.9026 42.5265 83.2695 43.0577 84.0034C43.3133 84.3408 43.5202 84.7949 43.6595 85.3244C43.7988 85.8539 43.8658 86.4415 43.8547 87.0334C43.8628 87.7694 43.7638 88.4951 43.5684 89.1303C43.3813 89.7296 43.1093 90.2166 42.7836 90.5353C43.2169 90.7847 43.5994 91.2826 43.8788 91.9612ZM38.429 85.2155V89.5916H40.6185C41.1578 89.5916 41.5725 89.4064 41.8622 89.0361C42.0026 88.8616 42.1165 88.62 42.1926 88.3356C42.2688 88.0512 42.3044 87.7338 42.2959 87.4152C42.3051 87.0928 42.2699 86.7717 42.1939 86.4832C42.1178 86.1948 42.0036 85.9494 41.8622 85.7712C41.5725 85.402 41.1578 85.2168 40.6185 85.2155H38.429ZM42.7219 94.1713C42.7219 92.6448 42.1227 91.8814 40.9244 91.8814H38.4258V96.4694H40.9244C42.1242 96.4694 42.7245 95.7004 42.7253 94.1627L42.7219 94.1713Z" fill="#00004F"/>
<path d="M51.1031 97.9369C50.4363 97.2629 49.8801 96.2515 49.4959 95.014C49.1143 93.7396 48.9137 92.2977 48.9137 90.8306C48.9137 89.3635 49.1143 87.9219 49.4959 86.6475C49.879 85.4049 50.4352 84.3889 51.1031 83.712C51.8142 83.0187 52.6014 82.6572 53.4003 82.6572C54.1991 82.6572 54.9865 83.0187 55.6975 83.712C56.3627 84.3844 56.9182 85.3918 57.3035 86.6245C57.6856 87.9024 57.8867 89.3475 57.8867 90.818C57.8867 92.2889 57.6856 93.734 57.3035 95.0119C56.9191 96.2491 56.3637 97.2611 55.6975 97.9369C54.9865 98.6302 54.1991 98.9917 53.4003 98.9917C52.6014 98.9917 51.8142 98.6302 51.1031 97.9369ZM54.8996 95.6934C55.3395 95.2265 55.7022 94.5351 55.9475 93.6971C56.1974 92.8165 56.3283 91.8308 56.3283 90.8295C56.3283 89.8283 56.1974 88.8429 55.9475 87.9623C55.702 87.1245 55.3393 86.4334 54.8996 85.966C54.438 85.4983 53.9232 85.2537 53.4003 85.2537C52.8775 85.2537 52.3627 85.4983 51.901 85.966C51.4615 86.4334 51.0985 87.1245 50.8531 87.9623C50.6031 88.8429 50.4723 89.8283 50.4723 90.8295C50.4723 91.8308 50.6031 92.8165 50.8531 93.6971C51.0983 94.5351 51.4611 95.2265 51.901 95.6934C52.3627 96.1611 52.8775 96.4056 53.4003 96.4056C53.9232 96.4056 54.438 96.1611 54.8996 95.6934Z" fill="#00004F"/>
<path d="M64.7535 97.8321C64.1084 97.1541 63.5721 96.1556 63.2015 94.9427C62.8307 93.6905 62.6357 92.2772 62.6357 90.8393C62.6357 89.4013 62.8307 87.988 63.2015 86.7358C63.572 85.5221 64.1082 84.5228 64.7535 83.8442C65.4355 83.155 66.1956 82.7946 66.9675 82.7946C67.7395 82.7946 68.4998 83.155 69.1817 83.8442C69.8276 84.5161 70.3646 85.5117 70.7349 86.7233C71.1051 87.9838 71.2996 89.404 71.2996 90.8486C71.2996 92.2932 71.1051 93.7137 70.7349 94.9742C70.3646 96.1858 69.8276 97.1814 69.1817 97.8533C68.4998 98.5423 67.7395 98.9027 66.9675 98.9027C66.1956 98.9027 65.4355 98.5423 64.7535 97.8533V97.8321ZM68.8602 96.9138C69.4155 96.3241 69.8763 95.458 70.1933 94.4081C70.5129 93.3169 70.6808 92.088 70.6808 90.8382C70.6808 89.5884 70.5129 88.3594 70.1933 87.2683C69.876 86.2189 69.4153 85.353 68.8602 84.7625C68.2773 84.168 67.6262 83.8568 66.9649 83.8568C66.3034 83.8568 65.6523 84.168 65.0694 84.7625C64.5116 85.3496 64.0487 86.2162 63.7308 87.2683C63.4104 88.3592 63.2422 89.5881 63.2422 90.8382C63.2422 92.0883 63.4104 93.3172 63.7308 94.4081C64.0484 95.4607 64.5112 96.3273 65.0694 96.9138C65.6521 97.5097 66.3034 97.8217 66.9649 97.8217C67.6264 97.8217 68.2775 97.5097 68.8602 96.9138Z" fill="#999999"/>
<path d="M77.5836 83.947V90.7261H82.023V91.7744H77.5836V98.7758H76.976V82.9026H82.5457V83.951L77.5836 83.947Z" fill="#999999"/>
<path d="M88.6637 83.947V90.7261H93.1031V91.7744H88.6637V98.7758H88.0561V82.9026H93.6258V83.951L88.6637 83.947Z" fill="#999999"/>
<path d="M104.885 97.7272V98.7758H99.1373V82.9026H104.707V83.951H99.7438V90.2081H104.183V91.2272H99.7438V97.7272H104.885Z" fill="#999999"/>
<path d="M116.453 98.7758L114.465 93.4708C114.197 93.5427 113.927 93.5805 113.656 93.584H111.276V98.7758H110.67V82.9026H113.657C114.705 82.9026 115.526 83.3752 116.121 84.3202C116.715 85.265 117.013 86.5764 117.013 88.2537C117.013 89.5118 116.845 90.5658 116.508 91.4159C116.144 92.3044 115.635 92.9386 115.062 93.219L117.144 98.7737L116.453 98.7758ZM113.656 92.5629C114.545 92.5629 115.223 92.1889 115.691 91.441C116.159 90.6932 116.394 89.6314 116.394 88.2559C116.394 86.8803 116.159 85.8186 115.691 85.0707C115.223 84.3229 114.545 83.9488 113.656 83.9488H111.276V92.5629H113.656Z" fill="#999999"/>
<path d="M85.5629 54.3941H58.467L50.8015 21.3794H44.4194V18.8401H51.6698L59.3355 51.8549H84.2298V18.0706L70.5664 2.93976L56.9007 18.1482V25.961H55.5676V16.6909L70.5641 0L85.5629 16.6091V54.3941Z" fill="#00004F"/>
<path d="M63.4876 70.0492C62.7985 70.0492 62.125 69.6599 61.552 68.9308C60.9792 68.2014 60.5327 67.1651 60.269 65.9522C60.0053 64.7396 59.9362 63.4052 60.0708 62.1177C60.2052 60.8304 60.5368 59.6478 61.0242 58.7196C61.5113 57.7914 62.1321 57.1594 62.8079 56.9033C63.4837 56.6473 64.1841 56.7787 64.8207 57.2811C65.4573 57.7834 66.0015 58.634 66.3842 59.7254C66.7671 60.8168 66.9713 62.1 66.9713 63.4125C66.9702 65.172 66.6027 66.8587 65.9497 68.1029C65.2966 69.3471 64.4111 70.0471 63.4876 70.0492ZM63.4876 59.3152C63.0622 59.3152 62.6464 59.5555 62.2927 60.0058C61.939 60.4558 61.6632 61.0959 61.5004 61.8445C61.3376 62.5932 61.2951 63.417 61.3781 64.2119C61.4611 65.0066 61.6659 65.7368 61.9667 66.3097C62.2675 66.8828 62.6507 67.2732 63.068 67.431C63.4852 67.5892 63.9175 67.5081 64.3106 67.198C64.7036 66.8879 65.0396 66.3626 65.2758 65.6889C65.5123 65.0152 65.6384 64.2229 65.6384 63.4125C65.6388 62.3251 65.4123 61.2821 65.0089 60.5126C64.6055 59.743 64.0583 59.3101 63.4876 59.3088V59.3152Z" fill="#00004F"/>
<path d="M78.3223 70.0492C77.6331 70.0492 76.9596 69.6599 76.3866 68.9308C75.8138 68.2014 75.3671 67.1651 75.1036 65.9522C74.8399 64.7396 74.7708 63.4052 74.9052 62.1177C75.0398 60.8304 75.3715 59.6478 75.8588 58.7196C76.346 57.7914 76.9668 57.1594 77.6425 56.9033C78.3183 56.6473 79.0189 56.7787 79.6553 57.2811C80.2919 57.7834 80.8361 58.634 81.219 59.7254C81.6017 60.8168 81.8061 62.1 81.8061 63.4125C81.8052 65.1722 81.4379 66.8593 80.7848 68.1034C80.1316 69.3479 79.2459 70.0476 78.3223 70.0492ZM78.3223 59.3152C77.8968 59.3152 77.481 59.5555 77.1273 60.0058C76.7736 60.4558 76.4979 61.0959 76.3351 61.8445C76.1722 62.5932 76.1297 63.417 76.2127 64.2119C76.2957 65.0066 76.5005 65.7368 76.8013 66.3097C77.1021 66.8828 77.4854 67.2732 77.9027 67.431C78.3198 67.5892 78.7524 67.5081 79.1454 67.198C79.5383 66.8879 79.8743 66.3626 80.1107 65.6889C80.3469 65.0152 80.473 64.2229 80.473 63.4125C80.4734 62.3251 80.247 61.2821 79.8436 60.5126C79.4404 59.743 78.893 59.3101 78.3223 59.3088V59.3152Z" fill="#00004F"/>
<path d="M50.1201 31.4526H36.8815V33.9921H50.1201V31.4526Z" fill="#999999"/>
<path d="M51.5917 41.173H47.6378V43.7122H51.5917V41.173Z" fill="#00004F"/>
<path d="M54.9931 50.8924H43.0411V53.4316H54.9931V50.8924Z" fill="#999999"/>
<path d="M75.6926 54.3941H65.9286V27.517H75.6926V54.3941ZM67.2617 51.8549H74.3595V30.0476H67.2617V51.8549Z" fill="#00004F"/>
</g>
<defs>
<clipPath id="clip0">
<rect width="128" height="99" fill="white"/>
</clipPath>
</defs>
</svg>
