<svg width="339" height="184" viewBox="0 0 339 184" fill="none" xmlns="http://www.w3.org/2000/svg">
<g clip-path="url(#clip0)">
<rect width="339" height="184" fill="white"/>
<path d="M7.31143 158.72H0V154.082H18.7217V158.72H11.4074V183.583H7.31143V158.72Z" fill="#00004F"/>
<path d="M33.2221 180.567C31.5196 178.275 30.6684 174.995 30.6684 170.726V154.082H34.7643V170.516C34.7643 176.302 36.6349 179.195 40.3762 179.195C44.1174 179.195 45.9773 176.302 45.956 170.516V154.082H49.9876V170.723C49.9876 174.994 49.1423 178.274 47.4514 180.563C45.7606 182.852 43.3934 183.998 40.3499 184C37.2986 184 34.9227 182.856 33.2221 180.567Z" fill="#00004F"/>
<path d="M326.432 182.671C325.141 182.075 323.97 181.088 323.012 179.787L323.736 178.185C324.621 179.374 325.692 180.286 326.872 180.859C328.193 181.549 329.6 181.9 331.018 181.892C333.121 181.892 334.707 181.358 335.776 180.29C336.281 179.826 336.691 179.203 336.972 178.475C337.253 177.748 337.395 176.939 337.385 176.12C337.407 175.544 337.342 174.968 337.196 174.425C337.05 173.883 336.825 173.384 336.534 172.959C335.94 172.152 335.219 171.532 334.423 171.147C333.309 170.62 332.172 170.184 331.018 169.842C329.698 169.429 328.398 168.909 327.126 168.283C326.163 167.791 325.307 166.987 324.633 165.944C323.951 164.892 323.61 163.478 323.61 161.712C323.602 160.315 323.898 158.945 324.461 157.768C325.099 156.498 326.004 155.509 327.062 154.927C328.228 154.226 329.685 153.874 331.435 153.871C332.653 153.872 333.864 154.114 335.029 154.588C336.12 155.015 337.152 155.673 338.088 156.537L337.487 158.267C336.595 157.445 335.611 156.819 334.572 156.412C333.554 156 332.498 155.787 331.435 155.781C329.396 155.781 327.852 156.329 326.802 157.426C326.303 157.913 325.9 158.553 325.625 159.293C325.35 160.033 325.213 160.851 325.225 161.677C325.204 162.253 325.269 162.83 325.415 163.373C325.561 163.916 325.785 164.415 326.076 164.842C326.67 165.648 327.393 166.267 328.19 166.65C329.315 167.185 330.461 167.636 331.624 167.998C332.939 168.41 334.235 168.931 335.501 169.557C336.452 170.048 337.301 170.837 337.977 171.856C338.659 172.88 339 174.264 339 176.007C339.003 177.393 338.698 178.749 338.125 179.904C337.464 181.175 336.537 182.157 335.461 182.729C334.06 183.481 332.558 183.84 331.05 183.781C329.473 183.795 327.907 183.418 326.432 182.671Z" fill="#999999"/>
<path d="M79.6182 183.583L75.1085 174.943C74.8263 174.979 74.5431 174.993 74.26 174.986H69.2777V183.583H65.1787V154.082H74.26C75.9729 154.03 77.6744 154.461 79.2537 155.348C80.5873 156.094 81.7239 157.356 82.5161 158.973C83.2958 160.653 83.6911 162.6 83.6527 164.577C83.6921 166.607 83.2679 168.605 82.4373 170.306C81.5789 171.958 80.356 173.21 78.9392 173.887L84.0291 183.583H79.6182ZM78.1345 160.239C77.2113 159.231 75.8567 158.726 74.0705 158.723H69.2777V170.477H74.0705C75.8548 170.477 77.2093 169.965 78.1345 168.942C79.0593 167.918 79.5219 166.464 79.5219 164.581C79.5219 162.7 79.0593 161.251 78.1345 160.235V160.239Z" fill="#00004F"/>
<path d="M116.21 170.918C116.952 172.271 117.329 173.918 117.283 175.594C117.283 178.151 116.548 180.124 115.077 181.514C113.605 182.904 111.462 183.594 108.648 183.583H97.6784V154.082H108.016C110.622 154.082 112.629 154.764 114.036 156.128C114.713 156.755 115.26 157.599 115.629 158.583C115.998 159.567 116.176 160.659 116.146 161.759C116.168 163.127 115.906 164.476 115.388 165.656C114.893 166.77 114.172 167.675 113.31 168.268C114.457 168.731 115.47 169.657 116.21 170.918ZM101.777 158.38V166.514H107.576C109.004 166.514 110.102 166.17 110.869 165.481C111.241 165.157 111.543 164.708 111.744 164.179C111.946 163.651 112.04 163.061 112.018 162.469C112.042 161.869 111.949 161.273 111.748 160.737C111.546 160.2 111.244 159.744 110.869 159.413C110.102 158.727 109.004 158.383 107.576 158.38H101.777ZM113.146 175.025C113.146 172.188 111.559 170.77 108.386 170.77H101.768V179.297H108.386C111.563 179.297 113.153 177.867 113.155 175.009L113.146 175.025Z" fill="#00004F"/>
<path d="M135.343 182.024C133.577 180.772 132.104 178.892 131.087 176.592C130.076 174.223 129.545 171.543 129.545 168.816C129.545 166.09 130.076 163.41 131.087 161.042C132.101 158.732 133.574 156.844 135.343 155.586C137.227 154.297 139.312 153.626 141.427 153.626C143.543 153.626 145.628 154.297 147.511 155.586C149.273 156.836 150.744 158.708 151.765 160.999C152.777 163.374 153.309 166.06 153.309 168.793C153.309 171.527 152.777 174.213 151.765 176.588C150.747 178.887 149.276 180.768 147.511 182.024C145.628 183.313 143.543 183.985 141.427 183.985C139.312 183.985 137.227 183.313 135.343 182.024ZM145.398 177.854C146.563 176.987 147.524 175.702 148.173 174.144C148.835 172.507 149.182 170.675 149.182 168.814C149.182 166.954 148.835 165.122 148.173 163.485C147.523 161.928 146.563 160.644 145.398 159.775C144.176 158.906 142.812 158.451 141.427 158.451C140.043 158.451 138.679 158.906 137.457 159.775C136.292 160.644 135.331 161.928 134.681 163.485C134.019 165.122 133.673 166.954 133.673 168.814C133.673 170.675 134.019 172.507 134.681 174.144C135.331 175.702 136.291 176.987 137.457 177.854C138.679 178.724 140.043 179.178 141.427 179.178C142.812 179.178 144.176 178.724 145.398 177.854Z" fill="#00004F"/>
<path d="M171.496 181.829C169.787 180.569 168.367 178.713 167.385 176.459C166.403 174.132 165.887 171.505 165.887 168.833C165.887 166.16 166.403 163.533 167.385 161.206C168.366 158.95 169.787 157.093 171.496 155.832C173.302 154.551 175.315 153.881 177.359 153.881C179.404 153.881 181.417 154.551 183.224 155.832C184.934 157.08 186.356 158.931 187.337 161.183C188.317 163.525 188.832 166.165 188.832 168.85C188.832 171.535 188.317 174.175 187.337 176.518C186.356 178.77 184.934 180.62 183.224 181.869C181.417 183.149 179.404 183.819 177.359 183.819C175.315 183.819 173.302 183.149 171.496 181.869V181.829ZM182.372 180.123C183.843 179.027 185.063 177.417 185.903 175.465C186.749 173.438 187.194 171.153 187.194 168.831C187.194 166.508 186.749 164.224 185.903 162.196C185.062 160.245 183.842 158.636 182.372 157.538C180.828 156.433 179.104 155.855 177.352 155.855C175.601 155.855 173.876 156.433 172.332 157.538C170.855 158.629 169.629 160.24 168.787 162.196C167.939 164.223 167.493 166.507 167.493 168.831C167.493 171.154 167.939 173.438 168.787 175.465C169.628 177.422 170.854 179.033 172.332 180.123C173.876 181.23 175.601 181.81 177.352 181.81C179.104 181.81 180.829 181.23 182.372 180.123Z" fill="#999999"/>
<path d="M205.475 156.023V168.622H217.233V170.571H205.475V183.583H203.866V154.082H218.617V156.03L205.475 156.023Z" fill="#999999"/>
<path d="M234.82 156.023V168.622H246.578V170.571H234.82V183.583H233.211V154.082H247.962V156.03L234.82 156.023Z" fill="#999999"/>
<path d="M277.782 181.634V183.583H262.559V154.082H277.31V156.03H264.165V167.659H275.923V169.554H264.165V181.634H277.782Z" fill="#999999"/>
<path d="M308.419 183.583L303.154 173.723C302.444 173.857 301.728 173.927 301.011 173.934H294.708V183.583H293.102V154.082H301.014C303.789 154.082 305.964 154.96 307.538 156.716C309.113 158.472 309.9 160.91 309.902 164.027C309.902 166.365 309.457 168.324 308.564 169.904C307.599 171.556 306.252 172.734 304.734 173.256L310.249 183.579L308.419 183.583ZM301.011 172.036C303.365 172.036 305.161 171.341 306.401 169.951C307.641 168.561 308.261 166.588 308.261 164.031C308.261 161.475 307.641 159.501 306.401 158.111C305.161 156.721 303.365 156.026 301.011 156.026H294.708V172.036H301.011Z" fill="#999999"/>
<path d="M226.608 101.096H154.846L134.545 39.7355H117.642V35.016H136.844L157.146 96.3767H223.077V33.5857L186.891 5.46381L150.698 33.7299V48.2508H147.167V31.0214L186.885 0L226.608 30.8694V101.096Z" fill="#00004F"/>
<path d="M168.143 130.192C166.318 130.192 164.534 129.469 163.017 128.114C161.5 126.758 160.317 124.832 159.619 122.578C158.92 120.324 158.737 117.844 159.094 115.451C159.45 113.059 160.328 110.86 161.619 109.135C162.909 107.41 164.553 106.236 166.343 105.76C168.133 105.284 169.988 105.528 171.674 106.462C173.36 107.395 174.801 108.976 175.814 111.005C176.828 113.033 177.369 115.418 177.369 117.857C177.366 121.128 176.393 124.263 174.664 126.575C172.934 128.888 170.589 130.188 168.143 130.192ZM168.143 110.242C167.016 110.242 165.915 110.689 164.978 111.526C164.042 112.362 163.311 113.552 162.88 114.943C162.449 116.335 162.336 117.866 162.556 119.343C162.776 120.82 163.318 122.177 164.115 123.242C164.912 124.307 165.927 125.033 167.032 125.326C168.137 125.62 169.282 125.47 170.323 124.893C171.363 124.317 172.253 123.341 172.879 122.088C173.505 120.836 173.839 119.364 173.839 117.857C173.84 115.836 173.24 113.898 172.172 112.468C171.104 111.038 169.655 110.233 168.143 110.23V110.242Z" fill="#00004F"/>
<path d="M207.432 130.192C205.606 130.192 203.823 129.469 202.305 128.114C200.788 126.758 199.605 124.832 198.907 122.578C198.209 120.324 198.026 117.844 198.382 115.451C198.738 113.059 199.617 110.86 200.907 109.135C202.198 107.41 203.842 106.236 205.631 105.76C207.421 105.284 209.277 105.528 210.962 106.462C212.648 107.395 214.089 108.976 215.103 111.005C216.117 113.033 216.658 115.418 216.658 117.857C216.656 121.128 215.683 124.264 213.953 126.576C212.223 128.889 209.878 130.189 207.432 130.192ZM207.432 110.242C206.305 110.242 205.204 110.689 204.267 111.526C203.33 112.362 202.6 113.552 202.169 114.943C201.737 116.335 201.625 117.866 201.845 119.343C202.064 120.82 202.607 122.177 203.403 123.242C204.2 124.307 205.215 125.033 206.32 125.326C207.425 125.62 208.571 125.47 209.612 124.893C210.652 124.317 211.542 123.341 212.168 122.088C212.794 120.836 213.128 119.364 213.128 117.857C213.129 115.836 212.529 113.898 211.461 112.468C210.393 111.038 208.943 110.233 207.432 110.23V110.242Z" fill="#00004F"/>
<path d="M132.74 58.4573H97.6784V63.1772H132.74V58.4573Z" fill="#999999"/>
<path d="M136.637 76.5235H126.166V81.2429H136.637V76.5235Z" fill="#00004F"/>
<path d="M145.646 94.5879H113.992V99.3072H145.646V94.5879Z" fill="#999999"/>
<path d="M200.467 101.096H174.608V51.1426H200.467V101.096ZM178.138 96.3768H196.937V55.8461H178.138V96.3768Z" fill="#00004F"/>
</g>
<defs>
<clipPath id="clip0">
<rect width="339" height="184" fill="white"/>
</clipPath>
</defs>
</svg>
