<svg id="Layer_1" data-name="Layer 1" xmlns="http://www.w3.org/2000/svg" viewBox="0 0 2000 2000"><defs><style>.cls-1{fill:#00004f;}.cls-2{fill:#999;}</style></defs><title>Untitled-1</title><path class="cls-1" d="M443.67,1171.2H418.59v-11.9h64.22v11.9H457.72V1235H443.67Z"/><path class="cls-1" d="M532.55,1227.26q-8.76-8.82-8.76-25.25V1159.3h14.05v42.17q0,22.27,19.25,22.27t19.14-22.27V1159.3h13.83V1202q0,16.44-8.7,25.25T557,1236.07Q541.3,1236.07,532.55,1227.26Z"/><path class="cls-1" d="M691.7,1235l-15.47-22.17a26.44,26.44,0,0,1-2.91.11H656.23V1235H642.17V1159.3h31.15a41.75,41.75,0,0,1,17.13,3.25,24.83,24.83,0,0,1,11.19,9.3,26,26,0,0,1,3.9,14.38,25.68,25.68,0,0,1-4.17,14.7,24.75,24.75,0,0,1-12,9.19L706.83,1235Zm-5.09-59.9q-4.75-3.88-13.94-3.89H656.23v30.16h16.44q9.18,0,13.94-3.94t4.76-11.19Q691.37,1179,686.61,1175.09Z"/><path class="cls-1" d="M817.22,1202.5a19.12,19.12,0,0,1,3.68,12q0,9.84-7.57,15.19T791.28,1235H753.65V1159.3h35.46q13.41,0,20.65,5.25A16.84,16.84,0,0,1,817,1179a19,19,0,0,1-2.6,10,17.71,17.71,0,0,1-7.13,6.7A20,20,0,0,1,817.22,1202.5Zm-49.51-32.17v20.87H787.6q7.35,0,11.3-2.65a8.71,8.71,0,0,0,3.94-7.73,8.83,8.83,0,0,0-3.94-7.84q-3.95-2.64-11.3-2.65Zm39,42.71q0-10.92-16.33-10.92h-22.7V1224h22.7Q806.73,1224,806.74,1213Z"/><path class="cls-1" d="M882.85,1231a37.24,37.24,0,0,1-14.6-13.94,40.26,40.26,0,0,1,0-39.9,37.19,37.19,0,0,1,14.6-14,45.81,45.81,0,0,1,41.74,0,37.37,37.37,0,0,1,14.59,13.89,40.4,40.4,0,0,1,0,40A37.37,37.37,0,0,1,924.59,1231a45.81,45.81,0,0,1-41.74,0Zm34.49-10.7a24.61,24.61,0,0,0,9.52-9.52,28.75,28.75,0,0,0,0-27.35,24.67,24.67,0,0,0-9.52-9.52,29,29,0,0,0-27.24,0,24.67,24.67,0,0,0-9.52,9.52,28.75,28.75,0,0,0,0,27.35,24.61,24.61,0,0,0,9.52,9.52,29,29,0,0,0,27.24,0Z"/><path class="cls-2" d="M1006.86,1230.5a37,37,0,0,1-14.1-13.78,39.83,39.83,0,0,1,0-39.14,37,37,0,0,1,14.1-13.79,42.92,42.92,0,0,1,40.23,0,36.65,36.65,0,0,1,14.11,13.73,40.29,40.29,0,0,1,0,39.35,36.65,36.65,0,0,1-14.11,13.73,42.92,42.92,0,0,1-40.23,0Zm37.31-4.38a31.87,31.87,0,0,0,12.11-11.95,34.93,34.93,0,0,0,0-34.05,31.94,31.94,0,0,0-12.11-11.95,36.48,36.48,0,0,0-34.44,0,31.73,31.73,0,0,0-12.16,11.95,34.86,34.86,0,0,0,0,34.05,31.66,31.66,0,0,0,12.16,11.95,36.41,36.41,0,0,0,34.44,0Z"/><path class="cls-2" d="M1123.42,1164.28v32.33h40.33v5h-40.33V1235h-5.52V1159.3h50.6v5Z"/><path class="cls-2" d="M1224.08,1164.28v32.33h40.33v5h-40.33V1235h-5.52V1159.3h50.6v5Z"/><path class="cls-2" d="M1371.45,1230v5h-52.22V1159.3h50.6v5h-45.09v29.84h40.33V1199h-40.33v31Z"/><path class="cls-2" d="M1476.54,1235l-18.06-25.3a55.34,55.34,0,0,1-7.35.54h-21.62V1235H1424V1159.3h27.14q14.28,0,22.38,6.76t8.11,18.76q0,9-4.59,15.08a24.37,24.37,0,0,1-13.14,8.6l18.92,26.49Zm-25.41-29.63q12.11,0,18.49-5.35t6.38-15.19q0-9.84-6.38-15.19t-18.49-5.35h-21.62v41.08Z"/><path class="cls-2" d="M1538.33,1232.66a30.37,30.37,0,0,1-11.73-7.4l2.48-4.11a29.3,29.3,0,0,0,10.76,6.86,38.53,38.53,0,0,0,14.22,2.65q10.82,0,16.32-4.11a12.73,12.73,0,0,0,5.52-10.7,11.17,11.17,0,0,0-2.92-8.11,19.43,19.43,0,0,0-7.24-4.65,99.71,99.71,0,0,0-11.68-3.35,113.32,113.32,0,0,1-13.35-4,21.39,21.39,0,0,1-8.55-6c-2.34-2.7-3.51-6.33-3.51-10.86a18.49,18.49,0,0,1,2.92-10.12,19.84,19.84,0,0,1,8.92-7.29q6-2.7,15-2.71a42.44,42.44,0,0,1,12.33,1.84,36.41,36.41,0,0,1,10.49,5l-2.06,4.44a34.91,34.91,0,0,0-10-4.76,37.72,37.72,0,0,0-10.76-1.62q-10.49,0-15.89,4.22a13.2,13.2,0,0,0-5.41,10.91,11.24,11.24,0,0,0,2.92,8.12,19.37,19.37,0,0,0,7.25,4.64,108.88,108.88,0,0,0,11.78,3.46,112.23,112.23,0,0,1,13.3,4,21.88,21.88,0,0,1,8.49,5.9q3.51,3.94,3.51,10.65a18,18,0,0,1-3,10,20.26,20.26,0,0,1-9.14,7.25,37.67,37.67,0,0,1-15.13,2.7A43.87,43.87,0,0,1,1538.33,1232.66Z"/><polygon class="cls-1" points="1195.91 1023.34 949.75 1023.34 880.11 865.89 822.13 865.89 822.13 853.78 888 853.78 957.64 1011.23 1183.8 1011.23 1183.8 850.11 1059.67 777.95 935.52 850.48 935.52 887.74 923.41 887.74 923.41 843.53 1059.65 763.93 1195.91 843.14 1195.91 1023.34"/><path class="cls-1" d="M995.36,1098a31.65,31.65,0,1,1,31.65-31.65A31.69,31.69,0,0,1,995.36,1098Zm0-51.19a19.54,19.54,0,1,0,19.54,19.54A19.56,19.56,0,0,0,995.36,1046.78Z"/><path class="cls-1" d="M1130.13,1098a31.65,31.65,0,1,1,31.65-31.65A31.68,31.68,0,0,1,1130.13,1098Zm0-51.19a19.54,19.54,0,1,0,19.54,19.54A19.56,19.56,0,0,0,1130.13,1046.78Z"/><rect class="cls-2" x="753.65" y="913.93" width="120.27" height="12.11"/><rect class="cls-1" x="851.37" y="960.29" width="35.92" height="12.11"/><rect class="cls-2" x="809.61" y="1006.64" width="108.58" height="12.11"/><path class="cls-1" d="M1106.24,1023.34h-88.7V895.16h88.7Zm-76.59-12.11h64.48v-104h-64.48Z"/></svg>