<svg width="202" height="29" viewBox="0 0 202 29" fill="none" xmlns="http://www.w3.org/2000/svg">
<path d="M21.5508 6.67773H13.7109V28H8.4375V6.67773H0.703125V2.40625H21.5508V6.67773ZM34.4707 26.0664C33.2168 27.5898 31.4824 28.3516 29.2676 28.3516C27.2285 28.3516 25.6699 27.7656 24.5918 26.5938C23.5254 25.4219 22.9805 23.7051 22.957 21.4434V8.98047H28.0371V21.2676C28.0371 23.248 28.9395 24.2383 30.7441 24.2383C32.4668 24.2383 33.6504 23.6406 34.2949 22.4453V8.98047H39.3926V28H34.6113L34.4707 26.0664ZM53.9121 13.7441C53.2207 13.6504 52.6113 13.6035 52.084 13.6035C50.1621 13.6035 48.9023 14.2539 48.3047 15.5547V28H43.2246V8.98047H48.0234L48.1641 11.248C49.1836 9.50195 50.5957 8.62891 52.4004 8.62891C52.9629 8.62891 53.4902 8.70508 53.9824 8.85742L53.9121 13.7441ZM73.5117 18.666C73.5117 21.7129 72.8613 24.0918 71.5605 25.8027C70.2598 27.502 68.4434 28.3516 66.1113 28.3516C64.0488 28.3516 62.4023 27.5605 61.1719 25.9785L60.9434 28H56.373V1H61.4531V10.6855C62.625 9.31445 64.166 8.62891 66.0762 8.62891C68.3965 8.62891 70.2129 9.48438 71.5254 11.1953C72.8496 12.8945 73.5117 15.291 73.5117 18.3848V18.666ZM68.4316 18.2969C68.4316 16.375 68.127 14.9746 67.5176 14.0957C66.9082 13.2051 66 12.7598 64.793 12.7598C63.1758 12.7598 62.0625 13.4219 61.4531 14.7461V22.252C62.0742 23.5879 63.1992 24.2559 64.8281 24.2559C66.4688 24.2559 67.5469 23.4473 68.0625 21.8301C68.3086 21.0566 68.4316 19.8789 68.4316 18.2969ZM75.8672 18.3145C75.8672 16.4277 76.2305 14.7461 76.957 13.2695C77.6836 11.793 78.7266 10.6504 80.0859 9.8418C81.457 9.0332 83.0449 8.62891 84.8496 8.62891C87.416 8.62891 89.5078 9.41406 91.125 10.9844C92.7539 12.5547 93.6621 14.6875 93.8496 17.3828L93.8848 18.6836C93.8848 21.6016 93.0703 23.9453 91.4414 25.7148C89.8125 27.4727 87.627 28.3516 84.8848 28.3516C82.1426 28.3516 79.9512 27.4727 78.3105 25.7148C76.6816 23.957 75.8672 21.5664 75.8672 18.543V18.3145ZM80.9473 18.6836C80.9473 20.4883 81.2871 21.8711 81.9668 22.832C82.6465 23.7812 83.6191 24.2559 84.8848 24.2559C86.1152 24.2559 87.0762 23.7871 87.7676 22.8496C88.459 21.9004 88.8047 20.3887 88.8047 18.3145C88.8047 16.5449 88.459 15.1738 87.7676 14.2012C87.0762 13.2285 86.1035 12.7422 84.8496 12.7422C83.6074 12.7422 82.6465 13.2285 81.9668 14.2012C81.2871 15.1621 80.9473 16.6562 80.9473 18.6836Z" fill="#071959" fill-opacity="0.89"/>
<path d="M126.65 16.0293C126.65 18.5371 126.229 20.7285 125.385 22.6035C124.541 24.4668 123.346 25.8906 121.799 26.875C120.252 27.8594 118.447 28.3516 116.385 28.3516C114.369 28.3516 112.582 27.8594 111.023 26.875C109.465 25.8789 108.252 24.4668 107.385 22.6387C106.529 20.7988 106.09 18.6719 106.066 16.2578V14.4121C106.066 11.9512 106.494 9.77734 107.35 7.89062C108.205 6.00391 109.412 4.5625 110.971 3.56641C112.541 2.55859 114.334 2.05469 116.35 2.05469C118.4 2.05469 120.205 2.55273 121.764 3.54883C123.334 4.5332 124.541 5.96875 125.385 7.85547C126.229 9.73047 126.65 11.916 126.65 14.4121V16.0293ZM123.293 14.377C123.293 11.3418 122.684 9.01562 121.465 7.39844C120.246 5.76953 118.541 4.95508 116.35 4.95508C114.217 4.95508 112.535 5.76953 111.305 7.39844C110.086 9.01562 109.459 11.2656 109.424 14.1484V16.0293C109.424 18.9707 110.039 21.2852 111.27 22.9727C112.512 24.6484 114.217 25.4863 116.385 25.4863C118.564 25.4863 120.252 24.6953 121.447 23.1133C122.643 21.5195 123.258 19.2402 123.293 16.2754V14.377ZM132.803 28V11.4941H129.797V8.98047H132.803V7.0293C132.803 4.99023 133.348 3.41406 134.438 2.30078C135.527 1.1875 137.068 0.630859 139.061 0.630859C139.811 0.630859 140.555 0.730469 141.293 0.929688L141.117 3.56641C140.566 3.46094 139.98 3.4082 139.359 3.4082C138.305 3.4082 137.49 3.71875 136.916 4.33984C136.342 4.94922 136.055 5.82813 136.055 6.97656V8.98047H140.115V11.4941H136.055V28H132.803ZM145.318 28V11.4941H142.312V8.98047H145.318V7.0293C145.318 4.99023 145.863 3.41406 146.953 2.30078C148.043 1.1875 149.584 0.630859 151.576 0.630859C152.326 0.630859 153.07 0.730469 153.809 0.929688L153.633 3.56641C153.082 3.46094 152.496 3.4082 151.875 3.4082C150.82 3.4082 150.006 3.71875 149.432 4.33984C148.857 4.94922 148.57 5.82813 148.57 6.97656V8.98047H152.631V11.4941H148.57V28H145.318ZM163.705 28.3516C161.127 28.3516 159.029 27.5078 157.412 25.8203C155.795 24.1211 154.986 21.8535 154.986 19.0176V18.4199C154.986 16.5332 155.344 14.8516 156.059 13.375C156.785 11.8867 157.793 10.7266 159.082 9.89453C160.383 9.05078 161.789 8.62891 163.301 8.62891C165.773 8.62891 167.695 9.44336 169.066 11.0723C170.438 12.7012 171.123 15.0332 171.123 18.0684V19.4219H158.238C158.285 21.2969 158.83 22.8145 159.873 23.9746C160.928 25.123 162.264 25.6973 163.881 25.6973C165.029 25.6973 166.002 25.4629 166.799 24.9941C167.596 24.5254 168.293 23.9043 168.891 23.1309L170.877 24.6777C169.283 27.127 166.893 28.3516 163.705 28.3516ZM163.301 11.3008C161.988 11.3008 160.887 11.7812 159.996 12.7422C159.105 13.6914 158.555 15.0273 158.344 16.75H167.871V16.5039C167.777 14.8516 167.332 13.5742 166.535 12.6719C165.738 11.7578 164.66 11.3008 163.301 11.3008ZM184.096 11.8984C183.604 11.8164 183.07 11.7754 182.496 11.7754C180.363 11.7754 178.916 12.6836 178.154 14.5V28H174.902V8.98047H178.066L178.119 11.1777C179.186 9.47852 180.697 8.62891 182.654 8.62891C183.287 8.62891 183.768 8.71094 184.096 8.875V11.8984ZM198.176 22.9551C198.176 22.0762 197.842 21.3965 197.174 20.916C196.518 20.4238 195.363 20.002 193.711 19.6504C192.07 19.2988 190.764 18.877 189.791 18.3848C188.83 17.8926 188.115 17.3066 187.646 16.627C187.189 15.9473 186.961 15.1387 186.961 14.2012C186.961 12.6426 187.617 11.3242 188.93 10.2461C190.254 9.16797 191.941 8.62891 193.992 8.62891C196.148 8.62891 197.895 9.18555 199.23 10.2988C200.578 11.4121 201.252 12.8359 201.252 14.5703H197.982C197.982 13.6797 197.602 12.9121 196.84 12.2676C196.09 11.623 195.141 11.3008 193.992 11.3008C192.809 11.3008 191.883 11.5586 191.215 12.0742C190.547 12.5898 190.213 13.2637 190.213 14.0957C190.213 14.8809 190.523 15.4727 191.145 15.8711C191.766 16.2695 192.885 16.6504 194.502 17.0137C196.131 17.377 197.449 17.8105 198.457 18.3145C199.465 18.8184 200.209 19.4277 200.689 20.1426C201.182 20.8457 201.428 21.707 201.428 22.7266C201.428 24.4258 200.748 25.791 199.389 26.8223C198.029 27.8418 196.266 28.3516 194.098 28.3516C192.574 28.3516 191.227 28.082 190.055 27.543C188.883 27.0039 187.963 26.2539 187.295 25.293C186.639 24.3203 186.311 23.2715 186.311 22.1465H189.562C189.621 23.2363 190.055 24.1035 190.863 24.748C191.684 25.3809 192.762 25.6973 194.098 25.6973C195.328 25.6973 196.312 25.4512 197.051 24.959C197.801 24.4551 198.176 23.7871 198.176 22.9551Z" fill="#545455" fill-opacity="0.8"/>
</svg>
