<svg width="68" height="37" viewBox="0 0 68 37" fill="none" xmlns="http://www.w3.org/2000/svg">
<path d="M1.4666 31.9164H0V30.9838H3.75539V31.9164H2.2882V36.9162H1.4666V31.9164Z" fill="#00004F"/>
<path d="M6.66402 36.3096C6.32252 35.8488 6.15176 35.1892 6.15176 34.3308V30.9838H6.97337V34.2885C6.97337 35.452 7.3486 36.0337 8.09905 36.0337C8.8495 36.0337 9.22258 35.452 9.2183 34.2885V30.9838H10.027V34.3301C10.027 35.1889 9.85745 35.8485 9.51828 36.3088C9.17912 36.7691 8.70428 36.9995 8.09378 37C7.48173 37 7.00514 36.7699 6.66402 36.3096Z" fill="#00004F"/>
<path d="M65.479 36.7327C65.22 36.6129 64.9852 36.4144 64.793 36.1528L64.9381 35.8307C65.1158 36.0697 65.3306 36.2532 65.5673 36.3683C65.8322 36.5072 66.1144 36.5777 66.3989 36.576C66.8207 36.576 67.1388 36.4686 67.3532 36.2539C67.4545 36.1607 67.5369 36.0353 67.5933 35.889C67.6496 35.7427 67.678 35.58 67.676 35.4154C67.6804 35.2995 67.6675 35.1837 67.6382 35.0746C67.6089 34.9655 67.5637 34.8653 67.5053 34.7798C67.3862 34.6175 67.2416 34.4929 67.0819 34.4154C66.8584 34.3094 66.6303 34.2217 66.3989 34.1529C66.1341 34.07 65.8733 33.9653 65.6182 33.8394C65.4251 33.7405 65.2533 33.5789 65.1182 33.3692C64.9813 33.1576 64.9129 32.8732 64.9129 32.5182C64.9113 32.2372 64.9706 31.9617 65.0837 31.7251C65.2116 31.4697 65.3931 31.2709 65.6053 31.1538C65.8392 31.0128 66.1316 30.942 66.4825 30.9415C66.7268 30.9417 66.9698 30.9903 67.2035 31.0857C67.4223 31.1714 67.6294 31.3037 67.817 31.4775L67.6965 31.8254C67.5176 31.6602 67.3202 31.5343 67.1117 31.4524C66.9076 31.3696 66.6957 31.3268 66.4825 31.3255C66.0735 31.3255 65.7638 31.4357 65.5532 31.6562C65.4532 31.7542 65.3722 31.883 65.3171 32.0318C65.262 32.1806 65.2345 32.3451 65.2369 32.5111C65.2327 32.627 65.2456 32.7429 65.2749 32.8521C65.3042 32.9613 65.3493 33.0617 65.4076 33.1475C65.5268 33.3097 65.6717 33.434 65.8316 33.5111C66.0572 33.6187 66.2872 33.7093 66.5205 33.7822C66.7843 33.8651 67.0441 33.9698 67.2982 34.0957C67.4889 34.1944 67.6592 34.353 67.7947 34.558C67.9316 34.7639 68 35.0421 68 35.3926C68.0006 35.6713 67.9395 35.944 67.8245 36.1763C67.6918 36.4318 67.5059 36.6294 67.2901 36.7444C67.0091 36.8957 66.7079 36.9677 66.4053 36.956C66.0889 36.9588 65.7748 36.883 65.479 36.7327V36.7327Z" fill="#999999"/>
<path d="M15.9706 36.9162L15.066 35.1788C15.0094 35.1859 14.9526 35.1887 14.8958 35.1874H13.8964V36.9162H13.0742V30.9838H14.8958C15.2394 30.9733 15.5807 31.0601 15.8975 31.2385C16.165 31.3884 16.393 31.6422 16.5519 31.9673C16.7083 32.3051 16.7876 32.6968 16.7799 33.0942C16.7878 33.5025 16.7027 33.9043 16.5361 34.2462C16.3639 34.5785 16.1186 34.8303 15.8344 34.9664L16.8554 36.9162H15.9706ZM15.673 32.222C15.4878 32.0193 15.2161 31.9177 14.8578 31.9171H13.8964V34.2807H14.8578C15.2157 34.2807 15.4874 34.1778 15.673 33.972C15.8585 33.7661 15.9513 33.4738 15.9513 33.095C15.9513 32.7168 15.8585 32.4255 15.673 32.2212V32.222Z" fill="#00004F"/>
<path d="M23.3106 34.3693C23.4593 34.6414 23.5351 34.9727 23.5258 35.3097C23.5258 35.8238 23.3783 36.2206 23.0832 36.5001C22.7881 36.7796 22.3582 36.9183 21.7937 36.9162H19.5933V30.9838H21.6669C22.1896 30.9838 22.5922 31.1209 22.8744 31.3952C23.0102 31.5213 23.1201 31.691 23.1941 31.8889C23.2681 32.0868 23.3037 32.3064 23.2978 32.5276C23.3021 32.8027 23.2495 33.0739 23.1457 33.3113C23.0463 33.5353 22.9018 33.7173 22.7288 33.8364C22.959 33.9296 23.1622 34.1157 23.3106 34.3693V34.3693ZM20.4154 31.8482V33.4837H21.5786C21.8651 33.4837 22.0854 33.4145 22.2393 33.2761C22.3139 33.2109 22.3744 33.1206 22.4148 33.0143C22.4553 32.908 22.4742 32.7894 22.4697 32.6703C22.4746 32.5498 22.4559 32.4298 22.4155 32.322C22.3751 32.2142 22.3144 32.1225 22.2393 32.0559C22.0854 31.9179 21.8651 31.8487 21.5786 31.8482H20.4154ZM22.696 35.1953C22.696 34.6248 22.3777 34.3395 21.7411 34.3395H20.4137V36.0542H21.7411C22.3785 36.0542 22.6974 35.7668 22.6978 35.1921L22.696 35.1953Z" fill="#00004F"/>
<path d="M27.1485 36.6027C26.7943 36.3508 26.4988 35.9728 26.2947 35.5103C26.092 35.034 25.9854 34.4951 25.9854 33.9468C25.9854 33.3985 26.092 32.8597 26.2947 32.3834C26.4982 31.919 26.7937 31.5393 27.1485 31.2863C27.5263 31.0272 27.9445 30.8921 28.3689 30.8921C28.7933 30.8921 29.2116 31.0272 29.5893 31.2863C29.9427 31.5376 30.2378 31.9141 30.4425 32.3748C30.6455 32.8524 30.7523 33.3925 30.7523 33.9421C30.7523 34.4918 30.6455 35.0319 30.4425 35.5095C30.2383 35.9719 29.9432 36.3501 29.5893 36.6027C29.2116 36.8618 28.7933 36.9969 28.3689 36.9969C27.9445 36.9969 27.5263 36.8618 27.1485 36.6027ZM29.1654 35.7642C29.3991 35.5897 29.5918 35.3313 29.7221 35.0181C29.8549 34.689 29.9244 34.3206 29.9244 33.9464C29.9244 33.5722 29.8549 33.2039 29.7221 32.8748C29.5917 32.5617 29.399 32.3034 29.1654 32.1287C28.9202 31.9539 28.6467 31.8625 28.3689 31.8625C28.0912 31.8625 27.8177 31.9539 27.5724 32.1287C27.3389 32.3034 27.1461 32.5617 27.0157 32.8748C26.8829 33.2039 26.8134 33.5722 26.8134 33.9464C26.8134 34.3206 26.8829 34.689 27.0157 35.0181C27.146 35.3313 27.3387 35.5897 27.5724 35.7642C27.8177 35.939 28.0912 36.0304 28.3689 36.0304C28.6467 36.0304 28.9202 35.939 29.1654 35.7642Z" fill="#00004F"/>
<path d="M34.4003 36.5635C34.0576 36.3101 33.7727 35.9369 33.5758 35.4836C33.3788 35.0156 33.2752 34.4874 33.2752 33.95C33.2752 33.4126 33.3788 32.8844 33.5758 32.4164C33.7726 31.9628 34.0575 31.5893 34.4003 31.3357C34.7626 31.0781 35.1664 30.9434 35.5765 30.9434C35.9866 30.9434 36.3905 31.0781 36.7528 31.3357C37.0959 31.5868 37.3812 31.9589 37.5779 32.4117C37.7746 32.8828 37.8779 33.4136 37.8779 33.9535C37.8779 34.4934 37.7746 35.0243 37.5779 35.4954C37.3812 35.9482 37.0959 36.3203 36.7528 36.5714C36.3905 36.8289 35.9866 36.9636 35.5765 36.9636C35.1664 36.9636 34.7626 36.8289 34.4003 36.5714V36.5635ZM36.582 36.2203C36.877 35.9999 37.1218 35.6762 37.2902 35.2838C37.46 34.876 37.5492 34.4167 37.5492 33.9496C37.5492 33.4825 37.46 33.0232 37.2902 32.6154C37.1216 32.2232 36.8769 31.8996 36.582 31.6789C36.2723 31.4567 35.9264 31.3404 35.5751 31.3404C35.2237 31.3404 34.8778 31.4567 34.5681 31.6789C34.2718 31.8983 34.0259 32.2222 33.857 32.6154C33.6868 33.0231 33.5974 33.4824 33.5974 33.9496C33.5974 34.4168 33.6868 34.8761 33.857 35.2838C34.0257 35.6772 34.2716 36.0011 34.5681 36.2203C34.8777 36.443 35.2237 36.5596 35.5751 36.5596C35.9265 36.5596 36.2724 36.443 36.582 36.2203V36.2203Z" fill="#999999"/>
<path d="M41.2163 31.3741V33.9077H43.5747V34.2995H41.2163V36.9162H40.8935V30.9838H43.8524V31.3756L41.2163 31.3741Z" fill="#999999"/>
<path d="M47.1026 31.3741V33.9077H49.461V34.2995H47.1026V36.9162H46.7798V30.9838H49.7387V31.3756L47.1026 31.3741Z" fill="#999999"/>
<path d="M55.7203 36.5243V36.9162H52.6667V30.9838H55.6256V31.3756H52.9889V33.7141H55.3473V34.095H52.9889V36.5243H55.7203Z" fill="#999999"/>
<path d="M61.8657 36.9162L60.8096 34.9335C60.6672 34.9604 60.5236 34.9745 60.3798 34.9758H59.1155V36.9162H58.7933V30.9838H60.3804C60.9371 30.9838 61.3733 31.1604 61.6891 31.5136C62.0049 31.8667 62.1629 32.3568 62.1633 32.9837C62.1633 33.4539 62.0739 33.8478 61.8949 34.1655C61.7013 34.4976 61.4311 34.7346 61.1265 34.8394L62.2329 36.9154L61.8657 36.9162ZM60.3798 34.5942C60.8519 34.5942 61.2123 34.4544 61.461 34.1749C61.7097 33.8954 61.8341 33.4986 61.8341 32.9845C61.8341 32.4704 61.7097 32.0736 61.461 31.7941C61.2123 31.5146 60.8519 31.3748 60.3798 31.3748H59.1155V34.5942H60.3798Z" fill="#999999"/>
<path d="M45.4553 20.3291H31.0606L26.9883 7.99028H23.5978V7.04126H27.4496L31.522 19.3801H44.7471V6.75365L37.4884 1.0987L30.2285 6.78265V9.7026H29.5203V6.238L37.4872 0L45.4553 6.20744V20.3291Z" fill="#00004F"/>
<path d="M33.7278 26.18C33.3617 26.18 33.0039 26.0345 32.6995 25.762C32.3952 25.4894 32.158 25.1021 32.0179 24.6488C31.8778 24.1956 31.8411 23.6969 31.9126 23.2157C31.984 22.7346 32.1602 22.2926 32.4191 21.9457C32.6779 21.5988 33.0077 21.3626 33.3667 21.2669C33.7257 21.1712 34.0978 21.2203 34.436 21.4081C34.7742 21.5958 35.0633 21.9137 35.2666 22.3216C35.47 22.7295 35.5785 23.2091 35.5785 23.6996C35.5779 24.3572 35.3827 24.9876 35.0358 25.4526C34.6888 25.9176 34.2184 26.1792 33.7278 26.18V26.18ZM33.7278 22.1683C33.5018 22.1683 33.2809 22.2581 33.093 22.4264C32.9051 22.5946 32.7586 22.8338 32.6721 23.1136C32.5856 23.3934 32.563 23.7013 32.6071 23.9984C32.6512 24.2954 32.76 24.5683 32.9198 24.7824C33.0796 24.9966 33.2832 25.1425 33.5049 25.2015C33.7265 25.2606 33.9562 25.2303 34.165 25.1144C34.3738 24.9985 34.5523 24.8022 34.6778 24.5504C34.8034 24.2986 34.8704 24.0025 34.8704 23.6996C34.8706 23.2932 34.7503 22.9034 34.536 22.6158C34.3217 22.3282 34.031 22.1664 33.7278 22.1659V22.1683Z" fill="#00004F"/>
<path d="M41.6087 26.18C41.2426 26.18 40.8848 26.0345 40.5804 25.762C40.2761 25.4894 40.0388 25.1021 39.8988 24.6488C39.7587 24.1956 39.722 23.6969 39.7934 23.2157C39.8649 22.7346 40.0411 22.2926 40.3 21.9457C40.5588 21.5988 40.8886 21.3626 41.2476 21.2669C41.6066 21.1712 41.9788 21.2203 42.3169 21.4081C42.6551 21.5958 42.9442 21.9137 43.1476 22.3216C43.3509 22.7295 43.4595 23.2091 43.4595 23.6996C43.459 24.3573 43.2639 24.9878 42.9169 25.4528C42.5699 25.9179 42.0994 26.1794 41.6087 26.18ZM41.6087 22.1683C41.3827 22.1683 41.1618 22.2581 40.9739 22.4264C40.786 22.5946 40.6395 22.8338 40.553 23.1136C40.4665 23.3934 40.4439 23.7013 40.488 23.9984C40.5321 24.2954 40.6409 24.5683 40.8007 24.7824C40.9605 24.9966 41.1641 25.1425 41.3858 25.2015C41.6074 25.2606 41.8372 25.2303 42.046 25.1144C42.2547 24.9985 42.4332 24.8022 42.5588 24.5504C42.6843 24.2986 42.7513 24.0025 42.7513 23.6996C42.7515 23.2932 42.6312 22.9034 42.4169 22.6158C42.2027 22.3282 41.9119 22.1664 41.6087 22.1659V22.1683Z" fill="#00004F"/>
<path d="M26.6263 11.755H19.5933V12.7041H26.6263V11.755Z" fill="#999999"/>
<path d="M27.4081 15.3879H25.3076V16.3369H27.4081V15.3879Z" fill="#00004F"/>
<path d="M29.2151 19.0204H22.8656V19.9694H29.2151V19.0204Z" fill="#999999"/>
<path d="M40.2117 20.3291H35.0246V10.2841H40.2117V20.3291ZM35.7328 19.3801H39.5035V11.2299H35.7328V19.3801Z" fill="#00004F"/>
</svg>
